<svg width="186" height="136" viewBox="0 0 186 136" fill="none" xmlns="http://www.w3.org/2000/svg">
<path d="M132.7 123.7L133.7 123.4L132.3 120L131.4 120.3L132.7 123.7Z" fill="#5D85AC"/>
<path d="M32.9 97.7H31V99.6H32.9V97.7Z" fill="#5D85AC"/>
<path d="M42.8 122L46.6 115.9C42.6 112.3 37.3 111.1 33.5 112.8C34.9 114.5 35.9 116.5 36.4 118.7C33.5 120.4 31.1 122.1 30.1 125.1C33.9 123 43.4 131.9 46.9 134.3L42.6 127C41.6 125.5 41.7 123.5 42.8 122Z" fill="#5D85AC"/>
<path d="M140.4 123.1C140.3 123.1 140.3 123.1 140.2 123.1C124.5 130.5 108.7 134.2 93 134.3C77.2 134.3 61.4 130.6 45.6 123.2C45.6 123.2 45.5 123.2 45.4 123.1H45.5C43.8 122.5 43.2 124.3 43.8 125.4L49.2 135.9L52.5 127.9C65.4 133.1 79.1 135.8 93 135.9C106.8 135.8 120.4 133.1 133.2 127.9L136.5 135.8L142 125.3C142.5 124.4 142 122.7 140.4 123.1Z" fill="#5D85AC"/>
<path d="M4.59998 93.4L1.99998 97.5V93.5H0.599976V99.6H1.99998L4.59998 95.6V99.6H5.99998V93.4H4.59998Z" fill="#5D85AC"/>
<path d="M56 121.8L56.3 121.1L53.6 120L52.2 123.3L55 124.4L55.3 123.6L53.5 122.9L53.7 122.4L55.3 123L55.6 122.3L54 121.6L54.2 121.1L56 121.8Z" fill="#5D85AC"/>
<path d="M45.2 97.7H43.3V99.6H45.2V97.7Z" fill="#5D85AC"/>
<path d="M49.1 113.9C48.9 114.3 49.1 114.8 49.5 115C63.9 121.7 78.4 125 92.9 125C107.4 125 121.9 121.6 136.3 115C136.7 114.8 136.9 114.3 136.7 113.9C136.5 113.5 136 113.3 135.7 113.5C127.1 117.5 118.1 120.4 108.8 122C106.5 119.8 104.8 118.6 100.2 118.6C102 121.2 103.2 121.8 107.7 122.2C106 122.5 104.4 122.7 102.7 122.9C101.6 120.8 100.7 119.6 97.6 118.8C100.4 118.4 101.5 117.2 103.1 115.4C98.7 115.9 96.7 116.5 96.2 118.4C95.1 118.5 94 118.7 92.9 118.9C91.8 118.6 90.7 118.4 89.6 118.4C89 116.4 87.1 115.9 82.7 115.4C84.3 117.2 85.4 118.4 88.2 118.8C85.2 119.6 84.2 120.8 83.1 122.8C81.4 122.6 79.7 122.4 78.1 122.1C82.7 121.7 84 121.2 85.7 118.5C81.1 118.5 79.3 119.7 77.1 121.9C67.8 120.3 58.7 117.4 50.1 113.4C49.8 113.3 49.3 113.5 49.1 113.9ZM89.8 119.1C90.4 119.2 91.1 119.3 91.7 119.5C90.7 120 90 120.9 89.7 121.9C89.6 122.2 89.9 122.4 90.3 122.4C90.7 122.4 91.2 122.4 91.3 122.2C91.4 121.2 92 120.4 92.9 120C93.8 120.4 94.4 121.3 94.5 122.2C94.6 122.4 95.1 122.5 95.5 122.4C95.9 122.4 96.2 122.1 96.1 121.9C95.8 120.9 95.1 120 94.1 119.5C94.7 119.3 95.4 119.2 96 119.1C96.2 121.2 97.6 121.9 101.3 122.9C98.5 123.2 95.6 123.3 92.8 123.3C90 123.3 87.2 123.2 84.3 122.9C88.2 122 89.6 121.3 89.8 119.1Z" fill="#5D85AC"/>
<path d="M50.1 118.5L48.8 118L47.4 121.4L48.7 121.9C49.6 122.4 50.7 122.1 51.2 121.2C51.2 121.1 51.3 121.1 51.3 121C51.7 120.1 51.3 119 50.4 118.6C50.2 118.5 50.1 118.5 50.1 118.5ZM50.3 120.5C50.1 121 49.6 121.3 49.1 121.1C49 121.1 49 121.1 48.9 121L48.5 120.8L49.2 119.1L49.6 119.3C50.2 119.5 50.5 120 50.3 120.5Z" fill="#5D85AC"/>
<path d="M70.4 92.8L70.3 96.4C70.3 97.7 69.7 98.2 68.5 98.1L68.4 99.7C68.7 99.8 69 99.8 69.4 99.8C70.9 99.8 72.1 99 72.2 96.5L72.3 93.5V92.8H74.8V99.7H76.6V91H70.3V92.8H70.4Z" fill="#5D85AC"/>
<path d="M157 91H154.7L151.8 94.2H151V91H149.1V99.6H151V95.9H151.9L154.8 99.6H157.2L153.5 94.9L157 91Z" fill="#5D85AC"/>
<path d="M145.1 93C145.4 93.2 145.7 93.4 146 93.7L147.4 92.5C147 92 146.5 91.6 145.9 91.4C145.3 91.1 144.7 91 144 91C143.9 91 143.8 91 143.7 91C141.3 91.1 139.3 93.1 139.4 95.6C139.5 98 141.5 100 144 99.9C144.7 99.9 145.3 99.8 145.9 99.5C146.5 99.2 147 98.8 147.4 98.3L146 97.1C145.8 97.4 145.5 97.6 145.1 97.8C144.1 98.3 143 98.1 142.2 97.3C141.2 96.3 141.2 94.7 142.2 93.7C143 92.7 144.1 92.5 145.1 93Z" fill="#5D85AC"/>
<path d="M84.1 111.8C84.2 110.9 83.6 110.1 82.7 109.9C81.8 109.8 81 110.3 80.8 111.2C80.6 112.1 81.2 112.9 82.1 113.1C83.1 113.3 83.9 112.7 84.1 111.8ZM82.4 112.4C82 112.3 81.7 111.9 81.7 111.5C81.8 111.1 82.2 110.8 82.6 110.8C83 110.9 83.3 111.3 83.2 111.7C83.2 112.2 82.8 112.5 82.4 112.4Z" fill="#5D85AC"/>
<path d="M50.4 84.9C50.3 84.9 50.3 84.9 50.4 84.9V84.9Z" fill="#5D85AC"/>
<path d="M149.4 118.7C149.9 116.6 150.9 114.6 152.3 112.8C148.5 111.1 143.2 112.2 139.2 115.9L143 122C144.1 123.4 144.1 125.4 143.1 126.9L138.9 134.3C142.4 131.9 151.9 123 155.7 125.1C154.8 122.1 152.3 120.4 149.4 118.7Z" fill="#5D85AC"/>
<path d="M41.6 93.3C41.6 92.7 41.4 92.2 41 91.8C40.4 91.2 39.6 91 38.7 91H34.6V99.6H38.8C40.8 99.6 42.1 98.8 42.1 97.2C42.1 96 41.5 95.5 40.4 95.1C41.2 94.8 41.7 94.1 41.6 93.3ZM36.5 92.7H38.4C39.2 92.7 39.7 93 39.7 93.6C39.7 94.2 39.2 94.6 38.3 94.6H36.5V92.7ZM38.8 97.9H36.5V96.1H38.7C39.7 96.1 40.1 96.4 40.1 97C40.2 97.6 39.7 97.9 38.8 97.9Z" fill="#5D85AC"/>
<path d="M61.8 79.4C60.9 79.5 60 79.8 59.4 80.4C58.8 81 58.4 81.9 58.4 82.8C58.4 83.7 58.8 84.5 59.4 85.1C60.7 86.4 62.9 86.4 64.2 85.1C64.8 84.5 65.2 83.6 65.2 82.8C65.2 80.9 63.7 79.4 61.8 79.4ZM63.2 84.2C62.4 85 61.2 85 60.5 84.2C59.7 83.4 59.7 82.2 60.5 81.4C61.3 80.6 62.5 80.6 63.3 81.4C63.9 82.2 63.9 83.4 63.2 84.2Z" fill="#5D85AC"/>
<path d="M69.4 79.6H66.6V86.1H68.1V84.1H69.2C70.7 84.1 71.9 83.3 71.9 81.8C71.9 80.5 71 79.6 69.4 79.6ZM69.4 82.9C69.3 82.9 69.3 82.9 69.4 82.9C69.3 82.9 68.1 82.9 68.1 82.9V80.8H69.2C69.9 80.8 70.4 81.2 70.4 81.8C70.4 82.4 69.9 82.9 69.4 82.9Z" fill="#5D85AC"/>
<path d="M62.7 94.2H61.9V91H60V99.6H61.9V95.9H62.8L65.7 99.6H68L64.4 94.9L67.8 91H65.5L62.7 94.2Z" fill="#5D85AC"/>
<path d="M111.5 126.2L108.3 126.7L108.5 127.6L109.5 127.4L110 130.1L111 130L110.5 127.2L111.6 127.1L111.5 126.2Z" fill="#5D85AC"/>
<path d="M78 128.7C78 128.6 78 128.6 78 128.7C78.2 127.6 77.5 126.7 76.5 126.5H76.4C75.4 126.3 74.4 127 74.2 128.1C74.1 128.4 74.2 128.8 74.3 129.1C74.5 129.7 75.1 130.2 75.8 130.3C76.8 130.4 77.8 129.7 78 128.7ZM75.1 128.2C75.2 127.6 75.7 127.3 76.2 127.4C76.7 127.5 77.1 128 77 128.5C76.9 129 76.5 129.4 76 129.3C75.4 129.2 75 128.7 75.1 128.2Z" fill="#5D85AC"/>
<path d="M101.5 131.2L102.7 127.4L101.6 127.5L101 129.9L100 127.6L98.8 127.7L100.6 131.3L101.5 131.2Z" fill="#5D85AC"/>
<path d="M10.7 96.2L8.99998 93.5H7.49998V99.7H8.89998V95.7L10.6 98.3H10.7L12.4 95.7V99.7H13.7V93.5H12.3L10.7 96.2Z" fill="#5D85AC"/>
<path d="M17.1 97.7H15.2V99.6H17.1V97.7Z" fill="#5D85AC"/>
<path d="M103.9 131L104.9 130.9L105.1 130.2L106.5 130L106.8 130.6L107.9 130.5L105.9 127.1L104.9 127.2L103.9 131ZM105.5 128.2L106 129.2L105.2 129.3L105.5 128.2Z" fill="#5D85AC"/>
<path d="M130.9 124.5L129.6 121L128.7 121.4L129.3 123.2L127.3 121.8L126.4 122.2L127.6 125.6H127.7L128.6 125.3L127.9 123.4L130 124.8L130.9 124.5Z" fill="#5D85AC"/>
<path d="M80.8 127.2L79.9 127.1L79.5 130.7L80.5 130.8L80.7 128.8L82.1 131L83 131.1L83.3 127.4L82.3 127.3L82.1 129.3L80.8 127.2Z" fill="#5D85AC"/>
<path d="M95.4 130.4H95.8L96.6 131.5H97.8L96.9 130.2C97.4 130 97.7 129.6 97.6 129.1C97.6 128.8 97.5 128.5 97.3 128.2C97 127.9 96.5 127.8 96.1 127.8H94.4L94.5 131.4H95.5V130.4H95.4ZM95.4 128.7H96.1C96.4 128.7 96.6 128.8 96.6 129.1C96.6 129.4 96.4 129.5 96.1 129.5H95.4V128.7Z" fill="#5D85AC"/>
<path d="M86.4 128.5C86.8 128.5 87.1 128.7 87.4 128.9L88 128.2C87.6 127.8 87.1 127.6 86.5 127.6C85.6 127.5 85.1 128 85 128.7C85 129.4 85.5 129.7 86.3 130C86.8 130.2 86.9 130.2 86.9 130.4C86.9 130.5 86.7 130.7 86.5 130.6C86.1 130.6 85.7 130.4 85.3 130.1L84.7 130.7C85.1 131.1 85.7 131.4 86.4 131.4C87.3 131.5 87.9 131.1 88 130.3C88.1 129.6 87.6 129.3 86.7 129.1C86.2 128.9 86.1 128.9 86.1 128.7C86.1 128.5 86.2 128.5 86.4 128.5Z" fill="#5D85AC"/>
<path d="M92.6 128.8V127.9H89.6V131.6V131.5L92.6 131.6V130.7H90.6V130.1H92.4V129.3H90.6V128.8H92.6Z" fill="#5D85AC"/>
<path d="M77.9 113.6C78.8 116.1 79.5 117.6 83.5 118.5C83.3 115.8 82.4 115.2 77.9 113.6Z" fill="#5D85AC"/>
<path d="M58.8 121.9L57.8 121.6L57.1 123.5C56.7 124.3 57.1 125.2 57.8 125.5C57.9 125.6 58 125.6 58.1 125.6C58.9 126 59.8 125.7 60.1 124.9C60.2 124.8 60.2 124.7 60.2 124.5L60.8 122.6L59.8 122.3L59.1 124.2C59 124.6 58.7 124.8 58.4 124.7H58.3C57.9 124.6 57.7 124.2 57.9 123.7L58.8 121.9Z" fill="#5D85AC"/>
<path d="M124.2 124.5L124.8 126.5L125.8 126.2L124.7 122.8L123.7 123.1L123.2 124.6L122 123.6L121 123.9L122.1 127.4L123 127.1L122.4 125.1L123.7 126.2L124.2 124.5Z" fill="#5D85AC"/>
<path d="M27.3 94.3H23.8V91H21.9V99.6H23.8V96.1H27.3V99.6H29.2V91H27.3V94.3Z" fill="#5D85AC"/>
<path d="M63.8 124.4C64.1 124.5 64.5 124.7 64.7 125L65.4 124.5C65.1 124.1 64.6 123.7 64.1 123.6C63.5 123.3 62.8 123.6 62.5 124.2C62.5 124.2 62.5 124.3 62.4 124.3C62.2 125 62.7 125.4 63.4 125.8C63.8 126.1 63.9 126.2 63.9 126.3C63.9 126.4 63.7 126.5 63.4 126.4C63 126.3 62.6 126 62.4 125.6L61.7 126.1C62 126.6 62.6 127 63.2 127.2C64 127.5 64.8 127.2 65 126.5C65.2 125.8 64.8 125.4 64 125C63.5 124.7 63.5 124.6 63.5 124.5C63.4 124.3 63.5 124.3 63.8 124.4Z" fill="#5D85AC"/>
<path d="M117.4 124.8C116.4 125.1 115.8 126.1 116.1 127.1C116.4 128.1 117.4 128.7 118.4 128.5C119.4 128.2 120 127.2 119.7 126.2C119.4 125.2 118.4 124.5 117.4 124.8ZM118.2 127.5C117.7 127.6 117.2 127.3 117 126.8C116.8 126.3 117.1 125.8 117.6 125.6C118.1 125.5 118.6 125.8 118.8 126.3C119 126.9 118.7 127.4 118.2 127.5Z" fill="#5D85AC"/>
<path d="M71.4 126.4C71.7 126.5 72 126.7 72.1 127L72.9 126.6C72.7 126 72.2 125.6 71.6 125.5C70.6 125.3 69.6 125.9 69.3 126.9C69.3 126.9 69.3 126.9 69.3 127C69.1 128 69.7 129 70.7 129.2C70.7 129.2 70.7 129.2 70.8 129.2C71.4 129.4 72.1 129.2 72.6 128.7L72 128C71.8 128.2 71.4 128.3 71.1 128.3C70.6 128.1 70.3 127.6 70.5 127.1C70.5 126.6 70.9 126.3 71.4 126.4Z" fill="#5D85AC"/>
<path d="M71.4 116.3C69 114.5 66.9 114.5 63.4 114.8C66.6 116.8 67.7 117 71.4 116.3Z" fill="#5D85AC"/>
<path d="M117.9 79.4C117 79.5 116.1 79.8 115.5 80.4C114.9 81 114.5 81.9 114.5 82.8C114.5 83.7 114.9 84.5 115.5 85.1C116.8 86.4 119 86.4 120.3 85.1C120.9 84.5 121.3 83.6 121.3 82.8C121.2 80.9 119.7 79.4 117.9 79.4ZM119.2 84.2C118.4 85 117.2 85 116.5 84.2C115.7 83.4 115.7 82.2 116.5 81.4C117.3 80.6 118.5 80.6 119.3 81.4C120 82.2 120 83.4 119.2 84.2Z" fill="#5D85AC"/>
<path d="M109.8 82.3L108.1 79.6H106.5V86.1H107.9V81.9L109.7 84.6L111.6 81.8V86.1H113V79.6H111.5L109.8 82.3Z" fill="#5D85AC"/>
<path d="M81.9 69.5V76H83.4V73.3H86V76H87.5V69.5H86V72H83.4V69.5H81.9Z" fill="#5D85AC"/>
<path d="M133.6 79.5V86H135.1L137.8 81.8V86H139.3V79.5H137.8L135 83.8V79.5H133.6Z" fill="#5D85AC"/>
<path d="M114.5 116.3C118.2 117 119.2 116.7 122.5 114.8C119 114.5 117 114.5 114.5 116.3Z" fill="#5D85AC"/>
<path d="M81 118.1C76.8 117.7 75 118.7 72.4 120.6C77.5 120.7 78.7 120.5 81 118.1Z" fill="#5D85AC"/>
<path d="M89.1 69.5V75.9H90.6L93.4 71.7V75.9H94.8V69.5H93.4L90.6 73.7V69.5H89.1Z" fill="#5D85AC"/>
<path d="M102.4 110.8C102.4 110.6 102.3 110.4 102.1 110.3C101.8 110.1 101.5 110.1 101.2 110.2L99.6 110.4L100.1 113.5L101.7 113.3C102.4 113.2 102.8 112.8 102.7 112.3C102.6 111.9 102.3 111.7 102 111.6C102.3 111.5 102.4 111.1 102.4 110.8ZM100.6 111L101.2 110.9C101.5 110.9 101.6 110.9 101.6 111.1C101.6 111.3 101.5 111.4 101.2 111.4L100.7 111.5L100.6 111ZM101.5 112.7L100.8 112.8L100.7 112.2L101.4 112.1C101.7 112.1 101.8 112.1 101.9 112.3C101.9 112.5 101.7 112.6 101.5 112.7Z" fill="#5D85AC"/>
<path d="M96.5 69.5V75.9H98L100.8 71.7V75.9H102.2V69.5H100.7L97.9 73.7V69.5H96.5Z" fill="#5D85AC"/>
<path d="M122.7 79.5V86H131.2V87.3H132.6V84.7H131.8V79.5H130.4V84.7H128V79.5H126.5V84.7H124.2V79.5H122.7Z" fill="#5D85AC"/>
<path d="M104.4 90.8C103.2 90.8 102.1 91.3 101.3 92.1C100.2 93.2 99.7 94.9 100.1 96.4C100.3 97.2 100.7 97.8 101.3 98.4C103 100.1 105.8 100.1 107.6 98.4C108.4 97.6 108.9 96.4 108.9 95.3C108.8 92.8 106.8 90.9 104.4 90.8ZM106.2 93.5C106.7 94 106.9 94.6 106.9 95.3C106.9 96 106.6 96.6 106.2 97.1C105.2 98.1 103.6 98.1 102.6 97.1C101.6 96.1 101.6 94.5 102.6 93.5C103.6 92.5 105.2 92.5 106.2 93.5Z" fill="#5D85AC"/>
<path d="M110.5 95.3C110.5 96 110.6 96.6 110.9 97.2C111.9 99.4 114.6 100.4 116.8 99.3C117.4 99 117.9 98.6 118.3 98.1L116.9 96.9C116.7 97.2 116.4 97.4 116 97.6C114.9 98.1 113.6 97.8 112.9 96.9C112.2 96 112.2 94.6 112.9 93.7C113 93.6 113.1 93.4 113.3 93.3C114.4 92.4 116 92.5 116.9 93.6L118.3 92.4C117.9 91.9 117.4 91.5 116.8 91.3C116.2 91 115.6 90.9 115 90.9C112.5 90.8 110.5 92.8 110.5 95.3Z" fill="#5D85AC"/>
<path d="M162.6 90.9C161.4 90.9 160.3 91.3 159.5 92.2C158.4 93.3 157.9 95 158.3 96.5C158.5 97.3 158.9 97.9 159.5 98.5C161.2 100.2 164 100.2 165.8 98.5C166.6 97.7 167.1 96.5 167.1 95.4C167 92.8 165 90.9 162.6 90.9ZM164.4 97.1C163.4 98.1 161.8 98.1 160.8 97.1C159.8 96.1 159.8 94.5 160.8 93.5C161.8 92.5 163.4 92.5 164.4 93.5C165.4 94.5 165.4 96.1 164.4 97.1Z" fill="#5D85AC"/>
<path d="M106.9 109L106.3 109.2L105.5 109.6L105.8 110.3L106.3 110L106.8 112.3L107.6 112.1L106.9 109Z" fill="#5D85AC"/>
<path d="M113.5 120.6C110.9 118.7 109.1 117.7 104.9 118.1C107.2 120.5 108.4 120.7 113.5 120.6Z" fill="#5D85AC"/>
<path d="M121.2 98.4C122.9 100.1 125.8 100.1 127.5 98.4C128.3 97.6 128.8 96.4 128.8 95.3C128.8 92.9 126.8 90.9 124.4 90.9C123.2 90.9 122.1 91.4 121.3 92.2C119.5 93.9 119.5 96.7 121.2 98.4ZM122.5 93.5C123 93 123.6 92.7 124.3 92.7C125 92.7 125.6 93 126.1 93.5C126.6 94 126.8 94.6 126.8 95.3C126.8 96 126.5 96.6 126.1 97.1C125.5 97.7 124.5 98 123.6 97.8C123.2 97.7 122.8 97.5 122.5 97.1C121.5 96.1 121.5 94.5 122.5 93.5Z" fill="#5D85AC"/>
<path d="M130.7 99.6H134.9C136.9 99.6 138.2 98.8 138.2 97.2C138.2 96 137.6 95.5 136.5 95.1C137.2 94.7 137.7 94 137.7 93.2C137.7 92.6 137.5 92.1 137.1 91.7C136.5 91.1 135.6 90.9 134.8 90.9H130.7V99.6ZM132.6 92.7H134.5C135.3 92.7 135.8 93 135.8 93.6C135.8 94.2 135.3 94.6 134.4 94.6H132.6V92.7ZM132.6 96.1H134.8C135.8 96.1 136.2 96.4 136.2 97C136.2 97.6 135.7 97.9 134.8 97.9H132.6V96.1Z" fill="#5D85AC"/>
<path d="M102.4 118.6C106.4 117.6 107.2 116.2 108 113.7C103.5 115.1 102.7 115.8 102.4 118.6Z" fill="#5D85AC"/>
<path d="M121.9 110.9C118.7 111.8 116.8 112.4 116.1 114.8C119.8 114.2 120.5 113.6 121.9 110.9Z" fill="#5D85AC"/>
<path d="M112.7 116.5C115.8 114.9 115.8 113.5 115.5 111.2C112.2 113.4 111.7 114.1 112.7 116.5Z" fill="#5D85AC"/>
<path d="M110.5 108.9C110.4 108.4 109.8 108.2 109.1 108.4C108.4 108.6 108.1 109.1 108.2 109.6C108.3 109.9 108.5 110.1 108.8 110.1C108.5 110.3 108.4 110.6 108.5 111C108.7 111.5 109.3 111.7 110 111.5C110.7 111.3 111.1 110.8 111 110.3C110.9 110 110.6 109.7 110.3 109.7C110.5 109.5 110.6 109.2 110.5 108.9ZM109 109.5C108.9 109.3 109.1 109.1 109.3 109.1C109.5 109 109.7 109.1 109.8 109.3C109.9 109.5 109.8 109.7 109.6 109.7C109.3 109.7 109.1 109.7 109 109.5ZM109.8 110.9C109.5 111 109.3 110.9 109.3 110.7C109.3 110.5 109.4 110.3 109.6 110.2C109.9 110.1 110.1 110.2 110.1 110.4C110.2 110.6 110.1 110.8 109.8 110.9Z" fill="#5D85AC"/>
<path d="M111.8 107.5L111.1 108.1L111.4 108.7L111.9 108.4L112.7 110.6L113.5 110.3L112.4 107.3L111.8 107.5Z" fill="#5D85AC"/>
<path d="M115.2 106.3C114.3 106.5 113.8 107.4 114 108.3C114 108.4 114 108.4 114.1 108.5C114.3 109.3 115.2 109.7 116 109.5H116.1C117 109.3 117.5 108.4 117.3 107.5C116.9 106.6 116 106 115.2 106.3ZM115.7 108.7C115.4 108.8 115 108.6 114.8 108.1C114.6 107.6 114.7 107.2 115 107.1C115.3 107 115.7 107.2 115.9 107.7C116.1 108.2 116 108.6 115.7 108.7Z" fill="#5D85AC"/>
<path d="M107.9 117.6C111.5 116.1 111.8 114.6 112 112.1C108 114.2 107.3 114.9 107.9 117.6Z" fill="#5D85AC"/>
<path d="M119 118.4C115.6 117.1 113.5 116.4 109.6 117.6C112.9 119.5 114.2 119.5 119 118.4Z" fill="#5D85AC"/>
<path d="M70.3 111.2C70 113.5 70.1 114.9 73.2 116.5C74.2 114 73.7 113.3 70.3 111.2Z" fill="#5D85AC"/>
<path d="M71.1 106.5C70.3 106.2 69.3 106.6 69 107.5C68.7 108.3 69.1 109.3 70 109.6C70.8 109.9 71.8 109.5 72.1 108.6C72.4 107.8 71.9 106.8 71.1 106.5ZM71.2 108.4C71 108.8 70.6 108.9 70.2 108.8C69.8 108.6 69.6 108.2 69.7 107.8C69.7 107.8 69.7 107.8 69.7 107.7C69.8 107.3 70.3 107.1 70.7 107.2C70.7 107.2 70.7 107.2 70.8 107.2C71.3 107.5 71.4 108 71.2 108.4Z" fill="#5D85AC"/>
<path d="M75 108.8C75.3 108.9 75.5 109.1 75.5 109.4L76.3 109.1C76.2 108.6 75.8 108.2 75.2 108C74.4 107.7 73.4 108 73.1 108.9C73 109.2 72.9 109.5 73 109.9C73.1 110.5 73.6 111 74.1 111.1C74.6 111.3 75.2 111.2 75.7 110.9L75.2 110.3C75 110.5 74.7 110.5 74.4 110.4C74 110.2 73.9 109.6 74.1 109.2C74.3 108.9 74.7 108.8 75 108.8Z" fill="#5D85AC"/>
<path d="M81.1 86.1H82.6L85.4 81.8V86.1H86.8V79.6H85.3L82.5 83.8V79.6H81.1V86.1Z" fill="#5D85AC"/>
<path d="M77.4 108.8L76.6 111.9L77.4 112.1L77.7 110.9L78.8 111.2L78.5 112.3L79.3 112.6L80.1 109.5L79.3 109.3L79 110.5L77.9 110.2L78.2 109L77.4 108.8Z" fill="#5D85AC"/>
<path d="M78 117.6C78.7 114.8 78 114.1 73.9 112.1C74.1 114.6 74.4 116.1 78 117.6Z" fill="#5D85AC"/>
<path d="M76.3 117.6C72.4 116.4 70.3 117.1 66.9 118.4C71.7 119.5 73 119.5 76.3 117.6Z" fill="#5D85AC"/>
<path d="M47.7 80.8C48.3 80.8 48.8 81 49.2 81.5L50.3 80.6C49.7 79.9 48.7 79.4 47.7 79.4C46.8 79.4 46 79.8 45.3 80.4C44.7 81 44.3 81.9 44.3 82.8C44.3 83.8 44.8 84.8 45.5 85.4C46.9 86.6 49.1 86.4 50.2 84.9L49.2 84C49 84.2 48.8 84.4 48.5 84.5C48.2 84.6 48 84.7 47.7 84.7C46.6 84.7 45.7 83.8 45.7 82.8C45.8 81.7 46.7 80.8 47.7 80.8Z" fill="#5D85AC"/>
<path d="M135.3 118.7V122.7L136.3 122.3V121.6L137.6 121.1L138.1 121.6L139.1 121.2L136.2 118.4L135.3 118.7ZM136.2 119.6L137 120.4L136.2 120.7V119.6Z" fill="#5D85AC"/>
<path d="M51.6 79.6V86H53.1V83.3H53.7L55.9 86H57.7L54.9 82.5L57.6 79.6H55.8L53.6 82H53.1V79.6H51.6Z" fill="#5D85AC"/>
<path d="M64.1 110.9C65.4 113.6 66.1 114.2 69.9 114.8C69.2 112.4 67.3 111.8 64.1 110.9Z" fill="#5D85AC"/>
<path d="M78.8 91V99.6H80.7L84.4 94V99.6H86.3V91H84.4L80.7 96.6V91H78.8Z" fill="#5D85AC"/>
<path d="M85.6 77.7H84.7C84.7 78.1 84.3 78.5 83.9 78.5C83.5 78.5 83.1 78.1 83.1 77.7H82.3C82.3 78.6 83 79.3 83.9 79.3H84C84.8 79.3 85.6 78.6 85.6 77.7Z" fill="#5D85AC"/>
<path d="M73.8 80.4C73.2 81 72.8 81.9 72.8 82.8C72.8 83.7 73.2 84.5 73.8 85.1C75.1 86.4 77.3 86.4 78.6 85.1C79.2 84.5 79.6 83.6 79.6 82.8C79.6 80.9 78.1 79.4 76.3 79.4L76.2 79.5C75.3 79.5 74.5 79.8 73.8 80.4ZM77.6 81.4C78 81.8 78.2 82.3 78.2 82.8C78.2 83.3 78 83.8 77.6 84.2C77.2 84.6 76.7 84.8 76.2 84.8C75.7 84.8 75.2 84.6 74.8 84.2C74 83.4 74 82.2 74.8 81.4C75.2 81 75.7 80.8 76.2 80.8C76.7 80.8 77.2 81 77.6 81.4Z" fill="#5D85AC"/>
<path d="M101.6 79.4C100.7 79.5 99.8 79.8 99.2 80.4C98.6 81 98.2 81.9 98.2 82.8C98.2 83.7 98.6 84.5 99.2 85.1C100.5 86.4 102.7 86.4 104 85.1C104.6 84.5 105 83.6 105 82.8C104.9 80.9 103.4 79.4 101.6 79.4ZM102.9 84.2C102.5 84.6 102 84.8 101.5 84.8C101 84.8 100.5 84.6 100.1 84.2C99.3 83.4 99.3 82.2 100.1 81.4C100.5 81 101 80.8 101.5 80.8C102 80.8 102.5 81 102.9 81.4C103.3 81.8 103.5 82.3 103.5 82.8C103.5 83.3 103.3 83.8 102.9 84.2Z" fill="#5D85AC"/>
<path d="M95.4 114H96.3L96.2 110.8H95.3L95.4 112H94.3L94.2 110.9H93.3L93.5 114H94.3V112.8H95.4V114Z" fill="#5D85AC"/>
<path d="M91.2 86.1H92.7V80.9H95.3V86.1H96.7V79.6H91.2V86.1Z" fill="#5D85AC"/>
<path d="M87.9 95.2C87.9 97.3 89.5 99 92.2 99V100H94.1V99C96.8 99 98.4 97.4 98.4 95.2C98.4 93 96.7 91.5 94.1 91.5V90.7H92.2V91.5C89.6 91.5 87.9 93.1 87.9 95.2ZM94.2 93.2C95.6 93.2 96.6 94 96.6 95.2C96.6 96.4 95.7 97.2 94.2 97.2V93.2ZM92.3 93.2V97.3C90.9 97.3 89.9 96.6 89.9 95.3C89.9 93.9 90.9 93.2 92.3 93.2Z" fill="#5D85AC"/>
<path d="M87.1 110.6L85.5 110.4L85.2 113.5L86.7 113.7C87.4 113.8 87.9 113.5 88 113C88 112.6 87.8 112.3 87.5 112.2C87.8 112.1 88 111.9 88 111.6C88 111.4 88 111.2 87.9 111.1C87.6 110.8 87.4 110.7 87.1 110.6ZM86.2 111.3L86.8 111.4C87.1 111.4 87.2 111.5 87.2 111.7C87.2 111.9 87 112 86.8 111.9L86.3 111.8L86.2 111.3ZM86.7 113L86 112.9L86.1 112.3L86.8 112.4C87.1 112.4 87.2 112.6 87.2 112.7C87.1 113 87 113.1 86.7 113Z" fill="#5D85AC"/>
<path d="M50.3 95.4C50.4 97.8 52.4 99.8 54.9 99.7C55.6 99.7 56.2 99.6 56.8 99.3C57.4 99 57.9 98.6 58.3 98.1L56.8 97C56.6 97.3 56.3 97.5 55.9 97.7C55.5 97.9 55.2 97.9 54.8 97.9C53.4 97.9 52.2 96.7 52.3 95.3C52.3 93.9 53.5 92.7 54.9 92.8C55.3 92.8 55.6 92.9 56 93C56.3 93.2 56.6 93.4 56.9 93.7L58.3 92.5C57.5 91.5 56.2 90.9 54.9 90.9C54.8 90.9 54.7 90.9 54.6 90.9C52.2 90.9 50.2 93 50.3 95.4Z" fill="#5D85AC"/>
<path d="M90.2 110.9L88.8 114H89.7L89.9 113.5H91.1L91.3 114.1H92.2L90.9 111H90.2V110.9ZM90.3 112.8L90.7 111.9L91 112.8H90.3Z" fill="#5D85AC"/>
<path d="M169 99.6H170.9V92.8H175.2V91H169V99.6Z" fill="#5D85AC"/>
<path d="M139.7 59.5C139.2 59.4 138.6 59.7 138.5 60.2V61.9C138.6 62.3 138.9 62.6 139.2 62.6C139.7 62.7 140.3 62.4 140.4 61.9V60.2C140.4 59.9 140.1 59.6 139.7 59.5Z" fill="#5D85AC"/>
<path d="M136.3 57.4C135.8 57.3 135.2 57.6 135.1 58.2V59.9C135.2 60.3 135.5 60.6 135.8 60.6C136.3 60.7 136.9 60.4 137 59.9V58.2C136.9 57.7 136.7 57.4 136.3 57.4Z" fill="#5D85AC"/>
<path d="M113.2 49.8C112.7 49.7 112.2 50 112 50.6V52.3C112.1 52.7 112.4 53 112.8 53.1C113.3 53.2 113.8 52.9 114 52.3V50.6C113.9 50.2 113.6 49.9 113.2 49.8Z" fill="#5D85AC"/>
<path d="M73.1 49.8C72.6 49.7 72 50 71.9 50.6V52.3C72 52.7 72.3 53 72.7 53.1C73.2 53.2 73.8 52.9 73.9 52.3V50.6C73.7 50.2 73.4 49.9 73.1 49.8Z" fill="#5D85AC"/>
<path d="M77.3 49C76.8 48.9 76.3 49.2 76.1 49.8V51.5C76.2 51.9 76.5 52.2 76.9 52.3C77.4 52.4 77.9 52.1 78.1 51.5V49.8C78 49.4 77.7 49 77.3 49Z" fill="#5D85AC"/>
<path d="M109 49C108.5 48.9 107.9 49.2 107.8 49.8V51.5C107.9 51.9 108.2 52.2 108.6 52.3C109.1 52.4 109.7 52.1 109.8 51.5V49.8C109.7 49.3 109.4 49 109 49Z" fill="#5D85AC"/>
<path d="M26.7 62.8H8.99998C8.49998 62.8 8.09998 63.1 7.99998 63.6V66.2C8.09998 66.7 8.49998 67 8.99998 67H26.7C27.2 67 27.6 66.7 27.7 66.2V63.6C27.6 63.1 27.1 62.8 26.7 62.8ZM25.7 65.4H9.99998V64.4H25.7V65.4Z" fill="#5D85AC"/>
<path d="M85.1 58.6V52.8H85C84.5 52.7 84 52.5 83.6 52.3V58.6C83.6 59 84 59.4 84.4 59.4C84.7 59.4 85.1 59 85.1 58.6Z" fill="#5D85AC"/>
<path d="M180.8 90.9C179.6 90.9 178.5 91.3 177.7 92.2C176.6 93.3 176.1 95 176.6 96.5C176.8 97.3 177.2 97.9 177.8 98.5C179.5 100.2 182.3 100.2 184.1 98.5C184.9 97.7 185.4 96.5 185.4 95.4C185.3 92.8 183.3 90.9 180.8 90.9ZM182.6 97.1C181.6 98.1 180 98.1 179 97.1C178 96.1 178 94.5 179 93.5C180 92.5 181.6 92.5 182.6 93.5C183.1 94 183.3 94.6 183.3 95.3C183.4 96 183.1 96.6 182.6 97.1Z" fill="#5D85AC"/>
<path d="M184.2 79.2C184.7 79.2 185.1 78.9 185.2 78.4V68.3C185.2 68.2 185.2 68.2 185.2 68.1H185.1L177.7 60.1C177.5 59.9 177.2 59.8 176.9 59.8H171.3C162.9 52.1 152.1 45.9 138.5 41.7C136.8 41.2 135.1 40.7 133.3 40.2V0H52.6V40.2C50.8 40.7 49.1 41.2 47.4 41.7C33.9 45.9 23.1 52.1 14.6 59.8H8.99998C8.69998 59.8 8.39998 59.9 8.19998 60.1L0.799977 68.4H0.599977C0.599977 68.5 0.599977 68.5 0.599977 68.6V78.7C0.699977 79.2 1.09998 79.5 1.59998 79.5H9.19998C9.69998 79.5 10.1 79.2 10.2 78.7V72.7H11.6V78.7C11.7 79.2 12.1 79.5 12.6 79.5C13.1 79.6 13.5 79.2 13.6 78.7V72.7H15V78.7C15.1 79.2 15.5 79.5 16 79.5C16.5 79.6 16.9 79.2 17 78.7V72.7H18.4V78.7C18.5 79.1 18.8 79.4 19.2 79.5C19.7 79.6 20.3 79.3 20.4 78.7V72.7H21.8V78.7C21.9 79.1 22.2 79.4 22.6 79.5C23.1 79.6 23.7 79.3 23.8 78.7V72.7H25.2V78.7C25.3 79.2 25.7 79.5 26.2 79.5H34C34.4 79.5 34.8 79.3 34.9 78.9C38.4 71.9 45 66.4 53.5 62.5V62.6C53.6 63 53.9 63.3 54.3 63.4C54.8 63.5 55.4 63.2 55.5 62.6V55.7L56.7 55.3V61.4C56.8 61.8 57.1 62.1 57.5 62.2C58 62.3 58.5 62 58.7 61.4V54.7L60 54.2V60.3C60.1 60.7 60.4 61 60.8 61.1C61.3 61.2 61.8 60.8 61.9 60.3V53.6L63.2 53.2V59.2C63.3 59.6 63.6 59.9 64 60C64.5 60.1 65 59.8 65.2 59.2V58.5C70.4 57.1 75.6 56.2 80.9 55.7V56.2C80.9 56.6 81.3 56.9 81.7 56.8C82.1 56.8 82.4 56.6 82.5 56.2V51.9C81.9 51.7 81.3 51.3 80.9 50.7V49.9C81.7 50.5 82.6 51 83.5 51.4C86.5 52.5 89.6 53.1 92.8 53H92.9C96.1 53 99.3 52.4 102.3 51.3C103.1 51 103.9 50.5 104.6 50V50.8C103.9 51.6 102.4 52.3 100.5 52.9C98 53.6 95.4 53.9 92.8 54C90.7 54 88.5 53.8 86.4 53.3V59.9C86.4 60.3 86.8 60.6 87.2 60.5C87.6 60.5 87.9 60.3 88 59.9V58.1C88.2 58.2 88.4 58.2 88.6 58.3V54.9C88.6 54.9 88.6 54.9 88.6 54.8C88.6 54.4 89 54 89.4 54C89.8 54 90.2 54.4 90.2 54.8V60.8C90.3 61.1 90.5 61.3 90.8 61.4C91.2 61.5 91.7 61.3 91.8 60.8V58.7H92.8V56.1C92.8 55.7 93.2 55.3 93.6 55.3C94 55.3 94.4 55.7 94.4 56.1V60.7C94.5 61.1 94.8 61.3 95.2 61.3C95.6 61.3 95.9 61.1 96 60.7V58.4C96.3 58.4 96.5 58.3 96.8 58.2V57C96.9 56.7 97.1 56.5 97.4 56.4C97.8 56.3 98.2 56.5 98.4 57V59.9C98.5 60.3 98.8 60.5 99.2 60.5C99.6 60.5 99.9 60.3 100 59.9V57.4C100.5 57.2 100.9 57 101.4 56.8V58.7C101.4 59.1 101.8 59.5 102.2 59.5C102.6 59.5 103 59.1 103 58.7V55.9L103.6 55.5H103.8V56.2C103.9 56.5 104.1 56.7 104.4 56.8C104.8 56.9 105.2 56.7 105.4 56.2V55.7L106.4 55.8C105.7 57.7 104.4 59.3 102.6 60.2C99.8 61.6 96.8 62.3 93.6 62.3C90.8 62.3 88.1 61.9 85.5 60.9C83.3 60 81.7 58.8 80.9 57.3C80.9 57.3 80.9 57.2 80.8 57.2C80.6 56.8 80 56.6 79.6 56.9C79.1 57.1 78.9 57.5 79.1 57.9C80.1 59.7 82 61.2 84.6 62.3C87.5 63.4 90.5 63.9 93.6 63.9C97.1 63.9 100.5 63.1 103.6 61.5C105.8 60.4 107.5 58.4 108.3 56.1C112.6 56.7 116.8 57.5 121 58.6V59.3C121.1 59.7 121.4 60 121.8 60.1C122.3 60.2 122.8 59.8 122.9 59.3V53.3L124.2 53.7V60.4C124.3 60.8 124.6 61.1 125 61.2C125.5 61.3 126 61 126.2 60.4V54.3L127.5 54.8V61.5C127.6 61.9 127.9 62.2 128.3 62.3C128.8 62.4 129.3 62.1 129.5 61.5V55.4L130.8 55.8V62.7C130.9 63.1 131.2 63.4 131.6 63.5C132.1 63.6 132.7 63.3 132.8 62.7V62.6C141.3 66.5 147.9 72 151.4 79C151.6 79.4 151.9 79.6 152.3 79.6H160.1C160.6 79.6 161 79.3 161.1 78.8V72.8H162.6V78.8C162.7 79.2 163 79.5 163.4 79.6C163.9 79.7 164.5 79.4 164.6 78.8V72.8H166V78.8C166.1 79.2 166.4 79.5 166.8 79.6C167.3 79.7 167.9 79.4 168 78.8V72.8H169.4V78.8C169.5 79.2 169.8 79.5 170.2 79.6C170.7 79.7 171.3 79.4 171.4 78.8V72.8H172.8V78.5C172.9 78.9 173.2 79.2 173.6 79.3C174.1 79.4 174.7 79.1 174.8 78.5V72.5H176.1V78.5C176.2 79 176.6 79.3 177.1 79.3H184.2V79.2ZM128.6 31.2V33.1H127.9V30.8C127.9 30.6 128.1 30.4 128.3 30.4H130.5V31.2H128.6ZM130.4 35H128.6V36.9H127.9V34.6C127.9 34.4 128.1 34.2 128.3 34.2H130.4V35ZM128.6 19.7V21.6H127.9V19.3C127.9 19.1 128.1 18.9 128.3 18.9H130.5V19.7H128.6ZM130.4 22.7V23.5H128.6V25.4H127.9V23.1C127.9 22.9 128.1 22.7 128.3 22.7H130.4ZM128.6 15.8V17.7H127.9V15.4C127.9 15.2 128.1 15 128.3 15H130.5V15.8H128.6ZM127.8 11.6C127.8 11.4 128 11.2 128.2 11.2H130.4V12H128.5V13.9H127.8V11.6ZM127.8 26.9C127.8 26.7 128 26.5 128.2 26.5H130.4V27.3H128.5V29.2H127.8V26.9ZM124.7 31.2V33.1H124V30.8C124 30.6 124.2 30.4 124.4 30.4H126.6V31.2H124.7ZM126.6 35H124.7V36.9H124V34.6C124 34.4 124.2 34.2 124.4 34.2H126.6V35ZM124.7 19.7V21.6H124V19.3C124 19.1 124.2 18.9 124.4 18.9H126.6V19.7H124.7ZM126.6 22.7V23.5H124.7V25.4H124V23.1C124 22.9 124.2 22.7 124.4 22.7H126.6ZM124.7 15.8V17.7H124V15.4C124 15.2 124.2 15 124.4 15H126.6V15.8H124.7ZM124 11.6C124 11.4 124.2 11.2 124.4 11.2H126.6V12H124.7V13.9H123.9V11.6H124ZM124 26.9C124 26.7 124.2 26.5 124.4 26.5H126.6V27.3H124.7V29.2H123.9V26.9H124ZM120.2 34.6C120.2 34.4 120.3 34.2 120.5 34.2H122.8V35H120.9V36.9H120.2V34.6ZM120.2 29.2V26.9C120.2 26.7 120.3 26.5 120.5 26.5H122.8V27.3H120.9V29.2H120.2ZM120.9 31.2V33.1H120.2V30.8C120.2 30.6 120.3 30.4 120.5 30.4H122.8V31.2H120.9ZM120.9 23.5V25.4H120.2V23.1C120.2 22.9 120.3 22.7 120.5 22.7H122.8V23.5H120.9ZM120.2 13.9V11.6C120.2 11.4 120.3 11.2 120.5 11.2H122.8V12H120.9V13.9H120.2ZM120.9 19.7V21.6H120.2V19.3C120.2 19.1 120.3 18.9 120.5 18.9H122.8V19.7H120.9ZM120.9 15.8V17.7H120.2V15.4C120.2 15.2 120.3 15 120.5 15H122.8V15.8H120.9ZM117.7 5.4C117.8 4.4 118.8 3.6 119.8 3.7V3.3H120.7V3.7C121.4 3.6 122.1 4 122.5 4.6C122.7 5 122.8 5.4 122.8 5.8C122.7 6.8 121.7 7.6 120.7 7.5V8H119.8V7.5C119.7 7.5 119.7 7.5 119.6 7.5C118.5 7.5 117.7 6.6 117.7 5.6C117.7 5.5 117.7 5.4 117.7 5.4ZM116.7 18.9H118.9V19.7H117V21.6H116.3V19.3C116.4 19 116.5 18.9 116.7 18.9ZM116.4 17.7V15.4C116.4 15.2 116.6 15 116.8 15H119V15.8H117.1V17.7H116.4ZM116.7 22.7H118.9V23.5H117V25.4H116.3V23.1C116.4 22.9 116.5 22.7 116.7 22.7ZM116.7 34.2H119V35H117.1V36.9H116.4V34.7C116.4 34.4 116.5 34.2 116.7 34.2ZM116.4 33.1V30.8C116.4 30.6 116.6 30.4 116.8 30.4H119V31.2H117.1V33.1H116.4ZM116.3 11.6C116.3 11.4 116.5 11.2 116.7 11.2H118.9V12H117V13.9H116.3V11.6ZM116.3 26.9C116.3 26.7 116.5 26.5 116.7 26.5H118.9V27.3H117V29.2H116.3V26.9ZM112.9 22.7H115.1V23.5H113.2V25.4H112.5V23.1C112.6 22.9 112.7 22.7 112.9 22.7ZM112.6 21.5V19.2C112.6 19 112.8 18.8 113 18.8H115.2V19.6H113.3V21.5H112.6ZM112.6 34.6C112.6 34.4 112.8 34.2 113 34.2H115.2V35H113.3V36.5L112.6 36.4V34.6ZM112.6 33.1V30.8C112.6 30.6 112.8 30.4 113 30.4H115.2V31.2H113.3V33.1H112.6ZM115.2 15.8H113.3V17.7H112.6V15.4C112.6 15.2 112.8 15 113 15H115.2V15.8ZM112.5 11.6C112.5 11.4 112.7 11.2 112.9 11.2H115.1V12H113.2V13.9H112.5V11.6ZM112.5 26.9C112.5 26.7 112.7 26.5 112.9 26.5H115.1V27.3H113.2V29.2H112.5V26.9ZM109.1 22.7H111.3V23.5H109.4V25.4H108.7V23.1C108.7 22.9 108.9 22.7 109.1 22.7ZM108.7 21.5V19.2C108.7 19 108.9 18.8 109.1 18.8H111.3V19.6H109.4V21.5H108.7ZM108.8 34.6C108.8 34.4 109 34.2 109.2 34.2H111.5V35H109.6V36.1L108.9 36V34.6H108.8ZM108.7 33.1V30.8C108.7 30.6 108.9 30.4 109.1 30.4H111.3V31.2H109.4V33.1H108.7ZM111.3 15.8H109.4V17.7H108.7V15.4C108.7 15.2 108.9 15 109.1 15H111.3V15.8ZM108.7 11.6C108.7 11.4 108.9 11.2 109.1 11.2H111.3V12H109.4V13.9H108.7V11.6ZM108.7 26.9C108.7 26.7 108.9 26.5 109.1 26.5H111.3V27.3H109.4V29.2H108.7V26.9ZM104.1 3.5H105V6.3L106.9 3.5H107.8V7.7H106.9V4.9L105 7.7H104.1V3.5ZM105.7 19.7V21.6H105V19.3C105 19.1 105.2 18.9 105.4 18.9H107.6V19.7H105.7ZM107.5 22.7V23.5H105.6V25.4H104.9V23.1C104.9 22.9 105.1 22.7 105.3 22.7H107.5ZM105.7 15.8V17.7H105V15.4C105 15.2 105.2 15 105.4 15H107.6V15.8H105.7ZM107.5 12H105.6V13.9H104.9V11.6C104.9 11.4 105.1 11.2 105.3 11.2H107.5V12ZM105.3 26.6H107.5V27.4H105.6V29.3H104.9V27C104.9 26.7 105 26.6 105.3 26.6ZM104.9 31.2V30.8C104.9 30.6 105.1 30.4 105.3 30.4H107.5V31.2H105.6V31.9C105.5 31.7 105.3 31.6 105.1 31.4C105.1 31.3 105 31.2 104.9 31.2ZM104.9 35.4L105.1 35.3C105.5 35.1 105.7 34.7 105.9 34.3H107.6V35.1H105.7V35.9H105V35.4H104.9ZM101.5 22.7H103.8V23.5H101.9V25.4H101.2V23.1C101.1 22.9 101.3 22.7 101.5 22.7ZM101.1 21.5V19.2C101.1 19 101.3 18.8 101.5 18.8H103.8V19.6H101.9V21.5H101.1ZM101.1 26.8C101.1 26.6 101.3 26.5 101.5 26.5H103.8V27.3H101.9V27.5C101.6 27.3 101.4 27.1 101.1 26.8ZM101.8 15.8V17.7H101.1V15.4C101.1 15.2 101.3 15 101.5 15H103.8V15.8H101.8ZM101.1 11.6C101.1 11.4 101.3 11.2 101.5 11.2H103.8V12H101.9V13.9H101.2V11.6H101.1ZM97.3 23.1C97.3 22.9 97.5 22.7 97.7 22.7H99.9V23.4H98V25L97.3 24.7V23.1ZM97.3 21.5V19.2C97.3 19 97.5 18.8 97.7 18.8H99.9V19.6H98V21.5H97.3ZM99.9 15.8H98V17.7H97.2V15.4C97.2 15.2 97.4 15 97.6 15H99.8V15.8H99.9ZM97.2 11.6C97.2 11.4 97.4 11.2 97.6 11.2H99.8V12H98V13.9H97.2V11.6ZM90 7H90.1C90.6 7 90.9 6.7 90.9 4.4V3.5H94V7.8H93.1V4.3H91.9V4.7C91.9 7.2 91.5 7.8 90.5 7.8C90.3 7.8 90.2 7.8 90 7.7V7ZM96.1 11.2V12H94.2V12.7H93.5V11.7C93.5 11.5 93.7 11.3 93.9 11.3H96.1V11.2ZM89.6 11.6C89.6 11.4 89.8 11.2 90 11.2H92.2V12H90.3V13.9H89.6V11.6ZM85.8 11.6C85.8 11.4 85.9 11.2 86.1 11.2H88.4V12H86.6V13.9H85.9V11.6H85.8ZM85.8 15.4C85.8 15.2 85.9 15 86.1 15H88.4V15.8H86.6V17.7H85.9V15.4H85.8ZM85.8 19.3C85.8 19.1 85.9 18.9 86.1 18.9H88.4V19.7H86.6V21.6H85.9V19.3H85.8ZM85.8 23.1C85.8 22.9 85.9 22.7 86.1 22.7H88.4V23.5H86.6V25.4H85.9V23.1H85.8ZM82 11.6C82 11.4 82.2 11.2 82.4 11.2H84.6V12H82.7V13.9H82V11.6ZM84.6 15V15.8H82.7V17.7H82V15.4C82 15.2 82.2 15 82.4 15H84.6ZM82 19.3C82 19.1 82.2 18.9 82.4 18.9H84.6V19.7H82.7V21.6H82V19.3ZM82 25.4V23.1C82 22.9 82.1 22.8 82.3 22.8H84.6V23.6H82.7V25.5L82 25.4ZM81.9 26.9C81.9 26.7 82.1 26.5 82.3 26.5H84.6V26.6C84.4 26.8 84.1 27 83.9 27.3H82.8V28.8L82.5 29.3H82V26.9H81.9ZM81.7 32.9C81.7 32.8 81.8 32.7 81.9 32.6C82 32.5 82.2 32.4 82.4 32.5C82.9 32.6 83.3 32.3 83.5 31.8C84.1 30 85.3 28.5 86.9 27.5C88.1 26.8 89.4 26.4 90.8 26.2V23.1C90.1 22.8 90.2 21.8 91.2 21.9H92.1C92.2 21.9 92.8 21.6 92.5 21.2C92.1 21 91.8 20.8 91.7 20.4C91.4 19.6 91.8 18.8 92.5 18.4V16.3H90.9V15.3H92.5V13.5H93.5V15.3H95.1V16.3H93.5V18.4C93.9 18.5 94.3 18.8 94.4 19.3C94.7 20.1 94.4 21 93.6 21.3C93.4 21.6 93.8 21.9 94 21.9H94.8C95.8 21.8 95.8 22.6 95.1 23V26.2C96.5 26.4 97.8 26.9 99 27.7C100.7 28.8 101.9 30.4 102.5 32.3C102.7 32.8 103.2 33 103.7 32.9C103.9 32.8 104 32.9 104.2 33C104.3 33 104.3 33.1 104.3 33.2C104.3 33.3 104.3 33.4 104.3 33.5C104.3 33.6 104.2 33.7 104.1 33.8L104 33.9C101.2 36 97.1 37 92.9 37C88.7 37 84.6 35.9 81.9 33.8L81.8 33.7C81.7 33.6 81.6 33.5 81.6 33.4C81.6 33.1 81.6 33 81.7 32.9ZM92.9 40C89.4 40 86 39.4 84.1 38.3C83.7 38.1 83.4 37.8 83.2 37.5V36.7C83.9 37 84.6 37.3 85.3 37.5C87.7 38.3 90.3 38.7 92.8 38.7C95.3 38.7 97.7 38.4 100.1 37.6C101 37.4 101.9 37 102.7 36.6V37.4C102.4 37.8 102.1 38.1 101.7 38.3C99.8 39.6 96.4 40.1 92.9 40ZM92.9 45.1L99 46.6H86.9L92.9 45.1ZM80.5 31.2H78.9V33.1H78.2V30.8C78.2 30.6 78.4 30.4 78.6 30.4H80.9V30.9C80.7 31 80.6 31.1 80.5 31.2ZM80.5 35H78.9V35.9L78.2 36V34.6C78.2 34.4 78.4 34.2 78.6 34.2H80C80 34.5 80.3 34.8 80.5 35ZM78.5 18.9H80.7V19.7H78.9V21.6H78.2V19.3C78.2 19 78.3 18.9 78.5 18.9ZM78.2 17.7V15.4C78.2 15.2 78.4 15 78.6 15H80.8V15.8H79V17.7H78.2ZM78.5 22.7H80.7V23.5H78.9V25.4H78.2V23.1C78.2 22.9 78.3 22.7 78.5 22.7ZM78.5 26.6H80.7V27.4H78.9V29.3H78.2V27C78.2 26.7 78.3 26.6 78.5 26.6ZM78.9 12V13.9H78.2V11.6C78.2 11.4 78.4 11.2 78.6 11.2H80.8V12H78.9ZM76.8 3.5H77.8V5.4L79.5 3.5H80.6L78.9 5.3L80.7 7.8H79.6L78.3 6L77.8 6.5V7.8H76.9V3.5H76.8ZM74.4 11.6C74.4 11.4 74.6 11.2 74.8 11.2H77V12H75.1V13.9H74.4V11.6ZM74.4 15.4C74.4 15.2 74.6 15 74.8 15H77V15.8H75.1V17.7H74.4V15.4ZM74.4 19.3C74.4 19.1 74.6 18.9 74.8 18.9H77V19.7H75.1V21.6H74.4V19.3ZM74.4 23.1C74.4 22.9 74.6 22.7 74.8 22.7H77V23.5H75.1V25.4H74.4V23.1ZM74.4 26.9C74.4 26.7 74.6 26.5 74.8 26.5H77V27.3H75.1V29.2H74.4V26.9ZM74.4 30.8C74.4 30.6 74.6 30.4 74.8 30.4H77V31.2H75.1V33.1H74.4V30.8ZM74.3 34.6C74.3 34.4 74.5 34.2 74.7 34.2H77V35H75.1V36.2L74.4 36.3V34.6H74.3ZM70.5 11.6C70.5 11.4 70.7 11.2 70.9 11.2H73.1V12H71.2V13.9H70.5V11.6ZM70.5 15.4C70.5 15.2 70.7 15 70.9 15H73.1V15.8H71.2V17.7H70.5V15.4ZM70.5 19.3C70.5 19.1 70.7 18.9 70.9 18.9H73.1V19.7H71.2V21.6H70.5V19.3ZM70.5 23.1C70.5 22.9 70.7 22.7 70.9 22.7H73.1V23.5H71.2V25.4H70.5V23.1ZM70.5 26.9C70.5 26.7 70.7 26.5 70.9 26.5H73.1V27.3H71.2V29.2H70.5V26.9ZM73.1 30.4V31.2H71.2V33.1H70.5V30.8C70.5 30.6 70.7 30.4 70.9 30.4H73.1ZM70.5 34.6C70.5 34.4 70.7 34.2 70.9 34.2H73.2V35H71.3V36.6L70.6 36.7V34.6H70.5ZM69.3 11.2V12H67.4V13.9H66.7V11.6C66.7 11.4 66.9 11.2 67.1 11.2H69.3ZM67.4 31.2V33.1H66.7V30.8C66.7 30.6 66.9 30.4 67.1 30.4H69.4V31.2H67.4ZM69.3 35H67.4V36.9H66.7V34.6C66.7 34.4 66.9 34.2 67.1 34.2H69.3V35ZM67.4 27.4V29.3H66.7V27C66.7 26.8 66.9 26.6 67.1 26.6H69.4V27.4H67.4ZM67.4 23.5V25.4H66.7V23.1C66.7 22.9 66.9 22.7 67.1 22.7H69.4V23.5H67.4ZM67.4 19.7V21.6H66.7V19.3C66.7 19.1 66.9 18.9 67.1 18.9H69.4V19.7H67.4ZM67.4 15.8V17.7H66.7V15.4C66.7 15.2 66.9 15 67.1 15H69.4V15.8H67.4ZM63.7 3.9C64.6 3.1 66.1 3.1 66.9 4L66.3 4.7C66 4.4 65.6 4.2 65.2 4.2C64.5 4.2 64 4.8 64 5.6C64 5.6 64 5.6 64 5.7C64 6.4 64.5 7 65.3 7C65.7 7 66.1 6.8 66.4 6.5L67 7.1C66.6 7.6 65.9 7.9 65.2 7.9C65.1 7.9 65.1 7.9 65 7.9C63.8 7.8 62.9 6.8 62.9 5.6C63 5 63.3 4.4 63.7 3.9ZM62.9 11.6C62.9 11.4 63.1 11.2 63.3 11.2H65.5V12H63.6V13.9H62.9V11.6ZM62.9 15.4C62.9 15.2 63.1 15 63.3 15H65.5V15.8H63.6V17.7H62.9V15.4ZM62.9 19.3C62.9 19.1 63.1 18.9 63.3 18.9H65.5V19.7H63.6V21.6H62.9V19.3ZM62.9 23.1C62.9 22.9 63.1 22.7 63.3 22.7H65.5V23.5H63.6V25.4H62.9V23.1ZM62.9 26.9C62.9 26.7 63.1 26.5 63.3 26.5H65.5V27.3H63.6V29.2H62.9V26.9ZM62.9 30.8C62.9 30.6 63.1 30.4 63.3 30.4H65.5V31.2H63.6V33.1H62.9V30.8ZM62.9 34.6C62.9 34.4 63.1 34.2 63.3 34.2H65.5V35H63.6V36.9H62.9V34.6ZM59.1 11.6C59.1 11.4 59.3 11.2 59.5 11.2H61.7V12H59.8V13.9H59.1V11.6ZM59.1 15.4C59.1 15.2 59.3 15 59.5 15H61.7V15.8H59.8V17.7H59.1V15.4ZM59.1 21.5V19.2C59.1 19 59.3 18.8 59.5 18.8H61.7V19.6H59.8V21.5H59.1ZM59.1 25.4V23.1C59.1 22.9 59.3 22.7 59.5 22.7H61.7V23.5H59.8V25.4H59.1ZM59.1 29.2V26.9C59.1 26.7 59.3 26.5 59.5 26.5H61.7V27.3H59.8V29.2H59.1ZM59.1 30.8C59.1 30.6 59.3 30.4 59.5 30.4H61.7V31.2H59.8V33.1H59.1V30.8ZM59.1 36.9V34.6C59.1 34.4 59.3 34.2 59.5 34.2H61.7V35H59.8V36.9H59.1ZM55.3 11.6C55.3 11.4 55.5 11.2 55.7 11.2H57.9V12H56V13.9H55.3V11.6ZM55.3 15.4C55.3 15.2 55.5 15 55.7 15H57.9V15.8H56V17.7H55.3V15.4ZM55.3 19.3C55.3 19.1 55.5 18.9 55.7 18.9H57.9V19.7H56V21.6H55.3V19.3ZM55.3 23.1C55.3 22.9 55.5 22.8 55.6 22.8H57.8V23.6H55.9V25.5L55.2 25.4V23.1H55.3ZM55.3 26.9C55.3 26.7 55.5 26.5 55.7 26.5H57.9V27.3H56V29.2H55.3V26.9ZM57.9 30.4V31.2H56V33.1H55.3V30.8C55.3 30.6 55.5 30.4 55.7 30.4H57.9ZM55.3 34.6C55.3 34.4 55.5 34.2 55.7 34.2H57.9V35H56V36.9H55.3V34.6ZM33.1 78H27.2V72C27.1 71.5 26.7 71.2 26.2 71.2H9.19998C8.69998 71.2 8.29998 71.5 8.19998 72C8.19998 72 8.19998 72 8.19998 72.1V78H2.49998V69.4H33.1V78ZM53.6 60.8C45.6 64.4 39.1 69.1 35 75.3V68.8C38 63.2 43.2 58.5 50.1 54.8L53.1 56.2C53.3 56.3 53.5 56.3 53.7 56.3V60.8H53.6ZM53.4 54.7L51.3 53.6L53.9 49.5L57.9 50.8L53.4 54.7ZM62 52H61.9L57.4 53.5L59.9 51.4L61.9 51.9L62 52ZM81 52.9V54C75.7 54.5 70.4 55.5 65.3 56.8V52.4C65.4 52.3 65.6 52.2 65.6 52C65.6 52 65.6 52 65.6 51.9C65.7 51.5 65.4 51.1 65 51L61.4 50C64.7 48.9 68.1 48.1 71.5 47.4L71.8 47.3C74.2 46.8 76.8 46.4 79.3 46.1C79.2 46.2 79.1 46.4 79.1 46.5V46.9C79.1 47 79.1 47.1 79.1 47.2V50.6C79.1 50.7 79.1 50.8 79.2 50.9C79.6 51.9 80.3 52.5 81 52.9ZM80.5 44.6C76.9 45 73.3 45.6 69.7 46.3C66 47.1 62.3 48.1 58.7 49.3L53.8 47.7C53.4 47.5 52.9 47.7 52.6 48.1L49.3 53.3C42 57.1 36.4 62.1 33.4 67.8H3.39998L9.39998 61.3H15C15.3 61.3 15.5 61.2 15.7 61C24 53.4 34.6 47.2 48.1 43.1C58.9 39.9 70 37.9 81.2 37.3V37.7C81.2 37.8 81.2 37.9 81.3 38V38.1C69.4 39.1 58.2 41.3 48.7 44.7C39.2 48.1 31.2 52.7 25.3 58.7L24.5 59.5C24.5 59.5 24.5 59.6 24.4 59.6C24.2 59.9 24.3 60.4 24.7 60.5C25.1 60.8 25.7 60.7 26.1 60.4L26.9 59.6C32.6 54 40.4 49.5 49.6 46.2C59.4 42.7 70.7 40.5 82.9 39.6C84.8 40.6 86.9 41.1 89 41.3L80.5 44.6ZM81.4 46L92 42V43.6L81.4 46.1V46ZM101.6 50C98.8 51 95.9 51.5 93 51.5C90.1 51.5 87.3 51 84.6 50C83.5 49.6 82.6 49 81.8 48.1H85.8C87.9 49.5 90.2 49.9 92.9 49.9C96 49.9 98.5 49.5 100.2 48.1H104.3C103.5 48.9 102.6 49.6 101.6 50ZM93.9 43.6V42L104.4 45.9V46.1L93.9 43.6ZM120.9 51.1C120.4 51.2 120.2 51.7 120.3 52.1C120.4 52.3 120.5 52.4 120.6 52.5V56.9C115.4 55.6 110.2 54.7 104.9 54.1V52.9C105.5 52.5 106.1 52 106.6 51.4C106.7 51.3 106.7 51.2 106.7 51V47.5C106.7 47.4 106.7 47.3 106.7 47.2V46.9C106.7 46.7 106.6 46.6 106.5 46.5V46.4C109 46.7 111.5 47.1 114 47.6L114.3 47.7C117.7 48.4 121.1 49.2 124.4 50.3L120.9 51.1ZM123.9 51.9L126 51.3L128.5 53.4L123.9 51.9ZM127.9 50.8L131.9 49.5L134.5 53.6L132.4 54.6L127.9 50.8ZM150.8 75.3C146.7 69.2 140.2 64.4 132.2 60.8V56.4C132.4 56.4 132.6 56.4 132.8 56.3L135.8 54.9C142.6 58.6 147.9 63.3 150.9 68.9V75.3H150.8ZM136.6 53.3L133.3 48.1C133 47.7 132.5 47.6 132.1 47.7L127.2 49.3C123.6 48.1 119.9 47 116.2 46.3C112.6 45.6 109.1 45 105.5 44.6L96.9 41.4C99 41.2 101 40.7 102.9 39.7L103 39.6C115.2 40.5 126.6 42.7 136.3 46.2C145.5 49.6 153.3 54 159 59.8L159.8 60.6C160.2 60.9 160.7 61 161.1 60.7C161.2 60.7 161.2 60.6 161.3 60.6C161.6 60.3 161.6 59.9 161.3 59.6L160.5 58.8C154.6 52.9 146.7 48.2 137.1 44.7C127.5 41.2 116.5 39.1 104.6 38.1C104.7 38 104.7 37.8 104.7 37.7V37.3H104.6C115.8 37.9 126.9 39.8 137.7 43.1C151.1 47.3 161.7 53.5 170 61.1C170.2 61.3 170.5 61.4 170.7 61.4H176.3L182.3 67.9H152.4C149.5 62 143.9 57.1 136.6 53.3ZM159.6 71.2C159.1 71.2 158.7 71.5 158.6 72V78H152.7V69.4H183.2V78H177.6V72C177.5 71.5 177.1 71.2 176.6 71.2H159.6Z" fill="#5D85AC"/>
<path d="M176.9 62.8H159.2C158.7 62.8 158.3 63.1 158.2 63.6V66.2C158.3 66.7 158.7 67 159.2 67H176.9C177.4 67.1 177.8 66.7 177.9 66.2V63.6C177.8 63.1 177.4 62.7 176.9 62.8ZM175.9 65.4H160.2V64.4H175.9V65.4Z" fill="#5D85AC"/>
<path d="M145.8 64.5C145.3 64.4 144.8 64.8 144.7 65.3V66.4C144.8 66.8 145.1 67.1 145.5 67.2C146 67.3 146.5 66.9 146.6 66.4V65.3C146.5 64.9 146.2 64.6 145.8 64.5Z" fill="#5D85AC"/>
<path d="M142.9 61.9C142.4 61.8 141.9 62.1 141.7 62.7V64.2C141.8 64.6 142.1 64.9 142.5 65C143 65.1 143.5 64.8 143.7 64.2V62.7C143.6 62.3 143.3 62 142.9 61.9Z" fill="#5D85AC"/>
<path d="M147.9 69.9C148.4 70 149 69.7 149.1 69.1V68C149 67.6 148.7 67.3 148.3 67.2C147.8 67.1 147.2 67.4 147.1 68V69.1C147.2 69.6 147.5 69.9 147.9 69.9Z" fill="#5D85AC"/>
<path d="M37.9 67.4C37.4 67.3 36.8 67.6 36.7 68.1V69.2C36.8 69.6 37.1 69.9 37.4 69.9C37.9 70 38.5 69.7 38.6 69.2V68.1C38.6 67.7 38.3 67.5 37.9 67.4Z" fill="#5D85AC"/>
<path d="M50 57.4C49.5 57.3 48.9 57.6 48.8 58.2V59.9C48.9 60.3 49.2 60.6 49.6 60.7C50.1 60.8 50.7 60.5 50.8 59.9V58.2C50.7 57.7 50.4 57.4 50 57.4Z" fill="#5D85AC"/>
<path d="M46.6 59.5C46.1 59.4 45.5 59.7 45.4 60.3V62C45.5 62.4 45.8 62.7 46.2 62.8C46.7 62.9 47.3 62.6 47.4 62V60.3C47.2 59.9 46.9 59.6 46.6 59.5Z" fill="#5D85AC"/>
<path d="M40.4 64.5C39.9 64.4 39.4 64.7 39.2 65.3V66.4C39.3 66.8 39.6 67.1 40 67.2C40.5 67.3 41 67 41.2 66.4V65.3C41.1 64.9 40.8 64.6 40.4 64.5Z" fill="#5D85AC"/>
<path d="M68.7 50.7C68.2 50.6 67.7 50.9 67.5 51.5V53.2C67.6 53.6 67.9 53.9 68.3 54C68.8 54.1 69.3 53.8 69.5 53.2V51.5C69.3 51.1 69 50.8 68.7 50.7Z" fill="#5D85AC"/>
<path d="M43.4 61.9C42.9 61.8 42.4 62.1 42.2 62.7V64.2C42.3 64.6 42.6 64.9 43 65C43.5 65.1 44 64.8 44.2 64.2V62.7C44.1 62.3 43.8 61.9 43.4 61.9Z" fill="#5D85AC"/>
<path d="M117.6 50.7C117.1 50.6 116.5 50.9 116.4 51.5V53.2C116.5 53.6 116.8 53.9 117.2 54C117.7 54.1 118.3 53.8 118.4 53.2V51.5C118.3 51.1 118 50.8 117.6 50.7Z" fill="#5D85AC"/>
<path d="M119.8 6.7V4.6C119.7 4.6 119.6 4.6 119.5 4.6C118.9 4.7 118.5 5.2 118.6 5.8C118.7 6.3 119.2 6.7 119.8 6.7Z" fill="#5D85AC"/>
<path d="M121.9 5.5C121.8 4.9 121.3 4.5 120.7 4.6V6.7C120.8 6.7 120.9 6.7 121 6.7C121.6 6.6 122 6.1 121.9 5.5Z" fill="#5D85AC"/>
<path d="M94.4 28.5C95.7 28.9 96.9 29.6 98 30.5C99 31.3 99.7 32.3 100.3 33.4C100.5 33.8 100.9 33.9 101.3 33.8C101.7 33.6 101.8 33.2 101.7 32.8C101.1 31.5 100.2 30.3 99 29.4C97.8 28.4 96.4 27.6 94.9 27.1C94.5 27 94.1 27.2 93.9 27.6C93.8 27.9 94 28.3 94.4 28.5Z" fill="#5D85AC"/>
</svg>
