<svg width="270" height="515" viewBox="0 0 270 515" fill="none" xmlns="http://www.w3.org/2000/svg">
<g filter="url(#filter0_i_2297_5766)">
<rect width="270" height="48" transform="translate(0 323)" fill="white" fill-opacity="0.01"/>
<g opacity="0.72">
<path d="M7 346.672L10.6638 350.336L17 344M21 347C21 351.971 16.9706 356 12 356C7.02944 356 3 351.971 3 347C3 342.029 7.02944 338 12 338C16.9706 338 21 342.029 21 347Z" stroke="#5D85AC" stroke-width="2" stroke-linejoin="round"/>
</g>
<path d="M33.5781 344.684H28.4688V345.527H30.5195V351H31.5273V345.527H33.5781V344.684ZM37.3398 345.463C38.3418 345.463 39.0098 346.201 39.0332 347.32H35.5527C35.6289 346.201 36.332 345.463 37.3398 345.463ZM39.0039 349.365C38.7402 349.922 38.1895 350.221 37.375 350.221C36.3027 350.221 35.6055 349.43 35.5527 348.182V348.135H40.0938V347.748C40.0938 345.785 39.0566 344.572 37.3516 344.572C35.6172 344.572 34.5039 345.861 34.5039 347.848C34.5039 349.846 35.5996 351.111 37.3516 351.111C38.7344 351.111 39.707 350.449 40.0117 349.365H39.0039ZM42.7949 351V346.506H42.9062L44.9043 350.824H45.6895L47.6875 346.506H47.7988V351H48.8125V344.684H47.6348L45.3672 349.582H45.2734L43.0117 344.684H41.7871V351H42.7949ZM54.9238 351H55.9316V344.684H50.8223V351H51.8301V345.527H54.9238V351ZM60.4609 345.463C61.4629 345.463 62.1309 346.201 62.1543 347.32H58.6738C58.75 346.201 59.4531 345.463 60.4609 345.463ZM62.125 349.365C61.8613 349.922 61.3105 350.221 60.4961 350.221C59.4238 350.221 58.7266 349.43 58.6738 348.182V348.135H63.2148V347.748C63.2148 345.785 62.1777 344.572 60.4727 344.572C58.7383 344.572 57.625 345.861 57.625 347.848C57.625 349.846 58.7207 351.111 60.4727 351.111C61.8555 351.111 62.8281 350.449 63.1328 349.365H62.125ZM67.9844 344.572C67.123 344.572 66.3672 345.012 65.9629 345.738H65.8691V344.684H64.9082V353.109H65.916V350.051H66.0098C66.3555 350.719 67.082 351.111 67.9844 351.111C69.5898 351.111 70.6387 349.816 70.6387 347.842C70.6387 345.855 69.5957 344.572 67.9844 344.572ZM67.7441 350.203C66.6074 350.203 65.8867 349.289 65.8867 347.842C65.8867 346.389 66.6074 345.48 67.75 345.48C68.9043 345.48 69.5957 346.365 69.5957 347.842C69.5957 349.318 68.9043 350.203 67.7441 350.203ZM74.2891 350.227C73.5566 350.227 73.0117 349.852 73.0117 349.207C73.0117 348.574 73.4336 348.24 74.3945 348.176L76.0938 348.064V348.645C76.0938 349.547 75.3262 350.227 74.2891 350.227ZM74.1016 351.111C74.9453 351.111 75.6367 350.742 76.0469 350.068H76.1406V351H77.1016V346.676C77.1016 345.363 76.2402 344.572 74.6992 344.572C73.3516 344.572 72.3555 345.24 72.2207 346.254H73.2402C73.3809 345.756 73.9082 345.469 74.6641 345.469C75.6074 345.469 76.0938 345.896 76.0938 346.676V347.25L74.2715 347.361C72.8008 347.449 71.9688 348.1 71.9688 349.23C71.9688 350.385 72.877 351.111 74.1016 351.111ZM83.6523 344.684H78.543V345.527H80.5938V351H81.6016V345.527H83.6523V344.684ZM85.668 353.285C86.7871 353.285 87.291 352.852 87.8301 351.387L90.2969 344.684H89.2246L87.4961 349.881H87.4023L85.668 344.684H84.5781L86.916 351.006L86.7988 351.381C86.5352 352.143 86.2188 352.418 85.6387 352.418C85.498 352.418 85.3398 352.412 85.2168 352.389V353.25C85.3574 353.273 85.5332 353.285 85.668 353.285ZM94.832 344.572C93.9707 344.572 93.2148 345.012 92.8105 345.738H92.7168V344.684H91.7559V353.109H92.7637V350.051H92.8574C93.2031 350.719 93.9297 351.111 94.832 351.111C96.4375 351.111 97.4863 349.816 97.4863 347.842C97.4863 345.855 96.4434 344.572 94.832 344.572ZM94.5918 350.203C93.4551 350.203 92.7344 349.289 92.7344 347.842C92.7344 346.389 93.4551 345.48 94.5977 345.48C95.752 345.48 96.4434 346.365 96.4434 347.842C96.4434 349.318 95.752 350.203 94.5918 350.203ZM101.137 350.227C100.404 350.227 99.8594 349.852 99.8594 349.207C99.8594 348.574 100.281 348.24 101.242 348.176L102.941 348.064V348.645C102.941 349.547 102.174 350.227 101.137 350.227ZM100.949 351.111C101.793 351.111 102.484 350.742 102.895 350.068H102.988V351H103.949V346.676C103.949 345.363 103.088 344.572 101.547 344.572C100.199 344.572 99.2031 345.24 99.0684 346.254H100.088C100.229 345.756 100.756 345.469 101.512 345.469C102.455 345.469 102.941 345.896 102.941 346.676V347.25L101.119 347.361C99.6484 347.449 98.8164 348.1 98.8164 349.23C98.8164 350.385 99.7246 351.111 100.949 351.111Z" fill="#5D85AC"/>
<path d="M214.891 348H216.305C217.695 348 218.547 348.68 218.547 349.781C218.547 350.844 217.641 351.586 216.352 351.586C215.055 351.586 214.164 350.922 214.078 349.875H212.148C212.25 351.938 213.906 353.281 216.336 353.281C218.789 353.281 220.602 351.844 220.602 349.906C220.602 348.406 219.648 347.359 218.109 347.18V347.047C219.359 346.781 220.148 345.773 220.148 344.453C220.148 342.727 218.516 341.445 216.328 341.445C213.984 341.445 212.469 342.734 212.367 344.805H214.25C214.328 343.742 215.102 343.086 216.266 343.086C217.445 343.086 218.203 343.734 218.203 344.734C218.203 345.742 217.414 346.438 216.266 346.438H214.891V348ZM227.039 353.273C229.492 353.273 231.227 351.633 231.227 349.312C231.227 347.148 229.656 345.562 227.516 345.562C226.188 345.562 225.125 346.18 224.594 347.25H224.461C224.461 344.672 225.438 343.133 227.086 343.133C228.055 343.133 228.805 343.664 229.055 344.516H231.07C230.734 342.664 229.156 341.445 227.102 341.445C224.227 341.445 222.531 343.695 222.531 347.484C222.531 348.922 222.805 350.125 223.328 351.047C224.078 352.492 225.383 353.273 227.039 353.273ZM227.016 351.594C225.758 351.594 224.797 350.625 224.797 349.344C224.797 348.086 225.742 347.164 227.031 347.164C228.32 347.164 229.25 348.086 229.25 349.375C229.25 350.633 228.281 351.594 227.016 351.594ZM234.062 355.984L235.414 351.266H233.453L232.727 355.984H234.062ZM241.68 353.273C244.133 353.273 245.867 351.633 245.867 349.312C245.867 347.148 244.297 345.562 242.156 345.562C240.828 345.562 239.766 346.18 239.234 347.25H239.102C239.102 344.672 240.078 343.133 241.727 343.133C242.695 343.133 243.445 343.664 243.695 344.516H245.711C245.375 342.664 243.797 341.445 241.742 341.445C238.867 341.445 237.172 343.695 237.172 347.484C237.172 348.922 237.445 350.125 237.969 351.047C238.719 352.492 240.023 353.273 241.68 353.273ZM241.656 351.594C240.398 351.594 239.438 350.625 239.438 349.344C239.438 348.086 240.383 347.164 241.672 347.164C242.961 347.164 243.891 348.086 243.891 349.375C243.891 350.633 242.922 351.594 241.656 351.594ZM254.695 347C256.258 347 257.414 345.805 257.414 344.289C257.414 342.773 256.258 341.578 254.695 341.578C253.141 341.578 251.984 342.773 251.984 344.289C251.984 345.805 253.141 347 254.695 347ZM254.695 345.758C253.812 345.758 253.234 345.109 253.234 344.289C253.234 343.461 253.812 342.82 254.695 342.82C255.586 342.82 256.172 343.461 256.172 344.289C256.172 345.109 255.586 345.758 254.695 345.758ZM264.375 353.281C266.977 353.281 268.883 351.727 269.148 349.422H267.164C266.891 350.688 265.805 351.484 264.375 351.484C262.453 351.484 261.258 349.906 261.258 347.359C261.258 344.82 262.453 343.242 264.367 343.242C265.789 343.242 266.875 344.117 267.156 345.469H269.141C268.906 343.117 266.93 341.445 264.367 341.445C261.172 341.445 259.195 343.703 259.195 347.367C259.195 351.016 261.18 353.281 264.375 353.281Z" fill="#5D85AC"/>
</g>
<g filter="url(#filter1_i_2297_5766)">
<rect width="270" height="48" transform="translate(0 371)" fill="white" fill-opacity="0.01"/>
<g opacity="0.72">
<path d="M7 394.672L10.6638 398.336L17 392M21 395C21 399.971 16.9706 404 12 404C7.02944 404 3 399.971 3 395C3 390.029 7.02944 386 12 386C16.9706 386 21 390.029 21 395Z" stroke="#5D85AC" stroke-width="2" stroke-linejoin="round"/>
</g>
<path d="M30.0098 399L33.1562 394.289H33.25V399H34.2578V392.684H33.25L30.1035 397.395H30.0098V392.684H29.002V399H30.0098ZM40.4277 399H41.4355V392.684H40.4277V395.297H37.2754V392.684H36.2676V399H37.2754V396.141H40.4277V399ZM47.459 398.156H44.3418V398.062C44.6406 397.67 44.8047 396.996 44.8633 396.229L45.0625 393.527H47.459V398.156ZM43.5859 400.67V399H48.5254V400.67H49.4746V398.156H48.4668V392.684H44.1602L43.9141 396.205C43.8555 397.055 43.627 397.852 43.1641 398.156H42.6367V400.67H43.5859ZM53.3242 393.463C54.3262 393.463 54.9941 394.201 55.0176 395.32H51.5371C51.6133 394.201 52.3164 393.463 53.3242 393.463ZM54.9883 397.365C54.7246 397.922 54.1738 398.221 53.3594 398.221C52.2871 398.221 51.5898 397.43 51.5371 396.182V396.135H56.0781V395.748C56.0781 393.785 55.041 392.572 53.3359 392.572C51.6016 392.572 50.4883 393.861 50.4883 395.848C50.4883 397.846 51.584 399.111 53.3359 399.111C54.7188 399.111 55.6914 398.449 55.9961 397.365H54.9883ZM59.0547 396.123L61.5859 399H62.8926L59.8867 395.66L62.7812 392.684H61.5566L59.0547 395.326H58.7793V392.684H57.7715V399H58.7793V396.123H59.0547ZM69.2383 394.617C69.0625 393.492 68.125 392.572 66.5898 392.572C64.8203 392.572 63.6953 393.85 63.6953 395.818C63.6953 397.828 64.8262 399.111 66.5957 399.111C68.1133 399.111 69.0566 398.256 69.2383 397.096H68.2188C68.0312 397.811 67.4395 398.203 66.5898 398.203C65.4648 398.203 64.7383 397.277 64.7383 395.818C64.7383 394.389 65.4531 393.48 66.5898 393.48C67.498 393.48 68.0547 393.99 68.2188 394.617H69.2383ZM75.2324 399V394.506H75.3438L77.3418 398.824H78.127L80.125 394.506H80.2363V399H81.25V392.684H80.0723L77.8047 397.582H77.7109L75.4492 392.684H74.2246V399H75.2324ZM85.2109 398.227C84.4785 398.227 83.9336 397.852 83.9336 397.207C83.9336 396.574 84.3555 396.24 85.3164 396.176L87.0156 396.064V396.645C87.0156 397.547 86.248 398.227 85.2109 398.227ZM85.0234 399.111C85.8672 399.111 86.5586 398.742 86.9688 398.068H87.0625V399H88.0234V394.676C88.0234 393.363 87.1621 392.572 85.6211 392.572C84.2734 392.572 83.2773 393.24 83.1426 394.254H84.1621C84.3027 393.756 84.8301 393.469 85.5859 393.469C86.5293 393.469 87.0156 393.896 87.0156 394.676V395.25L85.1934 395.361C83.7227 395.449 82.8906 396.1 82.8906 397.23C82.8906 398.385 83.7988 399.111 85.0234 399.111ZM95.2305 394.617C95.0547 393.492 94.1172 392.572 92.582 392.572C90.8125 392.572 89.6875 393.85 89.6875 395.818C89.6875 397.828 90.8184 399.111 92.5879 399.111C94.1055 399.111 95.0488 398.256 95.2305 397.096H94.2109C94.0234 397.811 93.4316 398.203 92.582 398.203C91.457 398.203 90.7305 397.277 90.7305 395.818C90.7305 394.389 91.4453 393.48 92.582 393.48C93.4902 393.48 94.0469 393.99 94.2109 394.617H95.2305ZM102.062 394.617C101.887 393.492 100.949 392.572 99.4141 392.572C97.6445 392.572 96.5195 393.85 96.5195 395.818C96.5195 397.828 97.6504 399.111 99.4199 399.111C100.938 399.111 101.881 398.256 102.062 397.096H101.043C100.855 397.811 100.264 398.203 99.4141 398.203C98.2891 398.203 97.5625 397.277 97.5625 395.818C97.5625 394.389 98.2773 393.48 99.4141 393.48C100.322 393.48 100.879 393.99 101.043 394.617H102.062ZM109.188 399H110.195V392.684H109.188V399ZM105.918 395.555C106.744 395.555 107.283 396.064 107.283 396.855C107.283 397.641 106.75 398.156 105.918 398.156H104.67V395.555H105.918ZM103.662 399H105.918C107.365 399 108.291 398.168 108.291 396.855C108.291 395.543 107.365 394.711 105.918 394.711H104.67V392.684H103.662V399ZM120.168 392.684H115.059V393.527H117.109V399H118.117V393.527H120.168V392.684ZM123.93 393.463C124.932 393.463 125.6 394.201 125.623 395.32H122.143C122.219 394.201 122.922 393.463 123.93 393.463ZM125.594 397.365C125.33 397.922 124.779 398.221 123.965 398.221C122.893 398.221 122.195 397.43 122.143 396.182V396.135H126.684V395.748C126.684 393.785 125.646 392.572 123.941 392.572C122.207 392.572 121.094 393.861 121.094 395.848C121.094 397.846 122.189 399.111 123.941 399.111C125.324 399.111 126.297 398.449 126.602 397.365H125.594ZM129.719 396.229L129.918 393.527H132.127V399H133.135V392.684H129.004L128.758 396.205C128.676 397.377 128.436 398.109 127.809 398.109C127.662 398.109 127.545 398.08 127.492 398.062V398.988C127.562 399.018 127.68 399.053 127.861 399.053C129.174 399.053 129.59 397.963 129.719 396.229ZM137.09 398.227C136.357 398.227 135.812 397.852 135.812 397.207C135.812 396.574 136.234 396.24 137.195 396.176L138.895 396.064V396.645C138.895 397.547 138.127 398.227 137.09 398.227ZM136.902 399.111C137.746 399.111 138.438 398.742 138.848 398.068H138.941V399H139.902V394.676C139.902 393.363 139.041 392.572 137.5 392.572C136.152 392.572 135.156 393.24 135.021 394.254H136.041C136.182 393.756 136.709 393.469 137.465 393.469C138.408 393.469 138.895 393.896 138.895 394.676V395.25L137.072 395.361C135.602 395.449 134.77 396.1 134.77 397.23C134.77 398.385 135.678 399.111 136.902 399.111Z" fill="#5D85AC"/>
<path d="M230.68 393.023V393.055H232.57V393.023C232.57 391.875 233.367 391.102 234.547 391.102C235.656 391.102 236.469 391.82 236.469 392.812C236.469 393.609 236.086 394.195 234.547 395.758L230.789 399.602V401H238.617V399.289H233.555V399.156L235.914 396.789C237.828 394.898 238.445 393.898 238.445 392.688C238.445 390.805 236.836 389.445 234.609 389.445C232.297 389.445 230.68 390.914 230.68 393.023ZM245.008 401.281C247.703 401.281 249.305 399.094 249.305 395.367C249.305 391.625 247.68 389.445 245.008 389.445C242.328 389.445 240.703 391.625 240.703 395.352C240.703 399.094 242.305 401.281 245.008 401.281ZM245.008 399.609C243.578 399.609 242.742 398.125 242.742 395.352C242.742 392.602 243.594 391.125 245.008 391.125C246.422 391.125 247.266 392.594 247.266 395.352C247.266 398.125 246.438 399.609 245.008 399.609ZM252.016 403.984L253.367 399.266H251.406L250.68 403.984H252.016ZM258.023 401H260.039V389.727H258.031L255.086 391.789V393.727L257.891 391.758H258.023V401ZM265.961 401H267.977V389.727H265.969L263.023 391.789V393.727L265.828 391.758H265.961V401Z" fill="#5D85AC"/>
</g>
<g filter="url(#filter2_i_2297_5766)">
<rect width="270" height="48" transform="translate(0 419)" fill="white" fill-opacity="0.01"/>
<g opacity="0.72">
<path d="M12 444V438M12 448V446M21 443C21 447.971 16.9706 452 12 452C7.02944 452 3 447.971 3 443C3 438.029 7.02944 434 12 434C16.9706 434 21 438.029 21 443Z" stroke="#5D85AC" stroke-width="2"/>
</g>
<path d="M33.0215 446.156H29.9043V446.062C30.2031 445.67 30.3672 444.996 30.4258 444.229L30.625 441.527H33.0215V446.156ZM29.1484 448.67V447H34.0879V448.67H35.0371V446.156H34.0293V440.684H29.7227L29.4766 444.205C29.418 445.055 29.1895 445.852 28.7266 446.156H28.1992V448.67H29.1484ZM38.3125 446.227C37.5801 446.227 37.0352 445.852 37.0352 445.207C37.0352 444.574 37.457 444.24 38.418 444.176L40.1172 444.064V444.645C40.1172 445.547 39.3496 446.227 38.3125 446.227ZM38.125 447.111C38.9688 447.111 39.6602 446.742 40.0703 446.068H40.1641V447H41.125V442.676C41.125 441.363 40.2637 440.572 38.7227 440.572C37.375 440.572 36.3789 441.24 36.2441 442.254H37.2637C37.4043 441.756 37.9316 441.469 38.6875 441.469C39.6309 441.469 40.1172 441.896 40.1172 442.676V443.25L38.2949 443.361C36.8242 443.449 35.9922 444.1 35.9922 445.23C35.9922 446.385 36.9004 447.111 38.125 447.111ZM45.6484 441.527C46.3574 441.527 46.6738 441.879 46.6738 442.406C46.6738 442.998 46.3047 443.309 45.4844 443.309H44.1074V441.527H45.6484ZM45.5723 444.152C46.4805 444.152 46.9492 444.463 46.9492 445.166C46.9492 445.805 46.5391 446.156 45.7656 446.156H44.1074V444.152H45.5723ZM43.0996 447H45.7891C47.1484 447 47.9512 446.285 47.9512 445.184C47.9512 444.422 47.4414 443.836 46.6387 443.725V443.631C47.2305 443.508 47.6699 442.922 47.6699 442.301C47.6699 441.322 46.9727 440.684 45.7773 440.684H43.0996V447ZM51.1328 444.229L51.332 441.527H53.541V447H54.5488V440.684H50.418L50.1719 444.205C50.0898 445.377 49.8496 446.109 49.2227 446.109C49.0762 446.109 48.959 446.08 48.9062 446.062V446.988C48.9766 447.018 49.0938 447.053 49.2754 447.053C50.5879 447.053 51.0039 445.963 51.1328 444.229ZM59.0781 441.463C60.0801 441.463 60.748 442.201 60.7715 443.32H57.291C57.3672 442.201 58.0703 441.463 59.0781 441.463ZM60.7422 445.365C60.4785 445.922 59.9277 446.221 59.1133 446.221C58.041 446.221 57.3438 445.43 57.291 444.182V444.135H61.832V443.748C61.832 441.785 60.7949 440.572 59.0898 440.572C57.3555 440.572 56.2422 441.861 56.2422 443.848C56.2422 445.846 57.3379 447.111 59.0898 447.111C60.4727 447.111 61.4453 446.449 61.75 445.365H60.7422ZM67.6855 447H68.6934V440.684H67.6855V443.297H64.5332V440.684H63.5254V447H64.5332V444.141H67.6855V447ZM71.7051 447L74.8516 442.289H74.9453V447H75.9531V440.684H74.9453L71.7988 445.395H71.7051V440.684H70.6973V447H71.7051ZM80.4883 441.463C81.4902 441.463 82.1582 442.201 82.1816 443.32H78.7012C78.7773 442.201 79.4805 441.463 80.4883 441.463ZM82.1523 445.365C81.8887 445.922 81.3379 446.221 80.5234 446.221C79.4512 446.221 78.7539 445.43 78.7012 444.182V444.135H83.2422V443.748C83.2422 441.785 82.2051 440.572 80.5 440.572C78.7656 440.572 77.6523 441.861 77.6523 443.848C77.6523 445.846 78.748 447.111 80.5 447.111C81.8828 447.111 82.8555 446.449 83.1602 445.365H82.1523Z" fill="#5D85AC"/>
<path d="M217.414 449H219.43V437.727H217.422L214.477 439.789V441.727L217.281 439.758H217.414V449ZM225.219 444H226.633C228.023 444 228.875 444.68 228.875 445.781C228.875 446.844 227.969 447.586 226.68 447.586C225.383 447.586 224.492 446.922 224.406 445.875H222.477C222.578 447.938 224.234 449.281 226.664 449.281C229.117 449.281 230.93 447.844 230.93 445.906C230.93 444.406 229.977 443.359 228.438 443.18V443.047C229.688 442.781 230.477 441.773 230.477 440.453C230.477 438.727 228.844 437.445 226.656 437.445C224.312 437.445 222.797 438.734 222.695 440.805H224.578C224.656 439.742 225.43 439.086 226.594 439.086C227.773 439.086 228.531 439.734 228.531 440.734C228.531 441.742 227.742 442.438 226.594 442.438H225.219V444ZM237.305 449.281C239.906 449.281 241.688 447.938 241.688 445.977C241.688 444.523 240.719 443.383 239.25 443.109V442.977C240.461 442.672 241.227 441.711 241.227 440.5C241.227 438.719 239.602 437.445 237.312 437.445C235.023 437.445 233.391 438.719 233.391 440.5C233.391 441.703 234.172 442.68 235.375 442.977V443.109C233.898 443.422 232.938 444.555 232.938 445.984C232.938 447.938 234.719 449.281 237.305 449.281ZM237.312 447.711C235.953 447.711 235.016 446.938 235.016 445.812C235.016 444.688 235.953 443.914 237.312 443.914C238.664 443.914 239.602 444.688 239.602 445.812C239.602 446.938 238.672 447.711 237.312 447.711ZM237.312 442.367C236.164 442.367 235.375 441.688 235.375 440.695C235.375 439.688 236.156 438.992 237.312 438.992C238.461 438.992 239.242 439.688 239.242 440.695C239.242 441.688 238.453 442.367 237.312 442.367ZM244.484 451.414L248.586 437.148H246.805L242.703 451.414H244.484ZM253.977 449.281C256.578 449.281 258.359 447.938 258.359 445.977C258.359 444.523 257.391 443.383 255.922 443.109V442.977C257.133 442.672 257.898 441.711 257.898 440.5C257.898 438.719 256.273 437.445 253.984 437.445C251.695 437.445 250.062 438.719 250.062 440.5C250.062 441.703 250.844 442.68 252.047 442.977V443.109C250.57 443.422 249.609 444.555 249.609 445.984C249.609 447.938 251.391 449.281 253.977 449.281ZM253.984 447.711C252.625 447.711 251.688 446.938 251.688 445.812C251.688 444.688 252.625 443.914 253.984 443.914C255.336 443.914 256.273 444.688 256.273 445.812C256.273 446.938 255.344 447.711 253.984 447.711ZM253.984 442.367C252.836 442.367 252.047 441.688 252.047 440.695C252.047 439.688 252.828 438.992 253.984 438.992C255.133 438.992 255.914 439.688 255.914 440.695C255.914 441.688 255.125 442.367 253.984 442.367ZM264.82 449.273C267.273 449.273 269.008 447.633 269.008 445.312C269.008 443.148 267.438 441.562 265.297 441.562C263.969 441.562 262.906 442.18 262.375 443.25H262.242C262.242 440.672 263.219 439.133 264.867 439.133C265.836 439.133 266.586 439.664 266.836 440.516H268.852C268.516 438.664 266.938 437.445 264.883 437.445C262.008 437.445 260.312 439.695 260.312 443.484C260.312 444.922 260.586 446.125 261.109 447.047C261.859 448.492 263.164 449.273 264.82 449.273ZM264.797 447.594C263.539 447.594 262.578 446.625 262.578 445.344C262.578 444.086 263.523 443.164 264.812 443.164C266.102 443.164 267.031 444.086 267.031 445.375C267.031 446.633 266.062 447.594 264.797 447.594Z" fill="#5D85AC"/>
</g>
<rect width="270" height="48" transform="translate(0 467)" fill="white" fill-opacity="0.01"/>
<g opacity="0.72">
<path d="M7 490.672L10.6638 494.336L17 488M21 491C21 495.971 16.9706 500 12 500C7.02944 500 3 495.971 3 491C3 486.029 7.02944 482 12 482C16.9706 482 21 486.029 21 491Z" stroke="#5D85AC" stroke-width="2" stroke-linejoin="round"/>
</g>
<path d="M34.2344 490.617C34.0586 489.492 33.1211 488.572 31.5859 488.572C29.8164 488.572 28.6914 489.85 28.6914 491.818C28.6914 493.828 29.8223 495.111 31.5918 495.111C33.1094 495.111 34.0527 494.256 34.2344 493.096H33.2148C33.0273 493.811 32.4355 494.203 31.5859 494.203C30.4609 494.203 29.7344 493.277 29.7344 491.818C29.7344 490.389 30.4492 489.48 31.5859 489.48C32.4941 489.48 33.0508 489.99 33.2148 490.617H34.2344ZM38.3594 489.463C39.3613 489.463 40.0293 490.201 40.0527 491.32H36.5723C36.6484 490.201 37.3516 489.463 38.3594 489.463ZM40.0234 493.365C39.7598 493.922 39.209 494.221 38.3945 494.221C37.3223 494.221 36.625 493.43 36.5723 492.182V492.135H41.1133V491.748C41.1133 489.785 40.0762 488.572 38.3711 488.572C36.6367 488.572 35.5234 489.861 35.5234 491.848C35.5234 493.846 36.6191 495.111 38.3711 495.111C39.7539 495.111 40.7266 494.449 41.0312 493.365H40.0234ZM45.8828 488.572C45.0215 488.572 44.2656 489.012 43.8613 489.738H43.7676V488.684H42.8066V497.109H43.8145V494.051H43.9082C44.2539 494.719 44.9805 495.111 45.8828 495.111C47.4883 495.111 48.5371 493.816 48.5371 491.842C48.5371 489.855 47.4941 488.572 45.8828 488.572ZM45.6426 494.203C44.5059 494.203 43.7852 493.289 43.7852 491.842C43.7852 490.389 44.5059 489.48 45.6484 489.48C46.8027 489.48 47.4941 490.365 47.4941 491.842C47.4941 493.318 46.8027 494.203 45.6426 494.203ZM54.1973 494.156H51.0801V494.062C51.3789 493.67 51.543 492.996 51.6016 492.229L51.8008 489.527H54.1973V494.156ZM50.3242 496.67V495H55.2637V496.67H56.2129V494.156H55.2051V488.684H50.8984L50.6523 492.205C50.5938 493.055 50.3652 493.852 49.9023 494.156H49.375V496.67H50.3242ZM60.0625 489.463C61.0645 489.463 61.7324 490.201 61.7559 491.32H58.2754C58.3516 490.201 59.0547 489.463 60.0625 489.463ZM61.7266 493.365C61.4629 493.922 60.9121 494.221 60.0977 494.221C59.0254 494.221 58.3281 493.43 58.2754 492.182V492.135H62.8164V491.748C62.8164 489.785 61.7793 488.572 60.0742 488.572C58.3398 488.572 57.2266 489.861 57.2266 491.848C57.2266 493.846 58.3223 495.111 60.0742 495.111C61.457 495.111 62.4297 494.449 62.7344 493.365H61.7266ZM69.1504 495V488.684H68.1426V491.232C67.8496 491.561 67.3223 491.854 66.5312 491.854C65.6699 491.854 65.2246 491.32 65.2246 490.488V488.684H64.2168V490.488C64.2168 491.836 65.0078 492.75 66.5254 492.75C67.2109 492.75 67.7148 492.557 68.0488 492.27H68.1426V495H69.1504ZM75.3145 495H76.3223V488.684H75.3145V491.297H72.1621V488.684H71.1543V495H72.1621V492.141H75.3145V495ZM83.8516 495H84.8594V488.684H83.8516V495ZM80.582 491.555C81.4082 491.555 81.9473 492.064 81.9473 492.855C81.9473 493.641 81.4141 494.156 80.582 494.156H79.334V491.555H80.582ZM78.3262 495H80.582C82.0293 495 82.9551 494.168 82.9551 492.855C82.9551 491.543 82.0293 490.711 80.582 490.711H79.334V488.684H78.3262V495ZM87.877 495L91.0234 490.289H91.1172V495H92.125V488.684H91.1172L87.9707 493.395H87.877V488.684H86.8691V495H87.877ZM87.4609 485.883C87.4609 486.973 88.2578 487.805 89.4648 487.805C90.6719 487.805 91.4805 486.973 91.4805 485.883H90.5664C90.5664 486.521 90.1562 487.113 89.4648 487.113C88.7852 487.113 88.375 486.521 88.375 485.883H87.4609ZM100.598 488.572C99.7363 488.572 98.9805 489.012 98.5762 489.738H98.4824V488.684H97.5215V497.109H98.5293V494.051H98.623C98.9688 494.719 99.6953 495.111 100.598 495.111C102.203 495.111 103.252 493.816 103.252 491.842C103.252 489.855 102.209 488.572 100.598 488.572ZM100.357 494.203C99.2207 494.203 98.5 493.289 98.5 491.842C98.5 490.389 99.2207 489.48 100.363 489.48C101.518 489.48 102.209 490.365 102.209 491.842C102.209 493.318 101.518 494.203 100.357 494.203ZM105.959 495L109.105 490.289H109.199V495H110.207V488.684H109.199L106.053 493.395H105.959V488.684H104.951V495H105.959ZM116.793 488.684H111.684V489.527H113.734V495H114.742V489.527H116.793V488.684ZM119.271 495V490.506H119.383L121.381 494.824H122.166L124.164 490.506H124.275V495H125.289V488.684H124.111L121.844 493.582H121.75L119.488 488.684H118.264V495H119.271Z" fill="#5D85AC"/>
<path d="M251.984 497H254.094L258.914 487.445V485.727H251.07V487.422H256.883V487.547L251.984 497ZM264.883 497.281C267.383 497.281 269.062 495.672 269.062 493.32C269.062 491.109 267.547 489.539 265.406 489.539C264.32 489.539 263.523 489.922 263.023 490.594H262.891L263.164 487.43H268.391V485.727H261.602L261.016 492.211H262.844C263.258 491.516 263.984 491.102 264.914 491.102C266.211 491.102 267.117 492.016 267.117 493.367C267.117 494.711 266.219 495.602 264.898 495.602C263.734 495.602 262.852 494.914 262.727 493.875H260.836C260.93 495.859 262.547 497.281 264.883 497.281Z" fill="#5D85AC"/>
<path d="M172.578 246.617C172.402 245.492 171.465 244.572 169.93 244.572C168.16 244.572 167.035 245.85 167.035 247.818C167.035 249.828 168.166 251.111 169.936 251.111C171.453 251.111 172.396 250.256 172.578 249.096H171.559C171.371 249.811 170.779 250.203 169.93 250.203C168.805 250.203 168.078 249.277 168.078 247.818C168.078 246.389 168.793 245.48 169.93 245.48C170.838 245.48 171.395 245.99 171.559 246.617H172.578ZM176.129 250.227C175.396 250.227 174.852 249.852 174.852 249.207C174.852 248.574 175.273 248.24 176.234 248.176L177.934 248.064V248.645C177.934 249.547 177.166 250.227 176.129 250.227ZM175.941 251.111C176.785 251.111 177.477 250.742 177.887 250.068H177.98V251H178.941V246.676C178.941 245.363 178.08 244.572 176.539 244.572C175.191 244.572 174.195 245.24 174.061 246.254H175.08C175.221 245.756 175.748 245.469 176.504 245.469C177.447 245.469 177.934 245.896 177.934 246.676V247.25L176.111 247.361C174.641 247.449 173.809 248.1 173.809 249.23C173.809 250.385 174.717 251.111 175.941 251.111ZM181.924 251V246.506H182.035L184.033 250.824H184.818L186.816 246.506H186.928V251H187.941V244.684H186.764L184.496 249.582H184.402L182.141 244.684H180.916V251H181.924ZM192.553 251.111C194.352 251.111 195.465 249.869 195.465 247.842C195.465 245.809 194.352 244.572 192.553 244.572C190.754 244.572 189.641 245.809 189.641 247.842C189.641 249.869 190.754 251.111 192.553 251.111ZM192.553 250.203C191.357 250.203 190.684 249.336 190.684 247.842C190.684 246.342 191.357 245.48 192.553 245.48C193.748 245.48 194.422 246.342 194.422 247.842C194.422 249.336 193.748 250.203 192.553 250.203ZM201.857 251V244.684H200.85V247.232C200.557 247.561 200.029 247.854 199.238 247.854C198.377 247.854 197.932 247.32 197.932 246.488V244.684H196.924V246.488C196.924 247.836 197.715 248.75 199.232 248.75C199.918 248.75 200.422 248.557 200.756 248.27H200.85V251H201.857ZM204.406 253.285C205.525 253.285 206.029 252.852 206.568 251.387L209.035 244.684H207.963L206.234 249.881H206.141L204.406 244.684H203.316L205.654 251.006L205.537 251.381C205.273 252.143 204.957 252.418 204.377 252.418C204.236 252.418 204.078 252.412 203.955 252.389V253.25C204.096 253.273 204.271 253.285 204.406 253.285ZM215.492 246.617C215.316 245.492 214.379 244.572 212.844 244.572C211.074 244.572 209.949 245.85 209.949 247.818C209.949 249.828 211.08 251.111 212.85 251.111C214.367 251.111 215.311 250.256 215.492 249.096H214.473C214.285 249.811 213.693 250.203 212.844 250.203C211.719 250.203 210.992 249.277 210.992 247.818C210.992 246.389 211.707 245.48 212.844 245.48C213.752 245.48 214.309 245.99 214.473 246.617H215.492ZM221.375 244.684H216.266V245.527H218.316V251H219.324V245.527H221.375V244.684ZM225.395 245.527C226.104 245.527 226.42 245.879 226.42 246.406C226.42 246.998 226.051 247.309 225.23 247.309H223.854V245.527H225.395ZM225.318 248.152C226.227 248.152 226.695 248.463 226.695 249.166C226.695 249.805 226.285 250.156 225.512 250.156H223.854V248.152H225.318ZM222.846 251H225.535C226.895 251 227.697 250.285 227.697 249.184C227.697 248.422 227.188 247.836 226.385 247.725V247.631C226.977 247.508 227.416 246.922 227.416 246.301C227.416 245.322 226.719 244.684 225.523 244.684H222.846V251ZM230.428 251L233.574 246.289H233.668V251H234.676V244.684H233.668L230.521 249.395H230.428V244.684H229.42V251H230.428ZM239.211 245.463C240.213 245.463 240.881 246.201 240.904 247.32H237.424C237.5 246.201 238.203 245.463 239.211 245.463ZM240.875 249.365C240.611 249.922 240.061 250.221 239.246 250.221C238.174 250.221 237.477 249.43 237.424 248.182V248.135H241.965V247.748C241.965 245.785 240.928 244.572 239.223 244.572C237.488 244.572 236.375 245.861 236.375 247.848C236.375 249.846 237.471 251.111 239.223 251.111C240.605 251.111 241.578 250.449 241.883 249.365H240.875Z" fill="#5D85AC"/>
<path d="M195.912 235.359C199.203 235.359 201.479 233.595 201.479 231.032C201.479 229.125 200.229 227.627 198.332 227.269V227.094C199.89 226.694 200.875 225.433 200.875 223.833C200.875 221.496 198.813 219.845 195.912 219.845C193.01 219.845 190.949 221.496 190.949 223.833C190.949 225.423 191.954 226.705 193.492 227.094V227.269C191.595 227.658 190.354 229.155 190.354 231.042C190.354 233.595 192.62 235.359 195.912 235.359ZM195.912 233.452C194.015 233.452 192.702 232.385 192.702 230.847C192.702 229.299 194.015 228.232 195.912 228.232C197.809 228.232 199.121 229.299 199.121 230.847C199.121 232.385 197.809 233.452 195.912 233.452ZM195.912 226.356C194.302 226.356 193.215 225.423 193.215 224.059C193.215 222.675 194.292 221.731 195.912 221.731C197.532 221.731 198.619 222.675 198.619 224.059C198.619 225.423 197.521 226.356 195.912 226.356ZM203.734 236.799L206.839 226.176H205.949L202.843 236.799H203.734ZM209.804 235H210.859V226.545H209.81L207.56 228.162V229.275L209.71 227.717H209.804V235ZM216.226 235.199C218.125 235.199 219.214 233.594 219.214 230.787C219.214 227.986 218.107 226.346 216.226 226.346C214.333 226.346 213.226 227.98 213.226 230.77C213.226 233.582 214.322 235.199 216.226 235.199ZM216.226 234.279C214.978 234.279 214.287 233.031 214.287 230.77C214.287 228.537 214.99 227.271 216.226 227.271C217.462 227.271 218.154 228.525 218.154 230.77C218.154 233.037 217.474 234.279 216.226 234.279Z" fill="#5D85AC"/>
<circle cx="205.5" cy="179" r="19.5" stroke="#B8CADB"/>
<g opacity="0.72">
<path d="M198.5 179L205.5 172M205.5 172L212.5 179M205.5 172V187" stroke="#5D85AC" stroke-width="2" stroke-linejoin="round"/>
</g>
<rect x="139.5" y="139.5" width="130" height="159" rx="1.5" stroke="#09150F" stroke-opacity="0.16"/>
<rect x="0.5" y="139.5" width="131" height="159" rx="1.5" stroke="#09150F" stroke-opacity="0.16"/>
<path d="M41.0137 251.105C42.4844 251.105 43.498 250.309 43.498 249.137C43.498 248.41 43.0645 247.883 42.2266 247.701V247.607C42.8477 247.467 43.252 246.904 43.252 246.277C43.252 245.27 42.4375 244.572 41.0137 244.572C39.6895 244.572 38.752 245.229 38.6172 246.266H39.6133C39.6953 245.756 40.2578 245.428 41.0137 245.428C41.8398 245.428 42.2559 245.82 42.2559 246.354C42.2559 246.986 41.8105 247.297 41.0137 247.297H40.0293V248.141H41.0137C41.9805 248.141 42.4961 248.469 42.4961 249.189C42.4961 249.816 41.9453 250.256 41.0137 250.256C40.2227 250.256 39.666 249.934 39.543 249.383H38.5059C38.6172 250.432 39.6426 251.105 41.0137 251.105ZM49.2109 250.156H46.0938V250.062C46.3926 249.67 46.5566 248.996 46.6152 248.229L46.8145 245.527H49.2109V250.156ZM45.3379 252.67V251H50.2773V252.67H51.2266V250.156H50.2188V244.684H45.9121L45.666 248.205C45.6074 249.055 45.3789 249.852 44.916 250.156H44.3887V252.67H45.3379ZM55.1523 251.111C56.9512 251.111 58.0645 249.869 58.0645 247.842C58.0645 245.809 56.9512 244.572 55.1523 244.572C53.3535 244.572 52.2402 245.809 52.2402 247.842C52.2402 249.869 53.3535 251.111 55.1523 251.111ZM55.1523 250.203C53.957 250.203 53.2832 249.336 53.2832 247.842C53.2832 246.342 53.957 245.48 55.1523 245.48C56.3477 245.48 57.0215 246.342 57.0215 247.842C57.0215 249.336 56.3477 250.203 55.1523 250.203ZM62.834 244.572C61.9727 244.572 61.2168 245.012 60.8125 245.738H60.7188V244.684H59.7578V253.109H60.7656V250.051H60.8594C61.2051 250.719 61.9316 251.111 62.834 251.111C64.4395 251.111 65.4883 249.816 65.4883 247.842C65.4883 245.855 64.4453 244.572 62.834 244.572ZM62.5938 250.203C61.457 250.203 60.7363 249.289 60.7363 247.842C60.7363 246.389 61.457 245.48 62.5996 245.48C63.7539 245.48 64.4453 246.365 64.4453 247.842C64.4453 249.318 63.7539 250.203 62.5938 250.203ZM69.7891 251.111C71.5879 251.111 72.7012 249.869 72.7012 247.842C72.7012 245.809 71.5879 244.572 69.7891 244.572C67.9902 244.572 66.877 245.809 66.877 247.842C66.877 249.869 67.9902 251.111 69.7891 251.111ZM69.7891 250.203C68.5938 250.203 67.9199 249.336 67.9199 247.842C67.9199 246.342 68.5938 245.48 69.7891 245.48C70.9844 245.48 71.6582 246.342 71.6582 247.842C71.6582 249.336 70.9844 250.203 69.7891 250.203ZM76.9434 245.527C77.6523 245.527 77.9688 245.879 77.9688 246.406C77.9688 246.998 77.5996 247.309 76.7793 247.309H75.4023V245.527H76.9434ZM76.8672 248.152C77.7754 248.152 78.2441 248.463 78.2441 249.166C78.2441 249.805 77.834 250.156 77.0605 250.156H75.4023V248.152H76.8672ZM74.3945 251H77.084C78.4434 251 79.2461 250.285 79.2461 249.184C79.2461 248.422 78.7363 247.836 77.9336 247.725V247.631C78.5254 247.508 78.9648 246.922 78.9648 246.301C78.9648 245.322 78.2676 244.684 77.0723 244.684H74.3945V251ZM83.2246 247.555C84.0508 247.555 84.5898 248.064 84.5898 248.855C84.5898 249.641 84.0566 250.156 83.2246 250.156H81.9766V247.555H83.2246ZM80.9688 251H83.2246C84.6719 251 85.5977 250.168 85.5977 248.855C85.5977 247.543 84.6719 246.711 83.2246 246.711H81.9766V244.684H80.9688V251ZM89.6934 245.463C90.6953 245.463 91.3633 246.201 91.3867 247.32H87.9062C87.9824 246.201 88.6855 245.463 89.6934 245.463ZM91.3574 249.365C91.0938 249.922 90.543 250.221 89.7285 250.221C88.6562 250.221 87.959 249.43 87.9062 248.182V248.135H92.4473V247.748C92.4473 245.785 91.4102 244.572 89.7051 244.572C87.9707 244.572 86.8574 245.861 86.8574 247.848C86.8574 249.846 87.9531 251.111 89.7051 251.111C91.0879 251.111 92.0605 250.449 92.3652 249.365H91.3574Z" fill="#5D85AC"/>
<path d="M57.1245 235.359C60.8262 235.359 62.9897 232.416 62.9897 227.402C62.9897 225.607 62.6821 224.09 62.0771 222.9C61.1235 220.911 59.4009 219.845 57.2168 219.845C54.0791 219.845 51.854 221.988 51.854 225.013C51.854 227.863 53.9048 229.945 56.7246 229.945C58.478 229.945 59.8931 229.125 60.6006 227.699H60.6416C60.6416 227.699 60.6826 227.699 60.6929 227.699C60.7031 227.699 60.7749 227.699 60.7749 227.699C60.7339 231.268 59.4111 233.318 57.145 233.318C55.7915 233.318 54.7456 232.58 54.3867 231.37H52.0693C52.5205 233.79 54.4995 235.359 57.1245 235.359ZM57.2271 227.997C55.4121 227.997 54.1406 226.725 54.1406 224.931C54.1406 223.198 55.4839 221.865 57.2476 221.865C59.001 221.865 60.3442 223.208 60.3442 224.982C60.3442 226.725 59.0317 227.997 57.2271 227.997ZM65.1826 236.799L68.2881 226.176H67.3975L64.292 236.799H65.1826ZM71.2529 235H72.3076V226.545H71.2588L69.0088 228.162V229.275L71.1592 227.717H71.2529V235ZM77.6748 235.199C79.5732 235.199 80.6631 233.594 80.6631 230.787C80.6631 227.986 79.5557 226.346 77.6748 226.346C75.7822 226.346 74.6748 227.98 74.6748 230.77C74.6748 233.582 75.7705 235.199 77.6748 235.199ZM77.6748 234.279C76.4268 234.279 75.7354 233.031 75.7354 230.77C75.7354 228.537 76.4385 227.271 77.6748 227.271C78.9111 227.271 79.6025 228.525 79.6025 230.77C79.6025 233.037 78.9229 234.279 77.6748 234.279Z" fill="#5D85AC"/>
<circle cx="66.5" cy="179" r="19.5" stroke="#B8CADB"/>
<g opacity="0.72">
<path d="M59.5 179L66.5 172M66.5 172L73.5 179M66.5 172V187" stroke="#5D85AC" stroke-width="2" stroke-linejoin="round"/>
</g>
<g opacity="0.72">
<path d="M55.2279 73.7279L54.5208 68.7782L44.6213 58.8787C43.4497 57.7071 41.5503 57.7071 40.3787 58.8787C39.2071 60.0503 39.2071 61.9497 40.3787 63.1213L50.2782 73.0208L55.2279 73.7279ZM55.2279 73.7279L57.8 76.3M47.1464 65.6464L52.0459 70.5459" stroke="#5D85AC" stroke-width="2" stroke-linejoin="round"/>
</g>
<path d="M75.6523 71H76.9531V62.5449H75.6758L71.3809 68.7969H71.2812V62.5449H69.9805V71H71.2578L75.5527 64.7656H75.6523V71ZM81.1445 67.2676H82.3105C83.4883 67.2676 84.1621 67.7832 84.1621 68.6211C84.1621 69.4473 83.4473 70.0332 82.3516 70.0332C81.2559 70.0332 80.5117 69.5117 80.4355 68.7031H79.1758C79.252 70.209 80.5117 71.2051 82.3516 71.2051C84.1387 71.2051 85.5098 70.1387 85.5098 68.6914C85.5098 67.5137 84.7246 66.7578 83.6289 66.6465V66.5469C84.543 66.3359 85.1641 65.5449 85.1641 64.6133C85.1641 63.2715 83.9922 62.3398 82.3281 62.3398C80.5645 62.3398 79.4277 63.2891 79.3398 64.8125H80.582C80.6582 63.9863 81.3027 63.4883 82.2871 63.4883C83.2832 63.4883 83.8691 63.9922 83.8691 64.7715C83.8691 65.5684 83.2129 66.1191 82.2754 66.1191H81.1445V67.2676ZM96.3281 71V62.5449H94.793L92.0977 68.9668H91.998L89.3086 62.5449H87.7734V71H88.9922V64.8945H89.0742L91.5527 70.7539H92.5488L95.0273 64.8945H95.1094V71H96.3281ZM104.434 69.8047H100.379V67.2676H104.217V66.1309H100.379V63.7402H104.434V62.5449H99.0664V71H104.434V69.8047ZM106.949 62.5449V71H108.262V68.1523H110.219C111.877 68.1523 113.049 67.0156 113.049 65.3633C113.049 63.6875 111.912 62.5449 110.26 62.5449H106.949ZM108.262 63.7051H109.914C111.068 63.7051 111.707 64.291 111.707 65.3633C111.707 66.4121 111.045 66.998 109.914 66.998H108.262V63.7051ZM115.359 71H118.623C120.264 71 121.412 69.8926 121.412 68.2695C121.412 66.6465 120.24 65.5391 118.582 65.5391H116.672V62.5449H115.359V71ZM116.672 69.8281V66.6992H118.277C119.408 66.6992 120.064 67.2617 120.064 68.2695C120.064 69.2715 119.414 69.8281 118.277 69.8281H116.672ZM126.219 71V63.7402H128.873V62.5449H122.246V63.7402H124.906V71H126.219ZM136.469 69.8047H132.414V67.2676H136.252V66.1309H132.414V63.7402H136.469V62.5449H131.102V71H136.469V69.8047ZM148.438 71H149.738V62.5449H148.461L144.166 68.7969H144.066V62.5449H142.766V71H144.043L148.338 64.7656H148.438V71ZM157.711 67.2676H158.877C160.055 67.2676 160.729 67.7832 160.729 68.6211C160.729 69.4473 160.014 70.0332 158.918 70.0332C157.822 70.0332 157.078 69.5117 157.002 68.7031H155.742C155.818 70.209 157.078 71.2051 158.918 71.2051C160.705 71.2051 162.076 70.1387 162.076 68.6914C162.076 67.5137 161.291 66.7578 160.195 66.6465V66.5469C161.109 66.3359 161.73 65.5449 161.73 64.6133C161.73 63.2715 160.559 62.3398 158.895 62.3398C157.131 62.3398 155.994 63.2891 155.906 64.8125H157.148C157.225 63.9863 157.869 63.4883 158.854 63.4883C159.85 63.4883 160.436 63.9922 160.436 64.7715C160.436 65.5684 159.779 66.1191 158.842 66.1191H157.711V67.2676ZM169.707 71H171.102L168.049 62.5449H166.637L163.584 71H164.932L165.711 68.7559H168.934L169.707 71ZM167.275 64.0801H167.375L168.6 67.6543H166.045L167.275 64.0801ZM180.045 71V62.5449H173.195V71H174.514V63.7461H178.744V71H180.045ZM188.461 71H189.762V62.5449H188.484L184.189 68.7969H184.09V62.5449H182.789V71H184.066L188.361 64.7656H188.461V71ZM192.5 71H202.08V62.5449H200.768V69.8047H197.943V62.5449H196.631V69.8047H193.812V62.5449H192.5V71ZM210.496 71H211.797V62.5449H210.52L206.225 68.7969H206.125V62.5449H204.824V71H206.102L210.396 64.7656H210.496V71ZM217.992 71V63.7402H220.646V62.5449H214.02V63.7402H216.68V71H217.992ZM228.242 69.8047H224.188V67.2676H228.025V66.1309H224.188V63.7402H228.242V62.5449H222.875V71H228.242V69.8047Z" fill="#5D85AC"/>
<rect x="0.5" y="43.5" width="269" height="47" rx="3.5" stroke="#B8CADB"/>
<path d="M23.2324 19.3589C26.5342 19.3589 28.9644 17.4106 29.3745 14.4883H27.0879C26.6777 16.1597 25.1909 17.2158 23.2324 17.2158C20.5664 17.2158 18.9053 15.0522 18.9053 11.6069C18.9053 8.15137 20.5664 5.98779 23.2222 5.98779C25.1704 5.98779 26.6572 7.15674 27.0879 8.97168H29.3745C29.0054 5.95703 26.4829 3.84473 23.2222 3.84473C19.1104 3.84473 16.5571 6.80811 16.5571 11.6069C16.5571 16.3955 19.1206 19.3589 23.2324 19.3589ZM34.8911 13.8936L35.1987 9.68945H38.7363V19H40.9409V7.8335H33.2505L32.8608 13.7808C32.7275 15.7085 32.3379 17.0107 31.251 17.0107C30.9741 17.0107 30.7588 16.9595 30.6562 16.9287V18.9897C30.7896 19.041 31.0459 19.1128 31.415 19.1128C33.8862 19.1128 34.6758 17.0723 34.8911 13.8936ZM48.9287 9.49463C50.5591 9.49463 51.6255 10.6328 51.6768 12.3862H46.0371C46.1602 10.6431 47.2983 9.49463 48.9287 9.49463ZM51.6665 15.9854C51.2563 16.8569 50.3438 17.3389 49.0107 17.3389C47.2471 17.3389 46.1089 16.0981 46.0371 14.1396V14.0166H53.9224V13.2476C53.9224 9.74072 52.0459 7.61816 48.939 7.61816C45.791 7.61816 43.7915 9.88428 43.7915 13.4526C43.7915 17.021 45.75 19.2153 48.9492 19.2153C51.5024 19.2153 53.2866 17.9849 53.7891 15.9854H51.6665ZM63.7969 17.144H58.6904V16.9697C59.1929 16.2725 59.4595 15.1548 59.562 13.8936L59.8696 9.68945H63.7969V17.144ZM57.3984 21.9224V19H65.6938V21.9224H67.7344V17.144H65.9912V7.8335H57.9521L57.542 13.7808C57.4395 15.2881 57.0703 16.6416 56.25 17.144H55.3477V21.9224H57.3984ZM72.1538 19L77.3115 11.2788H77.4756V19H79.6597V7.8335H77.4756L72.3281 15.5137H72.1538V7.8335H69.9697V19H72.1538ZM91.3799 7.8335H82.1411V9.68945H85.6582V19H87.8628V9.68945H91.3799V7.8335ZM98.0859 9.49463C99.7163 9.49463 100.783 10.6328 100.834 12.3862H95.1943C95.3174 10.6431 96.4556 9.49463 98.0859 9.49463ZM100.824 15.9854C100.414 16.8569 99.501 17.3389 98.168 17.3389C96.4043 17.3389 95.2661 16.0981 95.1943 14.1396V14.0166H103.08V13.2476C103.08 9.74072 101.203 7.61816 98.0962 7.61816C94.9482 7.61816 92.9487 9.88428 92.9487 13.4526C92.9487 17.021 94.9072 19.2153 98.1064 19.2153C100.66 19.2153 102.444 17.9849 102.946 15.9854H100.824ZM115.671 19.2051C118.43 19.2051 120.234 17.8003 120.234 15.6777C120.234 14.437 119.496 13.5039 118.05 13.1655V12.9912C119.106 12.7349 119.814 11.8223 119.814 10.7046C119.814 8.81787 118.296 7.61816 115.641 7.61816C113.118 7.61816 111.467 8.8999 111.242 10.8892H113.364C113.508 10.0073 114.41 9.48438 115.641 9.48438C116.994 9.48438 117.65 10.1099 117.65 10.9302C117.65 11.8633 116.974 12.376 115.641 12.376H114V14.0884H115.671C117.23 14.0884 118.04 14.6011 118.04 15.6777C118.04 16.6826 117.138 17.3286 115.671 17.3286C114.379 17.3286 113.457 16.8159 113.241 15.8315H111.047C111.252 18.0874 113.231 19.2051 115.671 19.2051ZM126.766 17.3286C125.566 17.3286 124.695 16.7441 124.695 15.7393C124.695 14.7549 125.392 14.2319 126.93 14.1294L129.658 13.9551V14.8882C129.658 16.2725 128.427 17.3286 126.766 17.3286ZM126.202 19.1846C127.668 19.1846 128.889 18.5488 129.555 17.4312H129.729V19H131.852V11.3711C131.852 9.0127 130.273 7.61816 127.474 7.61816C124.941 7.61816 123.136 8.84863 122.911 10.7661H125.043C125.29 9.97656 126.141 9.52539 127.371 9.52539C128.878 9.52539 129.658 10.1919 129.658 11.3711V12.335L126.633 12.5093C123.977 12.6733 122.48 13.832 122.48 15.8418C122.48 17.8823 124.049 19.1846 126.202 19.1846ZM144.936 19.2051C147.694 19.2051 149.499 17.8003 149.499 15.6777C149.499 14.437 148.761 13.5039 147.315 13.1655V12.9912C148.371 12.7349 149.079 11.8223 149.079 10.7046C149.079 8.81787 147.561 7.61816 144.905 7.61816C142.383 7.61816 140.732 8.8999 140.506 10.8892H142.629C142.772 10.0073 143.675 9.48438 144.905 9.48438C146.259 9.48438 146.915 10.1099 146.915 10.9302C146.915 11.8633 146.238 12.376 144.905 12.376H143.265V14.0884H144.936C146.495 14.0884 147.305 14.6011 147.305 15.6777C147.305 16.6826 146.402 17.3286 144.936 17.3286C143.644 17.3286 142.721 16.8159 142.506 15.8315H140.312C140.517 18.0874 142.496 19.2051 144.936 19.2051ZM159.445 17.144H154.339V16.9697C154.841 16.2725 155.108 15.1548 155.21 13.8936L155.518 9.68945H159.445V17.144ZM153.047 21.9224V19H161.342V21.9224H163.383V17.144H161.64V7.8335H153.601L153.19 13.7808C153.088 15.2881 152.719 16.6416 151.898 17.144H150.996V21.9224H153.047ZM170.345 19.2153C173.606 19.2153 175.605 17.0312 175.605 13.4116C175.605 9.8125 173.596 7.61816 170.345 7.61816C167.084 7.61816 165.075 9.8125 165.075 13.4116C165.075 17.0312 167.074 19.2153 170.345 19.2153ZM170.345 17.2568C168.428 17.2568 167.351 15.8521 167.351 13.4116C167.351 10.9917 168.428 9.57666 170.345 9.57666C172.252 9.57666 173.339 10.9917 173.339 13.4116C173.339 15.8418 172.252 17.2568 170.345 17.2568ZM184.25 7.64893C182.732 7.64893 181.419 8.40771 180.743 9.6792H180.579V7.8335H178.456V22.7119H180.661V17.3081H180.835C181.419 18.4873 182.681 19.1846 184.27 19.1846C187.09 19.1846 188.884 16.9595 188.884 13.4116C188.884 9.86377 187.09 7.64893 184.25 7.64893ZM183.624 17.2056C181.778 17.2056 180.62 15.7495 180.62 13.4219C180.62 11.084 181.778 9.62793 183.634 9.62793C185.5 9.62793 186.618 11.0532 186.618 13.4116C186.618 15.7803 185.5 17.2056 183.624 17.2056ZM196.472 19.2153C199.733 19.2153 201.732 17.0312 201.732 13.4116C201.732 9.8125 199.723 7.61816 196.472 7.61816C193.211 7.61816 191.202 9.8125 191.202 13.4116C191.202 17.0312 193.201 19.2153 196.472 19.2153ZM196.472 17.2568C194.555 17.2568 193.478 15.8521 193.478 13.4116C193.478 10.9917 194.555 9.57666 196.472 9.57666C198.379 9.57666 199.466 10.9917 199.466 13.4116C199.466 15.8418 198.379 17.2568 196.472 17.2568ZM209.197 9.52539C210.366 9.52539 210.92 10.0894 210.92 10.9609C210.92 11.9043 210.284 12.417 208.951 12.417H206.767V9.52539H209.197ZM209.105 14.0371C210.592 14.0371 211.381 14.5601 211.381 15.6777C211.381 16.7339 210.684 17.3081 209.382 17.3081H206.767V14.0371H209.105ZM204.583 19H209.669C212.12 19 213.586 17.7285 213.586 15.7803C213.586 14.4268 212.643 13.3706 211.197 13.2065V13.0322C212.284 12.8271 213.083 11.8018 213.083 10.6738C213.083 8.94092 211.802 7.8335 209.618 7.8335H204.583V19ZM220.743 13.104C222.076 13.104 222.948 13.9038 222.948 15.124C222.948 16.334 222.086 17.144 220.743 17.144H218.703V13.104H220.743ZM216.498 19H220.907C223.491 19 225.142 17.4927 225.142 15.124C225.142 12.7656 223.491 11.2583 220.907 11.2583H218.703V7.8335H216.498V19ZM232.412 9.49463C234.042 9.49463 235.109 10.6328 235.16 12.3862H229.521C229.644 10.6431 230.782 9.49463 232.412 9.49463ZM235.15 15.9854C234.74 16.8569 233.827 17.3389 232.494 17.3389C230.73 17.3389 229.592 16.0981 229.521 14.1396V14.0166H237.406V13.2476C237.406 9.74072 235.529 7.61816 232.422 7.61816C229.274 7.61816 227.275 9.88428 227.275 13.4526C227.275 17.021 229.233 19.2153 232.433 19.2153C234.986 19.2153 236.77 17.9849 237.272 15.9854H235.15ZM242.389 19V11.2993H242.584L245.855 18.5488H247.475L250.746 11.2993H250.941V19H253.094V7.8335H250.397L246.788 15.8213H246.614L243.015 7.8335H240.246V19H242.389Z" fill="#5D85AC"/>
<defs>
<filter id="filter0_i_2297_5766" x="0" y="323" width="270" height="48" filterUnits="userSpaceOnUse" color-interpolation-filters="sRGB">
<feFlood flood-opacity="0" result="BackgroundImageFix"/>
<feBlend mode="normal" in="SourceGraphic" in2="BackgroundImageFix" result="shape"/>
<feColorMatrix in="SourceAlpha" type="matrix" values="0 0 0 0 0 0 0 0 0 0 0 0 0 0 0 0 0 0 127 0" result="hardAlpha"/>
<feOffset dy="-1"/>
<feComposite in2="hardAlpha" operator="arithmetic" k2="-1" k3="1"/>
<feColorMatrix type="matrix" values="0 0 0 0 0 0 0 0 0 0 0 0 0 0 0 0 0 0 0.12 0"/>
<feBlend mode="normal" in2="shape" result="effect1_innerShadow_2297_5766"/>
</filter>
<filter id="filter1_i_2297_5766" x="0" y="371" width="270" height="48" filterUnits="userSpaceOnUse" color-interpolation-filters="sRGB">
<feFlood flood-opacity="0" result="BackgroundImageFix"/>
<feBlend mode="normal" in="SourceGraphic" in2="BackgroundImageFix" result="shape"/>
<feColorMatrix in="SourceAlpha" type="matrix" values="0 0 0 0 0 0 0 0 0 0 0 0 0 0 0 0 0 0 127 0" result="hardAlpha"/>
<feOffset dy="-1"/>
<feComposite in2="hardAlpha" operator="arithmetic" k2="-1" k3="1"/>
<feColorMatrix type="matrix" values="0 0 0 0 0 0 0 0 0 0 0 0 0 0 0 0 0 0 0.12 0"/>
<feBlend mode="normal" in2="shape" result="effect1_innerShadow_2297_5766"/>
</filter>
<filter id="filter2_i_2297_5766" x="0" y="419" width="270" height="48" filterUnits="userSpaceOnUse" color-interpolation-filters="sRGB">
<feFlood flood-opacity="0" result="BackgroundImageFix"/>
<feBlend mode="normal" in="SourceGraphic" in2="BackgroundImageFix" result="shape"/>
<feColorMatrix in="SourceAlpha" type="matrix" values="0 0 0 0 0 0 0 0 0 0 0 0 0 0 0 0 0 0 127 0" result="hardAlpha"/>
<feOffset dy="-1"/>
<feComposite in2="hardAlpha" operator="arithmetic" k2="-1" k3="1"/>
<feColorMatrix type="matrix" values="0 0 0 0 0 0 0 0 0 0 0 0 0 0 0 0 0 0 0.12 0"/>
<feBlend mode="normal" in2="shape" result="effect1_innerShadow_2297_5766"/>
</filter>
</defs>
</svg>
