<svg width="147" height="487" viewBox="0 0 147 487" fill="none" xmlns="http://www.w3.org/2000/svg">
<path d="M66.0431 4.0011C78.1265 4.02233 88.1151 12.9733 89.7619 24.6071C89.7376 32.0944 88.55 35.6695 88.55 35.6695C88.55 35.6695 88 53.33 78.1 62.7122C78.1 62.7122 77.55 71.5424 79.2 74.8538C80.85 78.1651 84.15 83.6841 88.55 84.7878C89.9169 85.1308 92.1863 85.2606 94.7809 85.4091C100.538 85.7385 107.896 86.1595 110.55 89.203C114.4 93.6181 118.25 106.312 117.7 116.246C117.15 126.18 117.755 161.33 117.755 161.33C117.755 161.33 122.65 174.746 123.75 184.128C124.85 193.51 129.25 249.803 129.25 249.803L130.9 262.497C130.9 262.497 132 264.153 132 265.256C132 266.36 127.05 277.95 127.05 277.95L117.7 285.124C117.389 284.628 117.225 284.055 117.225 283.469C117.225 282.883 117.389 282.309 117.7 281.813C118.382 280.787 112.75 281.813 112.75 281.813C112.75 281.813 112.75 279.054 113.85 278.502L117.15 276.846L116.6 275.742L115.88 275.499C115.768 275.463 115.665 275.402 115.581 275.321C115.496 275.239 115.43 275.139 115.39 275.029C115.349 274.918 115.334 274.8 115.345 274.682C115.357 274.565 115.395 274.452 115.456 274.352L116.6 272.431L117.15 264.153C117.15 264.153 116.05 259.186 116.6 255.874C116.864 254.285 117.508 252.059 118.107 249.991C118.755 247.752 119.35 245.697 119.35 244.836C119.35 243.181 108.9 201.789 105.6 196.822C102.3 191.855 100.1 180.817 100.1 176.402C100.1 171.987 99 145.496 98.45 142.185C98.45 142.185 96.8 166.832 96.8 174.194C96.8 177.181 98.7503 183.689 101.356 192.386C106.937 211.012 115.525 239.673 114.4 265.256C114.236 268.966 111.175 283.64 107.824 299.7C103.638 319.768 99 341.998 99 347.703C99 357.974 98.351 373.427 97.9 381.154C96.9376 397.571 89.2388 427.085 86.2229 438.646C85.7918 440.299 85.4564 441.585 85.25 442.413C83.886 447.872 84.0235 458.667 84.117 462.221C84.1358 462.983 84.3079 463.734 84.623 464.428C85.9815 467.42 89.848 475.924 90.75 477.734C91.85 479.942 86.35 484.909 81.95 485.461C81.1697 485.566 80.3832 485.617 79.596 485.616C78.9015 485.601 78.2405 485.314 77.755 484.815C77.2695 484.317 76.9984 483.647 77 482.95V482.15H75.35C75.35 482.15 75.35 486.565 72.05 486.565C68.75 486.565 67.65 484.357 67.65 482.15C67.65 479.942 68.75 470.56 68.75 470.56C68.75 470.56 67.1 468.352 67.1 466.697C67.1 465.041 68.2 460.626 68.2 460.626L68.75 455.107C68.7481 453.618 68.9329 452.135 69.3 450.692C70.0676 448.356 70.62 445.954 70.95 443.517C71.969 432.952 70.8903 417.755 70.0458 405.857C69.5228 398.49 69.0897 392.387 69.3 389.432C69.6054 385.142 70.345 381.532 70.9838 378.414C71.4954 375.917 71.9424 373.735 72.05 371.771C72.3404 366.527 71.251 361.59 70.1578 356.635C69.1804 352.206 68.2 347.762 68.2 343.073C68.2 337.381 67.8389 316.653 67.5305 298.948C67.3006 285.752 67.1 274.236 67.1 271.879C67.1 266.36 69.3 259.737 69.3 259.737C68.2165 260.01 67.1129 260.194 66 260.289C64.8871 260.194 63.7835 260.01 62.7 259.737C62.7 259.737 64.9 266.36 64.9 271.879C64.9 274.236 64.6994 285.752 64.4695 298.948C64.1611 316.653 63.8 337.381 63.8 343.073C63.8 347.762 62.8196 352.206 61.8422 356.635C60.749 361.59 59.6596 366.527 59.95 371.771C60.0576 373.735 60.5046 375.917 61.0162 378.414C61.655 381.532 62.3946 385.141 62.7 389.432C62.9103 392.387 62.4772 398.49 61.9542 405.857C61.1097 417.755 60.031 432.952 61.05 443.517C61.3801 445.954 61.9324 448.356 62.7 450.692C63.0671 452.135 63.2519 453.618 63.25 455.107L63.8 460.626C63.8 460.626 64.9 465.041 64.9 466.697C64.9 468.352 63.25 470.56 63.25 470.56C63.25 470.56 64.35 479.942 64.35 482.15C64.35 484.357 63.25 486.565 59.95 486.565C56.65 486.565 56.65 482.15 56.65 482.15H55V482.95C55.0016 483.647 54.7305 484.317 54.245 484.815C53.7595 485.314 53.0985 485.601 52.404 485.616C51.6168 485.617 50.8303 485.566 50.05 485.461C45.65 484.909 40.15 479.942 41.25 477.734C42.152 475.924 46.0185 467.42 47.377 464.428C47.6921 463.734 47.8642 462.983 47.883 462.221C47.9765 458.667 48.114 447.872 46.75 442.413C46.5436 441.585 46.2082 440.299 45.7771 438.646C42.7612 427.085 35.0624 397.571 34.1 381.154C33.649 373.427 33 357.974 33 347.703C33 341.998 28.3623 319.77 24.1758 299.704C20.8253 283.645 17.7638 268.971 17.6 265.262C16.4752 239.679 25.063 211.018 30.6439 192.392C33.2497 183.695 35.2 177.186 35.2 174.2C35.2 166.838 33.55 142.19 33.55 142.19C33 145.501 31.9 171.992 31.9 176.407C31.9 180.822 29.7 191.86 26.4 196.827C23.1 201.794 12.65 243.186 12.65 244.842C12.65 245.703 13.2447 247.757 13.8931 249.997C14.4917 252.064 15.136 254.29 15.4 255.88C15.95 259.191 14.85 264.158 14.85 264.158L15.4 272.436L16.544 274.357C16.6055 274.457 16.6434 274.571 16.6549 274.688C16.6664 274.805 16.6512 274.924 16.6104 275.034C16.5696 275.145 16.5043 275.245 16.4194 275.326C16.3346 275.408 16.2323 275.469 16.1205 275.505L15.4 275.748L14.85 276.852L18.15 278.507C19.25 279.059 19.25 281.819 19.25 281.819C19.25 281.819 13.618 280.792 14.3 281.819C14.6105 282.315 14.7752 282.889 14.7752 283.474C14.7752 284.06 14.6105 284.634 14.3 285.13L4.95 277.955C4.95 277.955 0 266.366 0 265.262C0 264.158 1.1 262.502 1.1 262.502L2.75 249.809C2.75 249.809 7.15 193.516 8.25 184.134C9.35 174.752 14.245 161.335 14.245 161.335C14.245 161.335 14.85 126.185 14.3 116.251C13.75 106.317 17.6 93.6236 21.45 89.2085C24.1039 86.165 31.4621 85.744 37.2191 85.4146C39.8137 85.2661 42.0831 85.1363 43.45 84.7934C47.85 83.6896 51.15 78.1707 52.8 74.8593C54.45 71.548 53.9 62.7177 53.9 62.7177C44 53.3355 43.45 35.675 43.45 35.675C43.45 35.675 42.2618 32.0981 42.2381 24.6071C43.8846 12.9751 53.8706 4.02496 65.9516 4.00111C65.9678 4.01786 65.9839 4.03471 66 4.05165V4.04613C66.0143 4.03105 66.0287 4.01604 66.0431 4.0011Z" fill="#B8C9DB"/>
<path d="M109.291 221.712C109.291 221.712 75.35 250.692 72.655 254.329C69.96 257.966 69.3 260.174 69.3 260.174C68.2169 260.448 67.1132 260.632 66 260.726C64.8868 260.632 63.7831 260.448 62.7 260.174C62.7 260.174 62.04 257.966 59.345 254.329C56.65 250.692 22.7095 221.712 22.7095 221.712C23.8095 217.01 24.9865 212.463 26.18 208.163C26.18 208.163 53.504 214.643 66 214.643C78.496 214.643 105.82 208.163 105.82 208.163C107.013 212.479 108.196 217.01 109.291 221.712ZM103.504 112.73C103.504 112.73 99.6215 89.7882 99.803 86.1954C98.8955 86.1071 97.9825 86.0409 97.0915 85.9857C97.0915 85.9857 99.572 108.061 100.089 111.279C85.668 107.283 69.3385 114.038 68.0735 129.122C68.0206 129.636 67.7793 130.113 67.3963 130.46C67.0133 130.807 66.5158 130.999 66 130.999C65.4842 130.999 64.9867 130.807 64.6037 130.46C64.2207 130.113 63.9794 129.636 63.9265 129.122C62.6615 114.033 46.3265 107.283 31.911 111.279C32.428 108.056 34.9085 85.9857 34.9085 85.9857C34.0175 86.0409 33.1045 86.1071 32.197 86.1954C32.3785 89.7882 28.4955 112.73 28.4955 112.73C25.1664 118.207 23.7571 124.642 24.4915 131.015C25.751 141.456 31.35 145.391 33.209 146.423L33.814 146.727C48.7465 146.727 56.0175 142.864 58.388 139.85C58.7226 139.429 59.1475 139.088 59.6312 138.854C60.1149 138.62 60.645 138.499 61.182 138.498H70.807C71.344 138.499 71.8741 138.62 72.3578 138.854C72.8415 139.088 73.2664 139.429 73.601 139.85C75.9715 142.842 83.2425 146.727 98.175 146.727L98.78 146.423C100.639 145.391 106.238 141.456 107.497 131.015C108.235 124.644 106.83 118.208 103.504 112.73V112.73Z" fill="#FCFCFD"/>
<path d="M55.3575 18.6439C55.3575 18.6439 47.3 32.5129 47.4375 39.5275C47.575 46.542 47.1295 55.8855 52.096 62.431L51.3975 66.3273L48.059 65.7037L45.8865 67.9113L38.1205 62.1219C38.1205 62.1219 33.308 46.382 38.1205 33.6057C41.074 12.8822 54.8955 -3.79601 64.5205 1.34762C64.5205 1.34762 66.891 -1.35113 72.1325 0.889552C87.0375 7.26942 96.2005 23.7875 95.8925 41.5529C103.812 56.8238 90.9425 66.6419 90.9425 66.6419L85.5085 66.951C85.5085 66.951 85.5085 76.1455 77.2585 77.7018L77.88 74.2746C77.88 74.2746 80.08 75.0527 80.982 70.0691C81.884 65.0856 81.136 40.1511 76.791 32.982C73.2325 27.121 61.8805 18.3348 55.3575 18.6439Z" fill="#FCFCFD"/>
<g filter="url(#filter0_ddd_1514_4046)">
<circle cx="103" cy="369.001" r="20" fill="white" fill-opacity="0.7"/>
</g>
<g opacity="0.72">
<path d="M103 370.001V364.001M103 374.001V372.001M112 369.001C112 373.972 107.971 378.001 103 378.001C98.0294 378.001 94 373.972 94 369.001C94 364.03 98.0294 360.001 103 360.001C107.971 360.001 112 364.03 112 369.001Z" stroke="#5D85AC" stroke-width="2"/>
</g>
<defs>
<filter id="filter0_ddd_1514_4046" x="59" y="326.001" width="88" height="88" filterUnits="userSpaceOnUse" color-interpolation-filters="sRGB">
<feFlood flood-opacity="0" result="BackgroundImageFix"/>
<feColorMatrix in="SourceAlpha" type="matrix" values="0 0 0 0 0 0 0 0 0 0 0 0 0 0 0 0 0 0 127 0" result="hardAlpha"/>
<feOffset dy="1"/>
<feGaussianBlur stdDeviation="12"/>
<feColorMatrix type="matrix" values="0 0 0 0 0.3 0 0 0 0 0.7 0 0 0 0 0.486667 0 0 0 0.21 0"/>
<feBlend mode="normal" in2="BackgroundImageFix" result="effect1_dropShadow_1514_4046"/>
<feColorMatrix in="SourceAlpha" type="matrix" values="0 0 0 0 0 0 0 0 0 0 0 0 0 0 0 0 0 0 127 0" result="hardAlpha"/>
<feOffset dy="1"/>
<feGaussianBlur stdDeviation="1.5"/>
<feColorMatrix type="matrix" values="0 0 0 0 0.3 0 0 0 0 0.7 0 0 0 0 0.486667 0 0 0 0.12 0"/>
<feBlend mode="normal" in2="effect1_dropShadow_1514_4046" result="effect2_dropShadow_1514_4046"/>
<feColorMatrix in="SourceAlpha" type="matrix" values="0 0 0 0 0 0 0 0 0 0 0 0 0 0 0 0 0 0 127 0" result="hardAlpha"/>
<feMorphology radius="1" operator="dilate" in="SourceAlpha" result="effect3_dropShadow_1514_4046"/>
<feOffset/>
<feColorMatrix type="matrix" values="0 0 0 0 0.301961 0 0 0 0 0.698039 0 0 0 0 0.486275 0 0 0 0.08 0"/>
<feBlend mode="normal" in2="effect2_dropShadow_1514_4046" result="effect3_dropShadow_1514_4046"/>
<feBlend mode="normal" in="SourceGraphic" in2="effect3_dropShadow_1514_4046" result="shape"/>
</filter>
</defs>
</svg>
