<svg width="208" height="48" viewBox="0 0 208 48" fill="none" xmlns="http://www.w3.org/2000/svg">
<path d="M76.078 24L74.824 20.15H68.092L66.816 24H64.374L69.61 8.6H73.372L78.608 24H76.078ZM71.458 9.942L68.708 18.258H74.186L71.458 9.942ZM95.9946 24H93.0686L87.8326 17.18H85.7426V24H83.2786V8.6H85.7426V15.266H87.8106L92.6726 8.6H95.5326L89.7246 16.058L95.9946 24ZM111.006 24L109.752 20.15H103.02L101.744 24H99.3017L104.538 8.6H108.3L113.536 24H111.006ZM106.386 9.942L103.636 18.258H109.114L106.386 9.942ZM129.47 21.976H130.878V27.586H128.568V24H118.888V27.586H116.6V21.976H117.722C118.646 19.996 119.226 15.5373 119.46 8.6H129.47V21.976ZM127.006 21.976V10.624H121.682C121.536 13.704 121.301 16.2487 120.978 18.258C120.714 19.8127 120.392 21.052 120.01 21.976H127.006ZM135.509 24V8.6H146.179V10.536H137.973V15.244H144.441V17.092H137.973V22.064H146.487V24H135.509ZM164.08 8.6H168.348V24H165.972L165.994 9.986L161.704 24H158.36L154.07 10.03V24H151.716V8.6H156.028L160.054 22.592L164.08 8.6ZM183.342 8.6H187.17V24H184.772V10.338L178.282 24H174.454V8.6H176.852V22.262L183.342 8.6ZM204.525 8.6V24H202.061V17.818H198.915L194.977 24H192.029L196.385 17.73C195.197 17.5393 194.243 17.0773 193.525 16.344C192.806 15.6107 192.447 14.584 192.447 13.264C192.447 11.6947 192.953 10.5287 193.965 9.766C194.991 8.98867 196.275 8.6 197.815 8.6H204.525ZM202.061 15.97V10.58H198.079C197.111 10.58 196.341 10.8073 195.769 11.262C195.197 11.7167 194.911 12.384 194.911 13.264C194.911 14.144 195.197 14.8187 195.769 15.288C196.341 15.7427 197.111 15.97 198.079 15.97H202.061Z" fill="#1A2632"/>
<path d="M68.108 35.333C68.758 35.437 69.278 35.684 69.668 36.074C70.058 36.4553 70.253 36.9797 70.253 37.647C70.253 38.453 69.9843 39.0727 69.447 39.506C68.9097 39.9393 68.2077 40.156 67.341 40.156C65.4863 40.156 64.4723 39.1983 64.299 37.283L65.586 37.218C65.6813 38.4833 66.2663 39.116 67.341 39.116C67.8437 39.116 68.2293 38.9773 68.498 38.7C68.7667 38.4227 68.901 38.0153 68.901 37.478C68.901 36.4033 68.3723 35.866 67.315 35.866H66.47V34.878H67.25C67.718 34.878 68.0733 34.7437 68.316 34.475C68.5673 34.1977 68.693 33.8207 68.693 33.344C68.693 32.8413 68.5673 32.4557 68.316 32.187C68.0733 31.9183 67.7483 31.784 67.341 31.784C66.9163 31.784 66.5567 31.9313 66.262 32.226C65.9673 32.512 65.794 32.954 65.742 33.552L64.481 33.448C64.559 32.5293 64.845 31.849 65.339 31.407C65.8417 30.965 66.509 30.744 67.341 30.744C68.121 30.744 68.7623 30.9477 69.265 31.355C69.7763 31.7537 70.032 32.3387 70.032 33.11C70.032 33.7167 69.8673 34.2107 69.538 34.592C69.2173 34.9733 68.7407 35.2203 68.108 35.333ZM76.9843 38.895H77.6733V42.119H76.4253V40H71.9403V42.119H70.6923V38.895H71.2383C71.6889 37.5343 71.9663 34.8693 72.0703 30.9H76.9843V38.895ZM72.9023 36.646C72.7723 37.5907 72.6206 38.3403 72.4473 38.895H75.6453V32.005H73.2403C73.1709 33.7557 73.0583 35.3027 72.9023 36.646ZM79.1778 38.882C78.5885 38.0327 78.2938 36.8887 78.2938 35.45C78.2938 34.0113 78.5885 32.8673 79.1778 32.018C79.7758 31.1687 80.6295 30.744 81.7388 30.744C82.8395 30.744 83.6845 31.1687 84.2738 32.018C84.8718 32.8673 85.1708 34.0113 85.1708 35.45C85.1708 36.8887 84.8718 38.0327 84.2738 38.882C83.6845 39.7313 82.8395 40.156 81.7388 40.156C80.6295 40.156 79.7758 39.7313 79.1778 38.882ZM80.1788 32.837C79.8148 33.4957 79.6328 34.3667 79.6328 35.45C79.6328 36.5333 79.8148 37.4087 80.1788 38.076C80.5515 38.7347 81.0715 39.064 81.7388 39.064C82.3975 39.064 82.9088 38.7347 83.2728 38.076C83.6455 37.4087 83.8318 36.5333 83.8318 35.45C83.8318 34.3667 83.6455 33.4957 83.2728 32.837C82.9088 32.1697 82.3975 31.836 81.7388 31.836C81.0715 31.836 80.5515 32.1697 80.1788 32.837ZM89.7266 30.9C90.4806 30.9 91.1133 31.1297 91.6246 31.589C92.1446 32.0397 92.4046 32.7373 92.4046 33.682C92.4046 34.6267 92.1576 35.32 91.6636 35.762C91.1696 36.1953 90.5369 36.412 89.7656 36.412H87.9976V40H86.6586V30.9H89.7266ZM89.5316 35.372C89.9909 35.372 90.3593 35.2333 90.6366 34.956C90.9226 34.67 91.0656 34.2453 91.0656 33.682C91.0656 33.1273 90.9226 32.707 90.6366 32.421C90.3506 32.135 89.9823 31.992 89.5316 31.992H87.9976V35.372H89.5316ZM94.1964 38.882C93.607 38.0327 93.3124 36.8887 93.3124 35.45C93.3124 34.0113 93.607 32.8673 94.1964 32.018C94.7944 31.1687 95.648 30.744 96.7574 30.744C97.858 30.744 98.703 31.1687 99.2924 32.018C99.8904 32.8673 100.189 34.0113 100.189 35.45C100.189 36.8887 99.8904 38.0327 99.2924 38.882C98.703 39.7313 97.858 40.156 96.7574 40.156C95.648 40.156 94.7944 39.7313 94.1964 38.882ZM95.1974 32.837C94.8334 33.4957 94.6514 34.3667 94.6514 35.45C94.6514 36.5333 94.8334 37.4087 95.1974 38.076C95.57 38.7347 96.09 39.064 96.7574 39.064C97.416 39.064 97.9274 38.7347 98.2914 38.076C98.664 37.4087 98.8504 36.5333 98.8504 35.45C98.8504 34.3667 98.664 33.4957 98.2914 32.837C97.9274 32.1697 97.416 31.836 96.7574 31.836C96.09 31.836 95.57 32.1697 95.1974 32.837ZM105.33 35.32C106.015 35.398 106.569 35.632 106.994 36.022C107.419 36.4033 107.631 36.932 107.631 37.608C107.631 38.362 107.375 38.9513 106.864 39.376C106.361 39.792 105.724 40 104.953 40H101.677V30.9H104.888C105.625 30.9 106.227 31.0907 106.695 31.472C107.172 31.8533 107.41 32.421 107.41 33.175C107.41 34.4577 106.717 35.1727 105.33 35.32ZM106.071 33.383C106.071 32.9323 105.95 32.5813 105.707 32.33C105.473 32.07 105.139 31.94 104.706 31.94H103.016V34.878H104.745C105.161 34.878 105.486 34.7437 105.72 34.475C105.954 34.2063 106.071 33.8423 106.071 33.383ZM104.758 38.96C105.243 38.96 105.62 38.8257 105.889 38.557C106.158 38.2883 106.292 37.9113 106.292 37.426C106.292 36.9407 106.162 36.5593 105.902 36.282C105.651 36.0047 105.295 35.866 104.836 35.866H103.016V38.96H104.758ZM109.405 38.882C108.816 38.0327 108.521 36.8887 108.521 35.45C108.521 34.0113 108.816 32.8673 109.405 32.018C110.003 31.1687 110.857 30.744 111.966 30.744C113.067 30.744 113.912 31.1687 114.501 32.018C115.099 32.8673 115.398 34.0113 115.398 35.45C115.398 36.8887 115.099 38.0327 114.501 38.882C113.912 39.7313 113.067 40.156 111.966 40.156C110.857 40.156 110.003 39.7313 109.405 38.882ZM110.406 32.837C110.042 33.4957 109.86 34.3667 109.86 35.45C109.86 36.5333 110.042 37.4087 110.406 38.076C110.779 38.7347 111.299 39.064 111.966 39.064C112.625 39.064 113.136 38.7347 113.5 38.076C113.873 37.4087 114.059 36.5333 114.059 35.45C114.059 34.3667 113.873 33.4957 113.5 32.837C113.136 32.1697 112.625 31.836 111.966 31.836C111.299 31.836 110.779 32.1697 110.406 32.837ZM121.748 30.9V32.005H118.225V40H116.886V30.9H121.748ZM123.078 38.882C122.489 38.0327 122.194 36.8887 122.194 35.45C122.194 34.0113 122.489 32.8673 123.078 32.018C123.676 31.1687 124.53 30.744 125.639 30.744C126.74 30.744 127.585 31.1687 128.174 32.018C128.772 32.8673 129.071 34.0113 129.071 35.45C129.071 36.8887 128.772 38.0327 128.174 38.882C127.585 39.7313 126.74 40.156 125.639 40.156C124.53 40.156 123.676 39.7313 123.078 38.882ZM124.079 32.837C123.715 33.4957 123.533 34.3667 123.533 35.45C123.533 36.5333 123.715 37.4087 124.079 38.076C124.452 38.7347 124.972 39.064 125.639 39.064C126.298 39.064 126.809 38.7347 127.173 38.076C127.546 37.4087 127.732 36.5333 127.732 35.45C127.732 34.3667 127.546 33.4957 127.173 32.837C126.809 32.1697 126.298 31.836 125.639 31.836C124.972 31.836 124.452 32.1697 124.079 32.837ZM138.493 38.895H139.182V42.119H137.934V40H133.449V42.119H132.201V38.895H132.747C133.198 37.5343 133.475 34.8693 133.579 30.9H138.493V38.895ZM134.411 36.646C134.281 37.5907 134.129 38.3403 133.956 38.895H137.154V32.005H134.749C134.68 33.7557 134.567 35.3027 134.411 36.646ZM140.687 38.882C140.097 38.0327 139.803 36.8887 139.803 35.45C139.803 34.0113 140.097 32.8673 140.687 32.018C141.285 31.1687 142.138 30.744 143.248 30.744C144.348 30.744 145.193 31.1687 145.783 32.018C146.381 32.8673 146.68 34.0113 146.68 35.45C146.68 36.8887 146.381 38.0327 145.783 38.882C145.193 39.7313 144.348 40.156 143.248 40.156C142.138 40.156 141.285 39.7313 140.687 38.882ZM141.688 32.837C141.324 33.4957 141.142 34.3667 141.142 35.45C141.142 36.5333 141.324 37.4087 141.688 38.076C142.06 38.7347 142.58 39.064 143.248 39.064C143.906 39.064 144.418 38.7347 144.782 38.076C145.154 37.4087 145.341 36.5333 145.341 35.45C145.341 34.3667 145.154 33.4957 144.782 32.837C144.418 32.1697 143.906 31.836 143.248 31.836C142.58 31.836 142.06 32.1697 141.688 32.837ZM148.576 30.9H153.646V40H152.307V31.992H149.759C149.673 34.7827 149.608 36.412 149.564 36.88C149.443 38.3707 149.161 39.324 148.719 39.74C148.477 39.9653 148.165 40.078 147.783 40.078C147.705 40.078 147.476 40.0607 147.094 40.026V38.947C147.285 38.9643 147.406 38.973 147.458 38.973C147.874 38.973 148.139 38.5223 148.251 37.621C148.373 36.711 148.468 34.9257 148.537 32.265C148.546 32.0743 148.55 31.9227 148.55 31.81C148.55 31.6973 148.555 31.5543 148.563 31.381C148.572 31.2077 148.576 31.0473 148.576 30.9ZM160.469 30.9V32.005H156.946V40H155.607V30.9H160.469ZM161.799 38.882C161.21 38.0327 160.915 36.8887 160.915 35.45C160.915 34.0113 161.21 32.8673 161.799 32.018C162.397 31.1687 163.251 30.744 164.36 30.744C165.461 30.744 166.306 31.1687 166.895 32.018C167.493 32.8673 167.792 34.0113 167.792 35.45C167.792 36.8887 167.493 38.0327 166.895 38.882C166.306 39.7313 165.461 40.156 164.36 40.156C163.251 40.156 162.397 39.7313 161.799 38.882ZM162.8 32.837C162.436 33.4957 162.254 34.3667 162.254 35.45C162.254 36.5333 162.436 37.4087 162.8 38.076C163.173 38.7347 163.693 39.064 164.36 39.064C165.019 39.064 165.53 38.7347 165.894 38.076C166.267 37.4087 166.453 36.5333 166.453 35.45C166.453 34.3667 166.267 33.4957 165.894 32.837C165.53 32.1697 165.019 31.836 164.36 31.836C163.693 31.836 163.173 32.1697 162.8 32.837ZM169.689 30.9H174.759V40H173.42V31.992H170.872C170.785 34.7827 170.72 36.412 170.677 36.88C170.555 38.3707 170.274 39.324 169.832 39.74C169.589 39.9653 169.277 40.078 168.896 40.078C168.818 40.078 168.588 40.0607 168.207 40.026V38.947C168.397 38.9643 168.519 38.973 168.571 38.973C168.987 38.973 169.251 38.5223 169.364 37.621C169.485 36.711 169.58 34.9257 169.65 32.265C169.658 32.0743 169.663 31.9227 169.663 31.81C169.663 31.6973 169.667 31.5543 169.676 31.381C169.684 31.2077 169.689 31.0473 169.689 30.9ZM178.058 38.947H182.127V40H176.719V30.9H181.971V31.953H178.058V34.878H181.139V35.866H178.058V38.947ZM188.736 30.9V32.005H186.461V40H185.122V32.005H182.834V30.9H188.736ZM194.289 30.9H196.2V40H194.913V32.109L191.871 40H189.96V30.9H191.26V38.791L194.289 30.9ZM200.294 30.9H203.57V40H202.218V36.308H200.866L199.02 40H197.434L199.605 36.256C199.015 36.1433 198.543 35.8747 198.188 35.45C197.832 35.0167 197.655 34.41 197.655 33.63C197.655 32.7113 197.906 32.0267 198.409 31.576C198.911 31.1253 199.54 30.9 200.294 30.9ZM200.528 35.294H202.218V31.979H200.528C200.06 31.979 199.687 32.122 199.41 32.408C199.132 32.6853 198.994 33.0927 198.994 33.63C198.994 34.176 199.132 34.592 199.41 34.878C199.687 35.1553 200.06 35.294 200.528 35.294Z" fill="#47698A"/>
<mask id="mask0_1984_4142" style="mask-type:alpha" maskUnits="userSpaceOnUse" x="0" y="0" width="48" height="48">
<rect width="48" height="48" rx="4" fill="#A3CCF5"/>
</mask>
<g mask="url(#mask0_1984_4142)">
<rect width="48" height="48" rx="4" fill="#A3CCF5"/>
<circle cx="-28" cy="-28" r="63" stroke="#5E4831" stroke-width="6"/>
<line x1="25" y1="8" x2="31" y2="8" stroke="#5E4831" stroke-width="4" stroke-linecap="round"/>
<circle cx="43" cy="93" r="61.5" fill="#119711" stroke="#5E4831" stroke-width="3"/>
<mask id="mask1_1984_4142" style="mask-type:alpha" maskUnits="userSpaceOnUse" x="13" y="13" width="30" height="30">
<circle cx="28" cy="28" r="15" fill="url(#paint0_radial_1984_4142)"/>
<circle cx="28" cy="28" r="15" fill="url(#paint1_radial_1984_4142)"/>
</mask>
<g mask="url(#mask1_1984_4142)">
<circle cx="28" cy="28" r="15" fill="url(#paint2_radial_1984_4142)"/>
<circle cx="28" cy="28" r="15" fill="url(#paint3_radial_1984_4142)"/>
<circle cx="22.375" cy="21.75" r="3.75" fill="white" fill-opacity="0.2"/>
<circle cx="24.875" cy="24.25" r="5.625" fill="white" fill-opacity="0.06"/>
<path fill-rule="evenodd" clip-rule="evenodd" d="M23.928 39.1687C30.1726 34.7549 34.25 27.4786 34.25 19.25C34.25 16.426 33.7698 13.7142 32.8865 11.1918C37.4325 13.7688 40.5 18.6512 40.5 24.25C40.5 32.5343 33.7843 39.25 25.5 39.25C24.9691 39.25 24.4447 39.2225 23.928 39.1687Z" fill="#EB4C4C" fill-opacity="0.2" style="mix-blend-mode:screen"/>
<circle cx="28" cy="28" r="15" stroke="#CA1616" stroke-width="6"/>
</g>
<path d="M7 7C7 6.44772 7.44772 6 8 6V6C12.9706 6 17 10.0294 17 15V21C17 21.5523 16.5523 22 16 22V22C11.0294 22 7 17.9706 7 13V7Z" fill="#119711" stroke="#095309" stroke-width="2" stroke-linejoin="round"/>
<rect width="48" height="48" rx="4" stroke="#38526C" stroke-width="6"/>
</g>
<defs>
<radialGradient id="paint0_radial_1984_4142" cx="0" cy="0" r="1" gradientUnits="userSpaceOnUse" gradientTransform="translate(22.375 23.6701) rotate(58.5455) scale(22.7569 23.9203)">
<stop stop-color="#F39595"/>
<stop offset="0.739583" stop-color="#EA4242"/>
<stop offset="1" stop-color="#B71515"/>
</radialGradient>
<radialGradient id="paint1_radial_1984_4142" cx="0" cy="0" r="1" gradientUnits="userSpaceOnUse" gradientTransform="translate(28.3125 27.7571) rotate(91.1745) scale(15.2461 15.2473)">
<stop offset="0.630208" stop-color="#E62121" stop-opacity="0"/>
<stop offset="0.848958" stop-color="#F5A7A7" stop-opacity="0.175634"/>
<stop offset="1" stop-color="white" stop-opacity="0.43"/>
</radialGradient>
<radialGradient id="paint2_radial_1984_4142" cx="0" cy="0" r="1" gradientUnits="userSpaceOnUse" gradientTransform="translate(22.375 23.6701) rotate(58.5455) scale(22.7569 23.9203)">
<stop stop-color="#F39595"/>
<stop offset="0.739583" stop-color="#EA4242"/>
<stop offset="1" stop-color="#B71515"/>
</radialGradient>
<radialGradient id="paint3_radial_1984_4142" cx="0" cy="0" r="1" gradientUnits="userSpaceOnUse" gradientTransform="translate(28.3125 27.7571) rotate(91.1745) scale(15.2461 15.2473)">
<stop offset="0.630208" stop-color="#E62121" stop-opacity="0"/>
<stop offset="0.848958" stop-color="#F5A7A7" stop-opacity="0.175634"/>
<stop offset="1" stop-color="white" stop-opacity="0.43"/>
</radialGradient>
</defs>
</svg>
