<svg width="79" height="13" viewBox="0 0 79 13" fill="none" xmlns="http://www.w3.org/2000/svg">
<path d="M7.686 10L6.888 7.55H2.604L1.792 10H0.238L3.57 0.199999H5.964L9.296 10H7.686ZM4.746 1.054L2.996 6.346H6.482L4.746 1.054ZM18.7693 10H16.9073L13.5753 5.66H12.2453V10H10.6773V0.199999H12.2453V4.442H13.5613L16.6553 0.199999H18.4753L14.7793 4.946L18.7693 10ZM26.7309 10L25.9329 7.55H21.6489L20.8369 10H19.2829L22.6149 0.199999H25.0089L28.3409 10H26.7309ZM23.7909 1.054L22.0409 6.346H25.5269L23.7909 1.054ZM36.8902 8.712H37.7862V12.282H36.3162V10H30.1562V12.282H28.7002V8.712H29.4142C30.0022 7.452 30.3709 4.61467 30.5202 0.199999H36.8902V8.712ZM35.3222 8.712V1.488H31.9342C31.8409 3.448 31.6916 5.06733 31.4862 6.346C31.3182 7.33533 31.1129 8.124 30.8702 8.712H35.3222ZM39.1421 10V0.199999H45.9321V1.432H40.7101V4.428H44.8261V5.604H40.7101V8.768H46.1281V10H39.1421ZM55.7328 0.199999H58.4488V10H56.9368L56.9508 1.082L54.2208 10H52.0928L49.3628 1.11V10H47.8648V0.199999H50.6088L53.1708 9.104L55.7328 0.199999ZM66.3997 0.199999H68.8357V10H67.3097V1.306L63.1797 10H60.7437V0.199999H62.2697V8.894L66.3997 0.199999ZM78.2883 0.199999V10H76.7203V6.066H74.7183L72.2123 10H70.3363L73.1083 6.01C72.3523 5.88867 71.7457 5.59467 71.2883 5.128C70.831 4.66133 70.6023 4.008 70.6023 3.168C70.6023 2.16933 70.9243 1.42733 71.5683 0.942C72.2217 0.447333 73.0383 0.199999 74.0183 0.199999H78.2883ZM76.7203 4.89V1.46H74.1863C73.5703 1.46 73.0803 1.60467 72.7163 1.894C72.3523 2.18333 72.1703 2.608 72.1703 3.168C72.1703 3.728 72.3523 4.15733 72.7163 4.456C73.0803 4.74533 73.5703 4.89 74.1863 4.89H76.7203Z" fill="#1A2632"/>
</svg>
