<svg width="208" height="48" viewBox="0 0 208 48" fill="none" xmlns="http://www.w3.org/2000/svg">
<path d="M76.078 24L74.824 20.15H68.092L66.816 24H64.374L69.61 8.6H73.372L78.608 24H76.078ZM68.708 18.258H74.186L71.458 9.92L68.708 18.258ZM82.6835 16.3C82.6835 13.9093 83.2775 11.988 84.4655 10.536C85.6535 9.06933 87.3182 8.336 89.4595 8.336C91.2195 8.336 92.6568 8.80533 93.7715 9.744C94.8862 10.668 95.5462 11.922 95.7515 13.506L93.4195 13.704C93.2728 12.692 92.8328 11.878 92.0995 11.262C91.3808 10.646 90.5008 10.338 89.4595 10.338C88.0515 10.338 86.9808 10.91 86.2475 12.054C85.5142 13.198 85.1475 14.6133 85.1475 16.3C85.1475 18.0307 85.5435 19.4607 86.3355 20.59C87.1275 21.7047 88.2275 22.262 89.6355 22.262C90.7502 22.262 91.6522 21.9247 92.3415 21.25C93.0308 20.5607 93.4415 19.6953 93.5735 18.654L95.9275 18.808C95.7222 20.48 95.0768 21.8073 93.9915 22.79C92.9208 23.7727 91.4688 24.264 89.6355 24.264C87.4208 24.264 85.7048 23.5453 84.4875 22.108C83.2848 20.656 82.6835 18.72 82.6835 16.3ZM111.961 24L110.707 20.15H103.975L102.699 24H100.257L105.493 8.6H109.255L114.491 24H111.961ZM104.591 18.258H110.069L107.341 9.92L104.591 18.258ZM119.962 24V8.6H125.814C128.014 8.6 129.708 9.282 130.896 10.646C132.084 11.9953 132.678 13.88 132.678 16.3C132.678 18.72 132.084 20.612 130.896 21.976C129.708 23.3253 128.014 24 125.814 24H119.962ZM122.426 21.976H125.572C127.068 21.976 128.212 21.47 129.004 20.458C129.81 19.446 130.214 18.06 130.214 16.3C130.214 14.54 129.81 13.154 129.004 12.142C128.212 11.13 127.068 10.624 125.572 10.624H122.426V21.976ZM138.731 24V8.6H149.401V10.536H141.195V15.244H147.663V17.092H141.195V22.064H149.709V24H138.731ZM168.102 8.6H172.37V24H169.994V10.03L165.726 24H162.382L158.092 10.03V24H155.738V8.6H160.05L164.076 22.592L168.102 8.6ZM189.154 8.6H191.838L186.052 17.752V24H183.588V17.774L177.802 8.6H180.618L184.82 15.772L189.154 8.6Z" fill="#1A2632"/>
<path d="M65.378 38.882C64.7887 38.0327 64.494 36.8887 64.494 35.45C64.494 34.0113 64.7887 32.8673 65.378 32.018C65.976 31.1687 66.8297 30.744 67.939 30.744C69.0397 30.744 69.8847 31.1687 70.474 32.018C71.072 32.8673 71.371 34.0113 71.371 35.45C71.371 36.8887 71.072 38.0327 70.474 38.882C69.8847 39.7313 69.0397 40.156 67.939 40.156C66.8297 40.156 65.976 39.7313 65.378 38.882ZM66.379 32.837C66.015 33.4957 65.833 34.3667 65.833 35.45C65.833 36.5333 66.015 37.4087 66.379 38.076C66.7517 38.7347 67.2717 39.064 67.939 39.064C68.5977 39.064 69.109 38.7347 69.473 38.076C69.8457 37.4087 70.032 36.5333 70.032 35.45C70.032 34.3667 69.8457 33.4957 69.473 32.837C69.109 32.1697 68.5977 31.836 67.939 31.836C67.2717 31.836 66.7517 32.1697 66.379 32.837ZM77.9808 32.005H74.1978V35.034H77.2268V36.1H74.1978V40H72.8588V30.9H77.9808V32.005ZM86.4267 30.9H87.7657V40H86.4267V35.918H83.0337V40H81.6947V30.9H83.0337V34.826H86.4267V30.9ZM91.0572 38.947H95.1262V40H89.7182V30.9H94.9702V31.953H91.0572V34.878H94.1382V35.866H91.0572V38.947ZM101.345 40L100.76 37.673H97.6786L97.0936 40H95.7546L98.2116 30.9H100.266L102.71 40H101.345ZM97.9386 36.646H100.487L99.2126 31.628L97.9386 36.646ZM105.174 38.895H108.697V40H103.835V30.9H105.174V38.895ZM114.011 30.9V32.005H111.736V40H110.397V32.005H108.109V30.9H114.011ZM119.968 30.9H121.307V40H119.968V35.918H116.575V40H115.236V30.9H116.575V34.826H119.968V30.9ZM127.822 30.9H129.278L126.522 36.282V40H125.183V36.295L122.414 30.9H123.948L125.846 35.138L127.822 30.9ZM133.98 38.895H137.503V40H132.641V30.9H133.98V38.895ZM138.744 38.882C138.155 38.0327 137.86 36.8887 137.86 35.45C137.86 34.0113 138.155 32.8673 138.744 32.018C139.342 31.1687 140.196 30.744 141.305 30.744C142.406 30.744 143.251 31.1687 143.84 32.018C144.438 32.8673 144.737 34.0113 144.737 35.45C144.737 36.8887 144.438 38.0327 143.84 38.882C143.251 39.7313 142.406 40.156 141.305 40.156C140.196 40.156 139.342 39.7313 138.744 38.882ZM139.745 32.837C139.381 33.4957 139.199 34.3667 139.199 35.45C139.199 36.5333 139.381 37.4087 139.745 38.076C140.118 38.7347 140.638 39.064 141.305 39.064C141.964 39.064 142.475 38.7347 142.839 38.076C143.212 37.4087 143.398 36.5333 143.398 35.45C143.398 34.3667 143.212 33.4957 142.839 32.837C142.475 32.1697 141.964 31.836 141.305 31.836C140.638 31.836 140.118 32.1697 139.745 32.837ZM151.152 30.9H152.426V40H150.32L147.512 31.901V40H146.225V30.9H148.331L151.152 38.999V30.9ZM157.287 35.333H160.407V39.298C159.436 39.87 158.47 40.156 157.508 40.156C156.355 40.156 155.467 39.727 154.843 38.869C154.219 38.011 153.907 36.8713 153.907 35.45C153.907 34.046 154.202 32.9107 154.791 32.044C155.38 31.1773 156.204 30.744 157.261 30.744C158.076 30.744 158.747 30.9997 159.276 31.511C159.805 32.0137 160.134 32.707 160.264 33.591L158.99 33.708C158.895 33.1273 158.695 32.6723 158.392 32.343C158.097 32.005 157.72 31.836 157.261 31.836C156.602 31.836 156.1 32.1827 155.753 32.876C155.415 33.5693 155.246 34.4273 155.246 35.45C155.246 36.516 155.445 37.387 155.844 38.063C156.243 38.7303 156.806 39.064 157.534 39.064C158.115 39.064 158.669 38.9167 159.198 38.622V36.256H157.287V35.333ZM163.255 38.947H167.324V40H161.916V30.9H167.168V31.953H163.255V34.878H166.336V35.866H163.255V38.947ZM173.257 30.9H174.635L172.308 40H170.293L167.979 30.9H169.383L171.32 39.168L173.257 30.9ZM175.792 40V30.9H177.131V40H175.792ZM184.254 30.9V32.005H181.979V40H180.64V32.005H178.352V30.9H184.254ZM190.042 30.9H191.498L188.742 36.282V40H187.403V36.295L184.634 30.9H186.168L188.066 35.138L190.042 30.9Z" fill="#47698A"/>
<mask id="mask0_1984_4164" style="mask-type:alpha" maskUnits="userSpaceOnUse" x="0" y="0" width="48" height="48">
<rect width="48" height="48" rx="4" fill="#A3CCF5"/>
</mask>
<g mask="url(#mask0_1984_4164)">
<rect width="48" height="48" rx="4" fill="#A3CCF5"/>
<circle cx="-28" cy="-28" r="63" stroke="#5E4831" stroke-width="6"/>
<line x1="25" y1="8" x2="31" y2="8" stroke="#5E4831" stroke-width="4" stroke-linecap="round"/>
<circle cx="43" cy="93" r="61.5" fill="#119711" stroke="#5E4831" stroke-width="3"/>
<mask id="mask1_1984_4164" style="mask-type:alpha" maskUnits="userSpaceOnUse" x="13" y="13" width="30" height="30">
<circle cx="28" cy="28" r="15" fill="url(#paint0_radial_1984_4164)"/>
<circle cx="28" cy="28" r="15" fill="url(#paint1_radial_1984_4164)"/>
</mask>
<g mask="url(#mask1_1984_4164)">
<circle cx="28" cy="28" r="15" fill="url(#paint2_radial_1984_4164)"/>
<circle cx="28" cy="28" r="15" fill="url(#paint3_radial_1984_4164)"/>
<circle cx="22.375" cy="21.75" r="3.75" fill="white" fill-opacity="0.2"/>
<circle cx="24.875" cy="24.25" r="5.625" fill="white" fill-opacity="0.06"/>
<path fill-rule="evenodd" clip-rule="evenodd" d="M23.928 39.1687C30.1726 34.7549 34.25 27.4786 34.25 19.25C34.25 16.426 33.7698 13.7142 32.8865 11.1918C37.4325 13.7688 40.5 18.6512 40.5 24.25C40.5 32.5343 33.7843 39.25 25.5 39.25C24.9691 39.25 24.4447 39.2225 23.928 39.1687Z" fill="#EB4C4C" fill-opacity="0.2" style="mix-blend-mode:screen"/>
<circle cx="28" cy="28" r="15" stroke="#CA1616" stroke-width="6"/>
</g>
<path d="M7 7C7 6.44772 7.44772 6 8 6V6C12.9706 6 17 10.0294 17 15V21C17 21.5523 16.5523 22 16 22V22C11.0294 22 7 17.9706 7 13V7Z" fill="#119711" stroke="#095309" stroke-width="2" stroke-linejoin="round"/>
<rect width="48" height="48" rx="4" stroke="#38526C" stroke-width="6"/>
</g>
<defs>
<radialGradient id="paint0_radial_1984_4164" cx="0" cy="0" r="1" gradientUnits="userSpaceOnUse" gradientTransform="translate(22.375 23.6701) rotate(58.5455) scale(22.7569 23.9203)">
<stop stop-color="#F39595"/>
<stop offset="0.739583" stop-color="#EA4242"/>
<stop offset="1" stop-color="#B71515"/>
</radialGradient>
<radialGradient id="paint1_radial_1984_4164" cx="0" cy="0" r="1" gradientUnits="userSpaceOnUse" gradientTransform="translate(28.3125 27.7571) rotate(91.1745) scale(15.2461 15.2473)">
<stop offset="0.630208" stop-color="#E62121" stop-opacity="0"/>
<stop offset="0.848958" stop-color="#F5A7A7" stop-opacity="0.175634"/>
<stop offset="1" stop-color="white" stop-opacity="0.43"/>
</radialGradient>
<radialGradient id="paint2_radial_1984_4164" cx="0" cy="0" r="1" gradientUnits="userSpaceOnUse" gradientTransform="translate(22.375 23.6701) rotate(58.5455) scale(22.7569 23.9203)">
<stop stop-color="#F39595"/>
<stop offset="0.739583" stop-color="#EA4242"/>
<stop offset="1" stop-color="#B71515"/>
</radialGradient>
<radialGradient id="paint3_radial_1984_4164" cx="0" cy="0" r="1" gradientUnits="userSpaceOnUse" gradientTransform="translate(28.3125 27.7571) rotate(91.1745) scale(15.2461 15.2473)">
<stop offset="0.630208" stop-color="#E62121" stop-opacity="0"/>
<stop offset="0.848958" stop-color="#F5A7A7" stop-opacity="0.175634"/>
<stop offset="1" stop-color="white" stop-opacity="0.43"/>
</radialGradient>
</defs>
</svg>
