<svg width="128" height="37" viewBox="0 0 128 37" fill="none" xmlns="http://www.w3.org/2000/svg">
<path d="M12.078 17L10.824 13.15H4.092L2.816 17H0.374L5.61 1.6H9.372L14.608 17H12.078ZM7.458 2.942L4.708 11.258H10.186L7.458 2.942ZM29.4946 17H26.5686L21.3326 10.18H19.2426V17H16.7786V1.6H19.2426V8.266H21.3106L26.1726 1.6H29.0326L23.2246 9.058L29.4946 17ZM42.0057 17L40.7517 13.15H34.0197L32.7437 17H30.3017L35.5377 1.6H39.2997L44.5357 17H42.0057ZM37.3857 2.942L34.6357 11.258H40.1137L37.3857 2.942ZM57.9703 14.976H59.3783V20.586H57.0683V17H47.3883V20.586H45.1003V14.976H46.2223C47.1463 12.996 47.7257 8.53733 47.9603 1.6H57.9703V14.976ZM55.5063 14.976V3.624H50.1823C50.0357 6.704 49.801 9.24867 49.4783 11.258C49.2143 12.8127 48.8917 14.052 48.5103 14.976H55.5063ZM61.5091 17V1.6H72.1791V3.536H63.9731V8.244H70.4411V10.092H63.9731V15.064H72.4871V17H61.5091ZM87.5801 1.6H91.8481V17H89.4721L89.4941 2.986L85.2041 17H81.8601L77.5701 3.03V17H75.2161V1.6H79.5281L83.5541 15.592L87.5801 1.6ZM104.342 1.6H108.17V17H105.772V3.338L99.2824 17H95.4544V1.6H97.8524V15.262L104.342 1.6ZM123.025 1.6V17H120.561V10.818H117.415L113.477 17H110.529L114.885 10.73C113.697 10.5393 112.743 10.0773 112.025 9.344C111.306 8.61067 110.947 7.584 110.947 6.264C110.947 4.69467 111.453 3.52867 112.465 2.766C113.491 1.98867 114.775 1.6 116.315 1.6H123.025ZM120.561 8.97V3.58H116.579C115.611 3.58 114.841 3.80733 114.269 4.262C113.697 4.71667 113.411 5.384 113.411 6.264C113.411 7.144 113.697 7.81867 114.269 8.288C114.841 8.74267 115.611 8.97 116.579 8.97H120.561Z" fill="#1A2632"/>
<path d="M3.476 29.051C4.026 29.139 4.466 29.348 4.796 29.678C5.126 30.0007 5.291 30.4443 5.291 31.009C5.291 31.691 5.06367 32.2153 4.609 32.582C4.15433 32.9487 3.56033 33.132 2.827 33.132C1.25767 33.132 0.399667 32.3217 0.253 30.701L1.342 30.646C1.42267 31.7167 1.91767 32.252 2.827 32.252C3.25233 32.252 3.57867 32.1347 3.806 31.9C4.03333 31.6653 4.147 31.3207 4.147 30.866C4.147 29.9567 3.69967 29.502 2.805 29.502H2.09V28.666H2.75C3.146 28.666 3.44667 28.5523 3.652 28.325C3.86467 28.0903 3.971 27.7713 3.971 27.368C3.971 26.9427 3.86467 26.6163 3.652 26.389C3.44667 26.1617 3.17167 26.048 2.827 26.048C2.46767 26.048 2.16333 26.1727 1.914 26.422C1.66467 26.664 1.518 27.038 1.474 27.544L0.407 27.456C0.473 26.6787 0.715 26.103 1.133 25.729C1.55833 25.355 2.123 25.168 2.827 25.168C3.487 25.168 4.02967 25.3403 4.455 25.685C4.88767 26.0223 5.104 26.5173 5.104 27.17C5.104 27.6833 4.96467 28.1013 4.686 28.424C4.41467 28.7467 4.01133 28.9557 3.476 29.051ZM11.1867 32.065H11.7697V34.793H10.7137V33H6.91868V34.793H5.86268V32.065H6.32468C6.70601 30.9137 6.94068 28.6587 7.02868 25.3H11.1867V32.065ZM7.73268 30.162C7.62268 30.9613 7.49435 31.5957 7.34768 32.065H10.0537V26.235H8.01868C7.96001 27.7163 7.86468 29.0253 7.73268 30.162ZM13.2428 32.054C12.7441 31.3353 12.4948 30.3673 12.4948 29.15C12.4948 27.9327 12.7441 26.9647 13.2428 26.246C13.7488 25.5273 14.4711 25.168 15.4098 25.168C16.3411 25.168 17.0561 25.5273 17.5548 26.246C18.0608 26.9647 18.3138 27.9327 18.3138 29.15C18.3138 30.3673 18.0608 31.3353 17.5548 32.054C17.0561 32.7727 16.3411 33.132 15.4098 33.132C14.4711 33.132 13.7488 32.7727 13.2428 32.054ZM14.0898 26.939C13.7818 27.4963 13.6278 28.2333 13.6278 29.15C13.6278 30.0667 13.7818 30.8073 14.0898 31.372C14.4051 31.9293 14.8451 32.208 15.4098 32.208C15.9671 32.208 16.3998 31.9293 16.7078 31.372C17.0231 30.8073 17.1808 30.0667 17.1808 29.15C17.1808 28.2333 17.0231 27.4963 16.7078 26.939C16.3998 26.3743 15.9671 26.092 15.4098 26.092C14.8451 26.092 14.4051 26.3743 14.0898 26.939ZM22.3687 25.3C23.0067 25.3 23.542 25.4943 23.9747 25.883C24.4147 26.2643 24.6347 26.8547 24.6347 27.654C24.6347 28.4533 24.4257 29.04 24.0077 29.414C23.5897 29.7807 23.0543 29.964 22.4017 29.964H20.9057V33H19.7727V25.3H22.3687ZM22.2037 29.084C22.5923 29.084 22.904 28.9667 23.1387 28.732C23.3807 28.49 23.5017 28.1307 23.5017 27.654C23.5017 27.1847 23.3807 26.829 23.1387 26.587C22.8967 26.345 22.585 26.224 22.2037 26.224H20.9057V29.084H22.2037ZM26.3508 32.054C25.8521 31.3353 25.6028 30.3673 25.6028 29.15C25.6028 27.9327 25.8521 26.9647 26.3508 26.246C26.8568 25.5273 27.5791 25.168 28.5178 25.168C29.4491 25.168 30.1641 25.5273 30.6628 26.246C31.1688 26.9647 31.4218 27.9327 31.4218 29.15C31.4218 30.3673 31.1688 31.3353 30.6628 32.054C30.1641 32.7727 29.4491 33.132 28.5178 33.132C27.5791 33.132 26.8568 32.7727 26.3508 32.054ZM27.1978 26.939C26.8898 27.4963 26.7358 28.2333 26.7358 29.15C26.7358 30.0667 26.8898 30.8073 27.1978 31.372C27.5131 31.9293 27.9531 32.208 28.5178 32.208C29.0751 32.208 29.5078 31.9293 29.8158 31.372C30.1311 30.8073 30.2888 30.0667 30.2888 29.15C30.2888 28.2333 30.1311 27.4963 29.8158 26.939C29.5078 26.3743 29.0751 26.092 28.5178 26.092C27.9531 26.092 27.5131 26.3743 27.1978 26.939ZM35.9717 29.04C36.551 29.106 37.0203 29.304 37.3797 29.634C37.739 29.9567 37.9187 30.404 37.9187 30.976C37.9187 31.614 37.7023 32.1127 37.2697 32.472C36.8443 32.824 36.3053 33 35.6527 33H32.8807V25.3H35.5977C36.221 25.3 36.7307 25.4613 37.1267 25.784C37.53 26.1067 37.7317 26.587 37.7317 27.225C37.7317 28.3103 37.145 28.9153 35.9717 29.04ZM36.5987 27.401C36.5987 27.0197 36.496 26.7227 36.2907 26.51C36.0927 26.29 35.8103 26.18 35.4437 26.18H34.0137V28.666H35.4767C35.8287 28.666 36.1037 28.5523 36.3017 28.325C36.4997 28.0977 36.5987 27.7897 36.5987 27.401ZM35.4877 32.12C35.8983 32.12 36.2173 32.0063 36.4447 31.779C36.672 31.5517 36.7857 31.2327 36.7857 30.822C36.7857 30.4113 36.6757 30.0887 36.4557 29.854C36.243 29.6193 35.9423 29.502 35.5537 29.502H34.0137V32.12H35.4877ZM39.6199 32.054C39.1212 31.3353 38.8719 30.3673 38.8719 29.15C38.8719 27.9327 39.1212 26.9647 39.6199 26.246C40.1259 25.5273 40.8482 25.168 41.7869 25.168C42.7182 25.168 43.4332 25.5273 43.9319 26.246C44.4379 26.9647 44.6909 27.9327 44.6909 29.15C44.6909 30.3673 44.4379 31.3353 43.9319 32.054C43.4332 32.7727 42.7182 33.132 41.7869 33.132C40.8482 33.132 40.1259 32.7727 39.6199 32.054ZM40.4669 26.939C40.1589 27.4963 40.0049 28.2333 40.0049 29.15C40.0049 30.0667 40.1589 30.8073 40.4669 31.372C40.7822 31.9293 41.2222 32.208 41.7869 32.208C42.3442 32.208 42.7769 31.9293 43.0849 31.372C43.4002 30.8073 43.5579 30.0667 43.5579 29.15C43.5579 28.2333 43.4002 27.4963 43.0849 26.939C42.7769 26.3743 42.3442 26.092 41.7869 26.092C41.2222 26.092 40.7822 26.3743 40.4669 26.939ZM50.2638 25.3V26.235H47.2828V33H46.1498V25.3H50.2638ZM51.5892 32.054C51.0906 31.3353 50.8412 30.3673 50.8412 29.15C50.8412 27.9327 51.0906 26.9647 51.5892 26.246C52.0952 25.5273 52.8176 25.168 53.7562 25.168C54.6876 25.168 55.4026 25.5273 55.9012 26.246C56.4072 26.9647 56.6602 27.9327 56.6602 29.15C56.6602 30.3673 56.4072 31.3353 55.9012 32.054C55.4026 32.7727 54.6876 33.132 53.7562 33.132C52.8176 33.132 52.0952 32.7727 51.5892 32.054ZM52.4362 26.939C52.1282 27.4963 51.9742 28.2333 51.9742 29.15C51.9742 30.0667 52.1282 30.8073 52.4362 31.372C52.7516 31.9293 53.1916 32.208 53.7562 32.208C54.3136 32.208 54.7462 31.9293 55.0542 31.372C55.3696 30.8073 55.5272 30.0667 55.5272 29.15C55.5272 28.2333 55.3696 27.4963 55.0542 26.939C54.7462 26.3743 54.3136 26.092 53.7562 26.092C53.1916 26.092 52.7516 26.3743 52.4362 26.939ZM65.0326 32.065H65.6156V34.793H64.5596V33H60.7646V34.793H59.7086V32.065H60.1706C60.5519 30.9137 60.7866 28.6587 60.8746 25.3H65.0326V32.065ZM61.5786 30.162C61.4686 30.9613 61.3402 31.5957 61.1936 32.065H63.8996V26.235H61.8646C61.8059 27.7163 61.7106 29.0253 61.5786 30.162ZM67.0887 32.054C66.59 31.3353 66.3407 30.3673 66.3407 29.15C66.3407 27.9327 66.59 26.9647 67.0887 26.246C67.5947 25.5273 68.317 25.168 69.2557 25.168C70.187 25.168 70.902 25.5273 71.4007 26.246C71.9067 26.9647 72.1597 27.9327 72.1597 29.15C72.1597 30.3673 71.9067 31.3353 71.4007 32.054C70.902 32.7727 70.187 33.132 69.2557 33.132C68.317 33.132 67.5947 32.7727 67.0887 32.054ZM67.9357 26.939C67.6277 27.4963 67.4737 28.2333 67.4737 29.15C67.4737 30.0667 67.6277 30.8073 67.9357 31.372C68.251 31.9293 68.691 32.208 69.2557 32.208C69.813 32.208 70.2457 31.9293 70.5537 31.372C70.869 30.8073 71.0267 30.0667 71.0267 29.15C71.0267 28.2333 70.869 27.4963 70.5537 26.939C70.2457 26.3743 69.813 26.092 69.2557 26.092C68.691 26.092 68.251 26.3743 67.9357 26.939ZM73.9647 25.3H78.2547V33H77.1217V26.224H74.9657C74.8924 28.5853 74.8374 29.964 74.8007 30.36C74.698 31.6213 74.4597 32.428 74.0857 32.78C73.8804 32.9707 73.6164 33.066 73.2937 33.066C73.2277 33.066 73.0334 33.0513 72.7107 33.022V32.109C72.872 32.1237 72.9747 32.131 73.0187 32.131C73.3707 32.131 73.5944 31.7497 73.6897 30.987C73.7924 30.217 73.873 28.7063 73.9317 26.455C73.939 26.2937 73.9427 26.1653 73.9427 26.07C73.9427 25.9747 73.9464 25.8537 73.9537 25.707C73.961 25.5603 73.9647 25.4247 73.9647 25.3ZM84.2275 25.3V26.235H81.2465V33H80.1135V25.3H84.2275ZM85.5529 32.054C85.0543 31.3353 84.8049 30.3673 84.8049 29.15C84.8049 27.9327 85.0543 26.9647 85.5529 26.246C86.0589 25.5273 86.7813 25.168 87.7199 25.168C88.6513 25.168 89.3663 25.5273 89.8649 26.246C90.3709 26.9647 90.6239 27.9327 90.6239 29.15C90.6239 30.3673 90.3709 31.3353 89.8649 32.054C89.3663 32.7727 88.6513 33.132 87.7199 33.132C86.7813 33.132 86.0589 32.7727 85.5529 32.054ZM86.3999 26.939C86.0919 27.4963 85.9379 28.2333 85.9379 29.15C85.9379 30.0667 86.0919 30.8073 86.3999 31.372C86.7153 31.9293 87.1553 32.208 87.7199 32.208C88.2773 32.208 88.7099 31.9293 89.0179 31.372C89.3333 30.8073 89.4909 30.0667 89.4909 29.15C89.4909 28.2333 89.3333 27.4963 89.0179 26.939C88.7099 26.3743 88.2773 26.092 87.7199 26.092C87.1553 26.092 86.7153 26.3743 86.3999 26.939ZM92.429 25.3H96.719V33H95.586V26.224H93.43C93.3566 28.5853 93.3016 29.964 93.265 30.36C93.1623 31.6213 92.924 32.428 92.55 32.78C92.3446 32.9707 92.0806 33.066 91.758 33.066C91.692 33.066 91.4976 33.0513 91.175 33.022V32.109C91.3363 32.1237 91.439 32.131 91.483 32.131C91.835 32.131 92.0586 31.7497 92.154 30.987C92.2566 30.217 92.3373 28.7063 92.396 26.455C92.4033 26.2937 92.407 26.1653 92.407 26.07C92.407 25.9747 92.4106 25.8537 92.418 25.707C92.4253 25.5603 92.429 25.4247 92.429 25.3ZM99.7107 32.109H103.154V33H98.5777V25.3H103.022V26.191H99.7107V28.666H102.318V29.502H99.7107V32.109ZM108.946 25.3V26.235H107.021V33H105.888V26.235H103.952V25.3H108.946ZM113.845 25.3H115.462V33H114.373V26.323L111.799 33H110.182V25.3H111.282V31.977L113.845 25.3ZM119.125 25.3H121.897V33H120.753V29.876H119.609L118.047 33H116.705L118.542 29.832C118.044 29.7367 117.644 29.5093 117.343 29.15C117.043 28.7833 116.892 28.27 116.892 27.61C116.892 26.8327 117.105 26.2533 117.53 25.872C117.956 25.4907 118.487 25.3 119.125 25.3ZM119.323 29.018H120.753V26.213H119.323C118.927 26.213 118.612 26.334 118.377 26.576C118.143 26.8107 118.025 27.1553 118.025 27.61C118.025 28.072 118.143 28.424 118.377 28.666C118.612 28.9007 118.927 29.018 119.323 29.018Z" fill="#47698A"/>
</svg>
