<svg width="32" height="32" viewBox="0 0 32 32" fill="none" xmlns="http://www.w3.org/2000/svg">
<mask id="mask0_777_1622" style="mask-type:alpha" maskUnits="userSpaceOnUse" x="8" y="8" width="24" height="24">
<circle cx="20" cy="20" r="12" fill="url(#paint0_radial_777_1622)"/>
<circle cx="20" cy="20" r="12" fill="url(#paint1_radial_777_1622)"/>
</mask>
<g mask="url(#mask0_777_1622)">
<circle cx="20" cy="20" r="12" fill="url(#paint2_radial_777_1622)"/>
<circle cx="20" cy="20" r="12" fill="url(#paint3_radial_777_1622)"/>
<circle cx="15.5" cy="15" r="3" fill="white" fill-opacity="0.2"/>
<circle cx="17.5" cy="17" r="4.5" fill="white" fill-opacity="0.06"/>
<path fill-rule="evenodd" clip-rule="evenodd" d="M16.7424 28.9348C21.7381 25.4038 25 19.5828 25 12.9999C25 10.7408 24.6158 8.5713 23.9092 6.55334C27.546 8.61497 30 12.5209 30 16.9999C30 23.6274 24.6274 28.9999 18 28.9999C17.5753 28.9999 17.1557 28.9779 16.7424 28.9348Z" fill="#EB4C4C" fill-opacity="0.2" style="mix-blend-mode:screen"/>
<path fill-rule="evenodd" clip-rule="evenodd" d="M20 30C25.5228 30 30 25.5228 30 20C30 14.4772 25.5228 10 20 10C14.4772 10 10 14.4772 10 20C10 25.5228 14.4772 30 20 30ZM20 32C26.6274 32 32 26.6274 32 20C32 13.3726 26.6274 8 20 8C13.3726 8 8 13.3726 8 20C8 26.6274 13.3726 32 20 32Z" fill="#CA1616"/>
</g>
<path d="M0 1C0 0.447716 0.447715 0 1 0V0C5.97056 0 10 4.02944 10 9V17C10 17.5523 9.55228 18 9 18V18C4.02944 18 0 13.9706 0 9V1Z" fill="#119711"/>
<path fill-rule="evenodd" clip-rule="evenodd" d="M8 15.9291V9C8 5.47353 5.39229 2.55612 2 2.07089V9C2 12.5265 4.60771 15.4439 8 15.9291ZM1 0C0.447715 0 0 0.447716 0 1V9C0 13.9706 4.02944 18 9 18C9.55229 18 10 17.5523 10 17V9C10 4.02944 5.97056 0 1 0Z" fill="#095309"/>
<defs>
<radialGradient id="paint0_radial_777_1622" cx="0" cy="0" r="1" gradientUnits="userSpaceOnUse" gradientTransform="translate(15.5 16.5361) rotate(58.5455) scale(18.2055 19.1363)">
<stop stop-color="#F39595"/>
<stop offset="0.739583" stop-color="#EA4242"/>
<stop offset="1" stop-color="#B71515"/>
</radialGradient>
<radialGradient id="paint1_radial_777_1622" cx="0" cy="0" r="1" gradientUnits="userSpaceOnUse" gradientTransform="translate(20.25 19.8056) rotate(91.1745) scale(12.1969 12.1979)">
<stop offset="0.630208" stop-color="#E62121" stop-opacity="0"/>
<stop offset="0.848958" stop-color="#F5A7A7" stop-opacity="0.175634"/>
<stop offset="1" stop-color="white" stop-opacity="0.43"/>
</radialGradient>
<radialGradient id="paint2_radial_777_1622" cx="0" cy="0" r="1" gradientUnits="userSpaceOnUse" gradientTransform="translate(15.5 16.5361) rotate(58.5455) scale(18.2055 19.1363)">
<stop stop-color="#F39595"/>
<stop offset="0.739583" stop-color="#EA4242"/>
<stop offset="1" stop-color="#B71515"/>
</radialGradient>
<radialGradient id="paint3_radial_777_1622" cx="0" cy="0" r="1" gradientUnits="userSpaceOnUse" gradientTransform="translate(20.25 19.8056) rotate(91.1745) scale(12.1969 12.1979)">
<stop offset="0.630208" stop-color="#E62121" stop-opacity="0"/>
<stop offset="0.848958" stop-color="#F5A7A7" stop-opacity="0.175634"/>
<stop offset="1" stop-color="white" stop-opacity="0.43"/>
</radialGradient>
</defs>
</svg>
