<svg xmlns="http://www.w3.org/2000/svg" xmlns:xlink="http://www.w3.org/1999/xlink"><symbol fill="none" viewBox="0 0 24 24" id="icon-add" xmlns="http://www.w3.org/2000/svg"><path d="M12 5v14m-7-7h14" stroke="var(--icon-stroke)" stroke-width="var(--icon-stroke-width)" stroke-linejoin="round"/></symbol><symbol fill="none" viewBox="0 0 24 24" id="icon-allergy" xmlns="http://www.w3.org/2000/svg"><path d="M16 18s-1.5-2-4-2-4 2-4 2m14-6c0 5.523-4.477 10-10 10S2 17.523 2 12 6.477 2 12 2s10 4.477 10 10z" stroke="var(--icon-stroke)" stroke-width="var(--icon-stroke-width)" stroke-linejoin="round"/><path d="M9 9h.01M15 9h.01M12 12h.01M12 6h.01M18 12h.01M6 12h.01M22 12c0 5.523-4.477 10-10 10S2 17.523 2 12 6.477 2 12 2s10 4.477 10 10z" stroke="var(--icon-stroke)" stroke-width="var(--icon-stroke-width)" stroke-linejoin="round"/><circle cx="12" cy="12" r=".5" stroke="var(--icon-stroke)" stroke-width="var(--icon-stroke-width)"/><circle cx="6" cy="12" r=".5" stroke="var(--icon-stroke)" stroke-width="var(--icon-stroke-width)"/><circle cx="18" cy="12" r=".5" stroke="var(--icon-stroke)" stroke-width="var(--icon-stroke-width)"/><circle cx="15" cy="9" r=".5" stroke="var(--icon-stroke)" stroke-width="var(--icon-stroke-width)"/><circle cx="12" cy="6" r=".5" stroke="var(--icon-stroke)" stroke-width="var(--icon-stroke-width)"/><circle cx="9" cy="9" r=".5" stroke="var(--icon-stroke)" stroke-width="var(--icon-stroke-width)"/></symbol><symbol fill="none" viewBox="0 0 24 24" id="icon-arrow-circle-down" xmlns="http://www.w3.org/2000/svg"><path d="M9 12l3 3m0 0l3-3m-3 3V8m9 4a9 9 0 10-18 0 9 9 0 0018 0z" stroke="var(--icon-stroke)" stroke-width="var(--icon-stroke-width)" stroke-linejoin="round"/></symbol><symbol fill="none" viewBox="0 0 24 24" id="icon-arrow-circle-up" xmlns="http://www.w3.org/2000/svg"><path d="M9 12l3-3 3 3m-3-3v7m9-4a9 9 0 11-18 0 9 9 0 0118 0z" stroke="var(--icon-stroke)" stroke-width="var(--icon-stroke-width)" stroke-linejoin="round"/></symbol><symbol fill="none" viewBox="0 0 24 24" id="icon-arrow-down" xmlns="http://www.w3.org/2000/svg"><path d="M5 13l7 7m0 0l7-7m-7 7V5" stroke="var(--icon-stroke)" stroke-width="var(--icon-stroke-width)" stroke-linejoin="round"/></symbol><symbol fill="none" viewBox="0 0 24 24" id="icon-arrow-up" xmlns="http://www.w3.org/2000/svg"><path d="M5 12l7-7m0 0l7 7m-7-7v15" stroke="var(--icon-stroke)" stroke-width="var(--icon-stroke-width)" stroke-linejoin="round"/></symbol><symbol fill="none" viewBox="0 0 24 24" id="icon-asterisk" xmlns="http://www.w3.org/2000/svg"><path d="M12 18V6m5.196 9L6.804 9m0 6l10.392-6M21 12a9 9 0 11-18 0 9 9 0 0118 0z" stroke="var(--icon-stroke)" stroke-width="var(--icon-stroke-width)"/></symbol><symbol fill="none" viewBox="0 0 24 24" id="icon-attachment" xmlns="http://www.w3.org/2000/svg"><path d="M20.494 12.05l-6.343 6.343a6 6 0 11-8.486-8.485l5.657-5.657a4 4 0 115.657 5.657l-5.657 5.657a2 2 0 01-2.828-2.828l6.343-6.344" stroke="var(--icon-stroke)" stroke-width="var(--icon-stroke-width)"/></symbol><symbol fill="none" viewBox="0 0 24 24" id="icon-blood" xmlns="http://www.w3.org/2000/svg"><path d="M12 3l.6-.8a1 1 0 00-1.2 0l.6.8zm6 11a6 6 0 01-6 6v2a8 8 0 008-8h-2zm-6 6a6 6 0 01-6-6H4a8 8 0 008 8v-2zm-6-6c0-3.394 2.692-7.269 6.6-10.2l-1.2-1.6C7.308 5.269 4 9.662 4 14h2zm5.4-10.2C15.309 6.731 18 10.606 18 14h2c0-4.338-3.308-8.731-7.4-11.8l-1.2 1.6zM15 16H9v2h6v-2zm0-6h-3v2h3v-2zm-3 0H9v2h3v-2zm1 1V8h-2v3h2zm-2 0v3h2v-3h-2z" fill="#000"/></symbol><symbol fill="none" viewBox="0 0 24 24" id="icon-brain" xmlns="http://www.w3.org/2000/svg"><path d="M13 17v-1a1 1 0 00-1 1h1zm-7-2h1a1 1 0 00-1-1v1zm-2.546-.757l-.857-.515.857.515zM6 10l.857.514A1 1 0 007 10H6zm3.03-.499l-.992-.123.993.123zm7.94 0l-.993.123.992-.123zM13 18a8 8 0 008-8h-2a6 6 0 01-6 6v2zm-4 4a5 5 0 005-5h-2a3 3 0 01-3 3v2zm-1 0h1v-2H8v2zm-3-3a3 3 0 003 3v-2a1 1 0 01-1-1H5zm0-4v4h2v-4H5zm1-1H3.883v2H6v-2zm-2.117 0a.5.5 0 01.429.757l-1.715-1.029A1.5 1.5 0 003.883 16v-2zm.429.757l2.545-4.242-1.714-1.03-2.546 4.243 1.715 1.03zM13 2a8 8 0 00-8 8h2a6 6 0 016-6V2zm8 8a8 8 0 00-8-8v2a6 6 0 016 6h2zm-8-3a3 3 0 012.977 2.624l1.984-.247A5 5 0 0013 5v2zm-2.977 2.624A3 3 0 0113 7V5a5 5 0 00-4.962 4.377l1.985.247zM9.5 11h7V9h-7v2zM8.038 9.377C7.92 10.332 8.71 11 9.5 11V9c.238 0 .574.219.523.624l-1.985-.247zm7.939.247A.545.545 0 0116.5 9v2c.79 0 1.58-.669 1.461-1.623l-1.984.247z" fill="#000"/></symbol><symbol fill="none" viewBox="0 0 24 24" id="icon-brand-facebook" xmlns="http://www.w3.org/2000/svg"><path d="M7 10v4h3v7h4v-7h3l1-4h-4V8a1 1 0 011-1h3V3h-3a5 5 0 00-5 5v2H7z" stroke="var(--icon-stroke)" stroke-width="var(--icon-stroke-width)" stroke-linecap="round" stroke-linejoin="round"/></symbol><symbol fill="none" viewBox="0 0 24 24" id="icon-brand-skype" xmlns="http://www.w3.org/2000/svg"><path d="M8 14.5c.5 2 2.358 2.5 4 2.5 2.905 0 4-1.187 4-2.5 0-1.503-1.927-2.5-4-2.5s-4-.997-4-2.5C8 8.187 9.095 7 12 7c1.642 0 3.5.5 4 2.5M12 3a9 9 0 018.603 11.65 4.5 4.5 0 01-5.953 5.953A9 9 0 013.397 9.35 4.5 4.5 0 019.35 3.396 8.987 8.987 0 0112 3z" stroke="var(--icon-stroke)" stroke-width="var(--icon-stroke-width)" stroke-linejoin="round"/></symbol><symbol fill="none" viewBox="0 0 24 24" id="icon-brand-telegram" xmlns="http://www.w3.org/2000/svg"><path d="M15 10l-4 4 6 6 4-16-18 7 4 2 2 6 3-4" stroke="var(--icon-stroke)" stroke-width="var(--icon-stroke-width)" stroke-linejoin="round"/></symbol><symbol fill="none" viewBox="0 0 24 25" id="icon-brand-viber" xmlns="http://www.w3.org/2000/svg"><path d="M7.5 18.498C4.81 17.591 3 15.895 3 13.953V7.268c0-2.898 4.03-5.247 9-5.247s9 2.35 9 5.247v6.685c0 2.898-4.03 5.247-9 5.247l-3 3.032M11.71 7.84c.65.074 1.281.364 1.78.868.499.504.785 1.141.86 1.799m-2.542-5.415a4.959 4.959 0 013.803 1.472 5.07 5.07 0 011.457 3.843M9.602 9.78c0-.715-.707-2.1-1.768-2.501-.643-.244-1.605.346-1.878 1.005-1.216 2.93 5.055 9.267 7.954 8.038.653-.276 1.236-1.248.995-1.898-.398-1.072-1.768-1.786-2.475-1.786" stroke="var(--icon-stroke)" stroke-width="var(--icon-stroke-width)" stroke-linejoin="round"/></symbol><symbol fill="none" viewBox="0 0 24 24" id="icon-brand-vk" xmlns="http://www.w3.org/2000/svg"><path d="M10 6h2v12c-4.5-1-8-6.5-9-12m17 0c-1 2-3 5-5 6m0 0h-3m3 0c2 1 4 4 5 6" stroke="var(--icon-stroke)" stroke-width="var(--icon-stroke-width)" stroke-linecap="square" stroke-linejoin="round"/></symbol><symbol fill="none" viewBox="0 0 24 24" id="icon-building" xmlns="http://www.w3.org/2000/svg"><path d="M13 20H4m9 0h7m-7 0V7M4 20V7l9-4v4M4 20H1m22 0h-3m0 0V10l-7-3" stroke="var(--icon-stroke)" stroke-width="var(--icon-stroke-width)" stroke-linejoin="round"/></symbol><symbol fill="none" viewBox="0 0 24 24" id="icon-calendar" xmlns="http://www.w3.org/2000/svg"><path d="M3 11v10h18V11M3 11V5h18v6M3 11h18M8 2v6m8-6v6m-9 7v2h3v-2H7z" stroke="var(--icon-stroke)" stroke-width="var(--icon-stroke-width)" stroke-linejoin="round"/></symbol><symbol fill="none" viewBox="0 0 24 24" id="icon-cancer-ribbon" xmlns="http://www.w3.org/2000/svg"><path d="M7.611 21C10.667 18.6 18 14.4 18 8.4 18 5.418 15.538 3 12.5 3S7 5.418 7 8.4c0 2.517 1.29 4.717 3.014 6.6l.49.5M17.39 21c-.759-.596-1.78-1.302-2.889-2.12" stroke="var(--icon-stroke)" stroke-width="var(--icon-stroke-width)"/></symbol><symbol fill="none" viewBox="0 0 24 24" id="icon-checkmark" xmlns="http://www.w3.org/2000/svg"><path d="M5 12l5 5L20 7" stroke="var(--icon-stroke)" stroke-width="var(--icon-stroke-width)" stroke-linejoin="round"/></symbol><symbol fill="none" viewBox="0 0 24 24" id="icon-chevron-left" xmlns="http://www.w3.org/2000/svg"><path d="M15 18l-6-6 6-6" stroke="var(--icon-stroke)" stroke-width="var(--icon-stroke-width)" stroke-linejoin="round"/></symbol><symbol fill="none" viewBox="0 0 24 24" id="icon-chevron-right" xmlns="http://www.w3.org/2000/svg"><path d="M9 18l6-6-6-6" stroke="var(--icon-stroke)" stroke-width="var(--icon-stroke-width)" stroke-linejoin="round"/></symbol><symbol fill="none" viewBox="0 0 24 24" id="icon-cosmetics" xmlns="http://www.w3.org/2000/svg"><path d="M21 7V3h-9v4m9 0l-2 10m2-10h-9m0 0l2 10m0 0h5m-5 0v4h5v-4M4 11.6c-.619.361-1 .855-1 1.4v2m1-3.4c.635-.37 1.52-.6 2.5-.6s1.865.23 2.5.6m-5 0V7h5v4.6m0 0c.619.361 1 .855 1 1.4v2m0 0H3m7 0v5.5a.5.5 0 01-.5.5h-6a.5.5 0 01-.5-.5V15" stroke="var(--icon-stroke)" stroke-width="var(--icon-stroke-width)" stroke-linejoin="round"/></symbol><symbol fill="none" viewBox="0 0 24 24" id="icon-doctor-case" xmlns="http://www.w3.org/2000/svg"><path d="M16 7V4a1 1 0 00-1-1H9a1 1 0 00-1 1v3m-5 5v8a1 1 0 001 1h16a1 1 0 001-1v-8l-2-5H5l-2 5z" stroke="var(--icon-stroke)" stroke-width="var(--icon-stroke-width)" stroke-linejoin="round"/><path d="M12 18v-4m0 0v-4m0 4H8m4 0h4" stroke="var(--icon-stroke)" stroke-width="var(--icon-stroke-width)"/></symbol><symbol fill="none" viewBox="0 0 24 24" id="icon-donate" xmlns="http://www.w3.org/2000/svg"><path d="M2 12.5a.5.5 0 01.5-.5H6v9H2.5a.5.5 0 01-.5-.5v-8zM6 19.5l8 2 7-2.5c0-.667-.4-2-2-2h-3.156M10.5 16c1 .5 2 1 3.5 1h1.844m0 0c.219-.667.156-2.2-1.844-3-2-.8-4.5-1.667-5.5-2H6" stroke="var(--icon-stroke)" stroke-width="var(--icon-stroke-width)" stroke-linejoin="round"/><path d="M16.5 4.228c-.625-.844-1.754-1.461-2.757-1.143a2.535 2.535 0 00-1.742 2.326C11.943 7.636 14.253 10.248 16.5 11c2.247-.752 4.557-3.364 4.499-5.59a2.535 2.535 0 00-1.742-2.325c-1.003-.318-2.132.299-2.757 1.143z" stroke="var(--icon-stroke)" stroke-width="var(--icon-stroke-width)" stroke-linecap="round" stroke-linejoin="round"/></symbol><symbol fill="none" viewBox="0 0 24 24" id="icon-edit" xmlns="http://www.w3.org/2000/svg"><path d="M14.172 6.828L17 4l2.828 2.828L17 9.657m-2.828-2.829L17 9.657m-2.828-2.829L4 17v3h3M17 9.657L7 20m0 0h14" stroke="var(--icon-stroke)" stroke-width="var(--icon-stroke-width)" stroke-linejoin="round"/></symbol><symbol fill="none" viewBox="0 0 24 24" id="icon-error" xmlns="http://www.w3.org/2000/svg"><path d="M12 13V7m0 10v-2m9-3a9 9 0 11-18 0 9 9 0 0118 0z" stroke="var(--icon-stroke)" stroke-width="var(--icon-stroke-width)"/></symbol><symbol fill="none" viewBox="0 0 24 24" id="icon-eye" xmlns="http://www.w3.org/2000/svg"><path d="M22 12c-2.667 4.667-6 7-10 7s-7.333-2.333-10-7c2.667-4.667 6-7 10-7s7.333 2.333 10 7z" stroke="var(--icon-stroke)" stroke-width="var(--icon-stroke-width)" stroke-linecap="round" stroke-linejoin="round"/><circle cx="12" cy="12" r="4" stroke="var(--icon-stroke)" stroke-width="var(--icon-stroke-width)"/></symbol><symbol fill="none" viewBox="0 0 24 24" id="icon-eye-slash" xmlns="http://www.w3.org/2000/svg"><path d="M3 3l6.172 6.172M21 21l-6.172-6.172M9.363 5.365A9.466 9.466 0 0112 5c4 0 7.333 2.333 10 7-.778 1.361-1.612 2.524-2.503 3.488m-2.14 1.861C15.726 18.449 13.942 19 12 19c-4 0-7.333-2.333-10-7 1.369-2.395 2.913-4.175 4.632-5.341m2.54 2.513a4 4 0 005.657 5.657M9.171 9.171l5.656 5.656" stroke="var(--icon-stroke)" stroke-width="var(--icon-stroke-width)" stroke-linejoin="round"/><path d="M16 12a4 4 0 00-4-4" stroke="var(--icon-stroke)" stroke-width="var(--icon-stroke-width)"/></symbol><symbol fill="none" viewBox="0 0 24 24" id="icon-file" xmlns="http://www.w3.org/2000/svg"><path d="M20 16V3H4v18h11m5-5l-5 5m5-5h-5v5" stroke="var(--icon-stroke)" stroke-width="var(--icon-stroke-width)" stroke-linejoin="round"/></symbol><symbol fill="none" viewBox="0 0 24 24" id="icon-filter" xmlns="http://www.w3.org/2000/svg"><path d="M18 5H6v1l5 7.5v6l2-1v-5L18 6V5z" stroke="var(--icon-stroke)" stroke-width="var(--icon-stroke-width)"/></symbol><symbol fill="none" viewBox="0 0 24 24" id="icon-food" xmlns="http://www.w3.org/2000/svg"><path d="M16 15V3h.5A3.5 3.5 0 0120 6.5V15h-2m-2 0v6h2v-6m-2 0h2" stroke="var(--icon-stroke)" stroke-width="var(--icon-stroke-width)" stroke-linejoin="round"/><path d="M8 3v18m4-18v5c0 2.21-1.79 3-4 3s-4-.79-4-3V3" stroke="var(--icon-stroke)" stroke-width="var(--icon-stroke-width)"/></symbol><symbol fill="none" viewBox="0 0 24 24" id="icon-group" xmlns="http://www.w3.org/2000/svg"><path d="M16 24v-8a4 4 0 00-8 0v8m-3-8.465A3.998 3.998 0 003 19v5m16-8.465c1.196.692 2 1.984 2 3.465v5M7 10a2 2 0 11-4 0 2 2 0 014 0zm14 0a2 2 0 11-4 0 2 2 0 014 0zm-6-4a3 3 0 11-6 0 3 3 0 016 0z" stroke="var(--icon-stroke)" stroke-width="var(--icon-stroke-width)"/></symbol><symbol fill="none" viewBox="0 0 24 24" id="icon-hands-up" xmlns="http://www.w3.org/2000/svg"><path d="M10 7.71A7 7 0 0012 8c.695 0 1.366-.101 2-.29m-4 0A7.008 7.008 0 015.07 2M10 7.71V14m8.93-12A7.008 7.008 0 0114 7.71m0 0V14m-4 0v8m0-8h4m0 0v8M13 4a1 1 0 11-2 0 1 1 0 012 0z" stroke="var(--icon-stroke)" stroke-width="var(--icon-stroke-width)"/></symbol><symbol fill="none" viewBox="0 0 24 24" id="icon-headphones" xmlns="http://www.w3.org/2000/svg"><path d="M3 15a2 2 0 012-2h1a2 2 0 012 2v4a2 2 0 01-2 2H5a2 2 0 01-2-2v-4zm0 0v-3a9 9 0 0118 0v3m0 0a2 2 0 00-2-2h-1a2 2 0 00-2 2v4a2 2 0 002 2h1a2 2 0 002-2v-4z" stroke="var(--icon-stroke)" stroke-width="var(--icon-stroke-width)"/></symbol><symbol fill="none" viewBox="0 0 24 24" id="icon-heart" xmlns="http://www.w3.org/2000/svg"><path d="M12 6.456c-1.25-1.689-3.507-2.923-5.513-2.285-2.006.637-3.43 2.546-3.485 4.65C2.885 13.273 7.507 18.495 12 20c4.493-1.505 9.114-6.727 8.998-11.179-.055-2.104-1.48-4.013-3.485-4.65-2.006-.638-4.263.596-5.513 2.285z" stroke="var(--icon-stroke)" stroke-width="var(--icon-stroke-width)" stroke-linecap="round" stroke-linejoin="round"/></symbol><symbol fill="none" viewBox="0 0 24 24" id="icon-heart-slash" xmlns="http://www.w3.org/2000/svg"><path d="M6.877 4.07c1.902-.376 3.954.806 5.123 2.386 1.25-1.689 3.507-2.923 5.513-2.285 2.006.637 3.43 2.546 3.485 4.65.058 2.21-1.051 4.608-2.732 6.648M4.388 5.5a5.062 5.062 0 00-1.386 3.321C2.885 13.273 7.507 18.495 12 20c1.503-.503 3.02-1.423 4.37-2.59" stroke="var(--icon-stroke)" stroke-width="var(--icon-stroke-width)" stroke-linejoin="round"/><path stroke="var(--icon-stroke)" stroke-width="var(--icon-stroke-width)" d="M18.293 19.707L1.322 2.737"/></symbol><symbol fill="none" viewBox="0 0 24 24" id="icon-help" xmlns="http://www.w3.org/2000/svg"><path d="M9.17 9A3.001 3.001 0 0115 10a3 3 0 01-3 3v2m0 1v2m9-6a9 9 0 11-18 0 9 9 0 0118 0z" stroke="var(--icon-stroke)" stroke-width="var(--icon-stroke-width)" stroke-linejoin="round"/></symbol><symbol fill="none" viewBox="0 0 24 24" id="icon-home" xmlns="http://www.w3.org/2000/svg"><path d="M19 9.6V20a1 1 0 01-1 1h-6M5 9.6V20a1 1 0 001 1h6m0 0v-7M2 12.6l9.293-9.293a1 1 0 011.414 0L22 12.6" stroke="var(--icon-stroke)" stroke-width="var(--icon-stroke-width)" stroke-linejoin="round"/></symbol><symbol fill="none" viewBox="0 0 24 24" id="icon-image" xmlns="http://www.w3.org/2000/svg"><path d="M4 13l3-3 6 6m-4 4l7-7 4 4" stroke="var(--icon-stroke)" stroke-width="var(--icon-stroke-width)" stroke-linejoin="round"/><path stroke="var(--icon-stroke)" stroke-width="var(--icon-stroke-width)" stroke-linejoin="round" d="M4 4h16v16H4z"/><circle cx="15" cy="9" r="1" stroke="var(--icon-stroke)" stroke-width="var(--icon-stroke-width)"/></symbol><symbol fill="none" viewBox="0 0 24 24" id="icon-info" xmlns="http://www.w3.org/2000/svg"><path d="M13 8h-2m-1 4h2v4h2m7-4a9 9 0 11-18 0 9 9 0 0118 0z" stroke="var(--icon-stroke)" stroke-width="var(--icon-stroke-width)"/></symbol><symbol fill="none" viewBox="0 0 44 44" id="icon-lg-empty" xmlns="http://www.w3.org/2000/svg"><path d="M11.75 38c1.6-4.097 5.586-7 10.25-7s8.65 2.903 10.25 7M19.17 21H12a1 1 0 100 2h7.17M23 12a1 1 0 11-2 0 1 1 0 012 0zm-7.364 2.222a1 1 0 11-1.414 1.414 1 1 0 011.414-1.414zm14.142 1.414a1 1 0 11-1.414-1.415 1 1 0 011.414 1.415zM32 23a1 1 0 110-2 1 1 0 010 2zm-10-4a3 3 0 110 6 3 3 0 010-6zm19 3c0 10.493-8.507 19-19 19S3 32.493 3 22 11.507 3 22 3s19 8.507 19 19z" stroke="var(--icon-stroke)" stroke-width="var(--icon-stroke-width)"/></symbol><symbol fill="none" viewBox="0 0 44 44" id="icon-lg-food" xmlns="http://www.w3.org/2000/svg"><path d="M29 41H7L4.474 17m0 0L3 3h28l-1.684 16M4.474 17H17m2 0h4" stroke="var(--icon-stroke)" stroke-width="var(--icon-stroke-width)" stroke-linejoin="round"/><circle cx="30" cy="30" r="11" stroke="var(--icon-stroke)" stroke-width="var(--icon-stroke-width)"/><path d="M33.219 16a11.423 11.423 0 006.237-5.093A11.282 11.282 0 0040.781 3a11.423 11.423 0 00-6.237 5.093A11.282 11.282 0 0033.219 16z" stroke="var(--icon-stroke)" stroke-width="var(--icon-stroke-width)" stroke-linejoin="round"/></symbol><symbol fill="none" viewBox="0 0 24 24" id="icon-medicine" xmlns="http://www.w3.org/2000/svg"><path d="M12 17v-3m0 0v-3m0 3H9m3 0h3M5 10a2 2 0 012-2h10a2 2 0 012 2v10.5a.5.5 0 01-.5.5h-13a.5.5 0 01-.5-.5V10zM5 3h14M8 3v5m8-5v5" stroke="var(--icon-stroke)" stroke-width="var(--icon-stroke-width)"/></symbol><symbol fill="none" viewBox="0 0 24 24" id="icon-message" xmlns="http://www.w3.org/2000/svg"><path d="M6 11h2m3 0h2m3 0h2M3 4h18v14H7l-4 4V4z" stroke="var(--icon-stroke)" stroke-width="var(--icon-stroke-width)" stroke-linejoin="round"/></symbol><symbol fill="none" viewBox="0 0 24 24" id="icon-microscope" xmlns="http://www.w3.org/2000/svg"><path d="M12.732 8.799l.866-.5a1 1 0 00.366-1.366l-2-3.464a1 1 0 00-1.366-.366l-1.732 1A1 1 0 008.5 5.469l2 3.464a1 1 0 001.366.366l.866-.5zm0 0l1.5 2.598M11.465 21c.34-.588.535-1.271.535-2 0-.573-.12-1.117-.337-1.61M11.465 21h-6.93A3.982 3.982 0 014 19c0-.942.325-1.807.87-2.49M11.465 21H20M9.401 7.427A6 6 0 004.87 16.51m0 0a4 4 0 016.794.881m7.836-4.525l-7.837 4.525" stroke="var(--icon-stroke)" stroke-width="var(--icon-stroke-width)"/></symbol><symbol fill="none" viewBox="0 0 24 24" id="icon-money" xmlns="http://www.w3.org/2000/svg"><path d="M12 15h2.5a1.5 1.5 0 000-3h-4a1.5 1.5 0 010-3H12m0 6H8m4 0v3m4-9h-4m0 0V6m9 6a9 9 0 11-18 0 9 9 0 0118 0z" stroke="var(--icon-stroke)" stroke-width="var(--icon-stroke-width)"/></symbol><symbol fill="none" viewBox="0 0 24 24" id="icon-more" xmlns="http://www.w3.org/2000/svg"><path d="M5 13a1 1 0 100-2 1 1 0 000 2zM12 13a1 1 0 100-2 1 1 0 000 2zM19 13a1 1 0 100-2 1 1 0 000 2z" stroke="var(--icon-stroke)" stroke-width="var(--icon-stroke-width)" stroke-linecap="round" stroke-linejoin="round"/></symbol><symbol fill="none" viewBox="0 0 24 24" id="icon-more-v" xmlns="http://www.w3.org/2000/svg"><circle cx="12" cy="5" r="1" stroke="var(--icon-stroke)" stroke-width="var(--icon-stroke-width)"/><circle cx="12" cy="12" r="1" stroke="var(--icon-stroke)" stroke-width="var(--icon-stroke-width)"/><circle cx="12" cy="19" r="1" stroke="var(--icon-stroke)" stroke-width="var(--icon-stroke-width)"/></symbol><symbol fill="none" viewBox="0 0 24 24" id="icon-news" xmlns="http://www.w3.org/2000/svg"><path d="M17 11V4a1 1 0 00-1-1H4a1 1 0 00-1 1v15a2 2 0 002 2h14m-2-10h4v8a2 2 0 01-2 2m-2-10v8a2 2 0 002 2M6 14h8m-8 3h8M7 7h4v4H7V7z" stroke="var(--icon-stroke)" stroke-width="var(--icon-stroke-width)"/></symbol><symbol fill="none" viewBox="0 0 24 24" id="icon-organism-hormones" xmlns="http://www.w3.org/2000/svg"><path d="M7 10a4 4 0 100-8 4 4 0 000 8zm0 0v4m0 3v-3m0 0H4m3 0h3m7-1a4 4 0 110 8 4 4 0 010-8zm0 0V6m0 0l-3 3m3-3l3 3" stroke="var(--icon-stroke)" stroke-width="var(--icon-stroke-width)" stroke-linejoin="round"/></symbol><symbol fill="none" viewBox="0 0 24 24" id="icon-organism-intestines" xmlns="http://www.w3.org/2000/svg"><path d="M6 5h15V3H6v2zm0 4h12V7H6v2zm0 4h12v-2H6v2zm0 4h12v-2H6v2zm-3 4h15v-2H3v2zm15 0a3 3 0 003-3h-2a1 1 0 01-1 1v2zm0-4a1 1 0 011 1h2a3 3 0 00-3-3v2zM6 15a1 1 0 01-1-1H3a3 3 0 003 3v-2zm0-4a3 3 0 00-3 3h2a1 1 0 011-1v-2zm12-2a1 1 0 011 1h2a3 3 0 00-3-3v2zM6 7a1 1 0 01-1-1H3a3 3 0 003 3V7zm12 6a3 3 0 003-3h-2a1 1 0 01-1 1v2zM6 3a3 3 0 00-3 3h2a1 1 0 011-1V3z" fill="#000"/></symbol><symbol fill="none" viewBox="0 0 24 24" id="icon-organism-lungs" xmlns="http://www.w3.org/2000/svg"><path d="M10 15v1a5 5 0 01-5 5H3.824A.824.824 0 013 20.177V14c0-3.59 3.067-7 5-7 .412 0 .74.11 1 .317M14 15v1a5 5 0 005 5h1.177a.824.824 0 00.823-.823V14c0-3.59-3.067-7-5-7-.412 0-.74.11-1 .317M7 14l5-3m0 0l5 3m-5-3V2" stroke="var(--icon-stroke)" stroke-width="var(--icon-stroke-width)"/></symbol><symbol fill="none" viewBox="0 0 24 24" id="icon-pause" xmlns="http://www.w3.org/2000/svg"><path d="M14 9v6m-4-6v6m11-3a9 9 0 11-18 0 9 9 0 0118 0z" stroke="var(--icon-stroke)" stroke-width="var(--icon-stroke-width)"/></symbol><symbol fill="none" viewBox="0 0 24 24" id="icon-physical-activity" xmlns="http://www.w3.org/2000/svg"><circle cx="18" cy="16" r="4" stroke="var(--icon-stroke)" stroke-width="var(--icon-stroke-width)"/><circle cx="5" cy="17" r="3" stroke="var(--icon-stroke)" stroke-width="var(--icon-stroke-width)"/><path d="M2 6h3m3 0H5m0 0v5l12-3m-5-4h4l2 6" stroke="var(--icon-stroke)" stroke-width="var(--icon-stroke-width)" stroke-linejoin="round"/></symbol><symbol fill="none" viewBox="0 0 24 24" id="icon-pin" xmlns="http://www.w3.org/2000/svg"><path d="M20 11c0 4.418-5.8 9-8 11-2.2-2-8-6.582-8-11a8 8 0 1116 0z" stroke="var(--icon-stroke)" stroke-width="var(--icon-stroke-width)"/><path d="M13 11a1 1 0 11-2 0 1 1 0 012 0z" stroke="var(--icon-stroke)" stroke-width="var(--icon-stroke-width)"/></symbol><symbol fill="none" viewBox="0 0 24 24" id="icon-play" xmlns="http://www.w3.org/2000/svg"><circle cx="12" cy="12" r="9" stroke="var(--icon-stroke)" stroke-width="var(--icon-stroke-width)"/><path d="M10 9l5 3-5 3V9z" stroke="var(--icon-stroke)" stroke-width="var(--icon-stroke-width)" stroke-linejoin="round"/></symbol><symbol fill="none" viewBox="0 0 24 24" id="icon-repost" xmlns="http://www.w3.org/2000/svg"><path d="M15.5 2.5L20 7m0 0l-4.5 4.5M20 7H4.5a.5.5 0 00-.5.5V12m4.5.5L4 17m0 0l4.5 4.5M4 17h15.5a.5.5 0 00.5-.5V12" stroke="var(--icon-stroke)" stroke-width="var(--icon-stroke-width)" stroke-linejoin="round"/></symbol><symbol fill="none" viewBox="0 0 24 24" id="icon-rss" xmlns="http://www.w3.org/2000/svg"><path d="M4 4a16 16 0 0116 16M4 11a9 9 0 019 9m-7-1a1 1 0 11-2 0 1 1 0 012 0z" stroke="var(--icon-stroke)" stroke-width="var(--icon-stroke-width)" stroke-linejoin="round"/></symbol><symbol fill="none" viewBox="0 0 24 24" id="icon-sad" xmlns="http://www.w3.org/2000/svg"><path d="M16 16a4 4 0 00-8 0m13-4a9 9 0 11-18 0 9 9 0 0118 0z" stroke="var(--icon-stroke)" stroke-width="var(--icon-stroke-width)"/></symbol><symbol fill="none" viewBox="0 0 24 24" id="icon-search" xmlns="http://www.w3.org/2000/svg"><path d="M14.95 14.95a7 7 0 10-9.9-9.9 7 7 0 009.9 9.9zm0 0l6.3 6.3" stroke="var(--icon-stroke)" stroke-width="var(--icon-stroke-width)" stroke-linejoin="round"/></symbol><symbol fill="none" viewBox="0 0 24 24" id="icon-send" xmlns="http://www.w3.org/2000/svg"><path d="M12 3l9 17H3l9-17zM12 14v6" stroke="var(--icon-stroke)" stroke-width="var(--icon-stroke-width)" stroke-linejoin="round"/></symbol><symbol fill="none" viewBox="0 0 24 24" id="icon-settings" xmlns="http://www.w3.org/2000/svg"><path d="M18 6a2 2 0 11-4 0m4 0a2 2 0 10-4 0m4 0h3m-7 0H3m7 6a2 2 0 11-4 0m4 0a2 2 0 10-4 0m4 0h11M6 12H3m15 6a2 2 0 11-4 0m4 0a2 2 0 10-4 0m4 0h3m-7 0H3" stroke="var(--icon-stroke)" stroke-width="var(--icon-stroke-width)" stroke-linecap="square" stroke-linejoin="round"/></symbol><symbol fill="none" viewBox="0 0 24 24" id="icon-shopping-bag" xmlns="http://www.w3.org/2000/svg"><path d="M16 12V6a4 4 0 00-8 0v6M3 9h18v14H3V9z" stroke="var(--icon-stroke)" stroke-width="var(--icon-stroke-width)" stroke-linejoin="round"/></symbol><symbol fill="none" viewBox="0 0 20 20" id="icon-sm-chevron-down" xmlns="http://www.w3.org/2000/svg"><path d="M6 8l4 4 4-4" stroke="var(--icon-stroke)" stroke-width="var(--icon-stroke-width)" stroke-linejoin="round"/></symbol><symbol fill="none" viewBox="0 0 20 20" id="icon-sm-chevron-right" xmlns="http://www.w3.org/2000/svg"><path d="M8 14l4-4-4-4" stroke="var(--icon-stroke)" stroke-width="var(--icon-stroke-width)" stroke-linejoin="round"/></symbol><symbol fill="none" viewBox="0 0 24 24" id="icon-smile" xmlns="http://www.w3.org/2000/svg"><path d="M16 12a4 4 0 01-8 0m13 0a9 9 0 11-18 0 9 9 0 0118 0z" stroke="var(--icon-stroke)" stroke-width="var(--icon-stroke-width)"/></symbol><symbol fill="none" viewBox="0 0 24 24" id="icon-star" xmlns="http://www.w3.org/2000/svg"><path d="M12 4l2.54 5.505 6.02.714-4.451 4.116 1.181 5.946L12 17.32l-5.29 2.961 1.181-5.946-4.45-4.116 6.02-.714L12 4z" stroke="var(--icon-stroke)" stroke-width="var(--icon-stroke-width)"/></symbol><symbol fill="none" viewBox="0 0 24 24" id="icon-stethoscope" xmlns="http://www.w3.org/2000/svg"><path d="M16 11.1V16a5 5 0 01-10 0v-2m0 0a2 2 0 100-4 2 2 0 000 4zM17 3h3v4a4 4 0 01-8 0V3h3" stroke="var(--icon-stroke)" stroke-width="var(--icon-stroke-width)" stroke-linejoin="round"/></symbol><symbol fill="none" viewBox="0 0 24 24" id="icon-stomatology" xmlns="http://www.w3.org/2000/svg"><path d="M12.038 14.234c1.027 0 1.811.627 1.811 2.279s.223 4.486 1.704 4.486c1.481 0 1.817-1.443 2.093-3.208.191-1.62.178-3.095.178-4.88 0-1.785 2.172-4.177 2.172-6.019 0-1.841-.888-3.702-3.752-3.797-2.863-.095-2.982 1.082-4.206 1.082C10.813 4.177 10.675 3 7.772 3S4 5.089 4 6.892c0 1.804 2.192 4.234 2.192 6.02 0 1.784.023 3.26.217 4.879.277 1.765.613 3.208 2.094 3.208 1.48 0 1.732-2.834 1.732-4.486 0-1.652.776-2.28 1.783-2.28h.02z" stroke="var(--icon-stroke)" stroke-width="var(--icon-stroke-width)"/></symbol><symbol fill="none" viewBox="0 0 24 24" id="icon-store" xmlns="http://www.w3.org/2000/svg"><path d="M2 21h2m18 0h-2M4 21v-8.337M4 21h16M4 12.663a3.501 3.501 0 004.75-1.862 3.501 3.501 0 006.5 0A3.501 3.501 0 0020 12.664m-16 0a3.508 3.508 0 01-1.891-2.293c-.143-.561.017-1.142.26-1.668L5 3h14l2.632 5.702c.242.526.402 1.107.26 1.668A3.508 3.508 0 0120 12.663M20 21v-8.337" stroke="var(--icon-stroke)" stroke-width="var(--icon-stroke-width)" stroke-linejoin="round"/></symbol><symbol fill="none" viewBox="0 0 24 24" id="icon-success" xmlns="http://www.w3.org/2000/svg"><path d="M7 11.672l3.664 3.664L17 9m4 3a9 9 0 11-18 0 9 9 0 0118 0z" stroke="var(--icon-stroke)" stroke-width="var(--icon-stroke-width)" stroke-linejoin="round"/></symbol><symbol fill="none" viewBox="0 0 24 24" id="icon-test" xmlns="http://www.w3.org/2000/svg"><path d="M9 3h6M9 3H7m2 0v6m6-6h2m-2 0v6M9 9v9a3 3 0 003 3v0a3 3 0 003-3V9M9 9h6" stroke="var(--icon-stroke)" stroke-width="var(--icon-stroke-width)"/><path d="M13 16h.01M11 13h.01" stroke="var(--icon-stroke)" stroke-width="var(--icon-stroke-width)" stroke-linecap="round" stroke-linejoin="round"/></symbol><symbol fill="none" viewBox="0 0 24 24" id="icon-thermometer" xmlns="http://www.w3.org/2000/svg"><path d="M18.728 18.728l-.707-4.95-9.9-9.9A3 3 0 003.88 8.122l9.9 9.9 4.949.707zm0 0L21.3 21.3M10.646 10.646l4.9 4.9" stroke="var(--icon-stroke)" stroke-width="var(--icon-stroke-width)" stroke-linejoin="round"/></symbol><symbol fill="none" viewBox="0 0 24 24" id="icon-trash" xmlns="http://www.w3.org/2000/svg"><path d="M5 7h14M5 7v13.5a.5.5 0 00.5.5h13a.5.5 0 00.5-.5V7M5 7H2m17 0h3M10 18v-8m4 8v-8m2-3V3.5a.5.5 0 00-.5-.5h-7a.5.5 0 00-.5.5V7h8z" stroke="var(--icon-stroke)" stroke-width="var(--icon-stroke-width)"/></symbol><symbol fill="none" viewBox="0 0 24 24" id="icon-user" xmlns="http://www.w3.org/2000/svg"><path d="M5 22v-2a4 4 0 014-4h6a4 4 0 014 4v2M16.5 7.5a4.5 4.5 0 11-9 0 4.5 4.5 0 019 0z" stroke="var(--icon-stroke)" stroke-width="var(--icon-stroke-width)"/></symbol><symbol fill="none" viewBox="0 0 24 24" id="icon-warning" xmlns="http://www.w3.org/2000/svg"><path d="M12 13V7m0 10v-2m9-3a9 9 0 11-18 0 9 9 0 0118 0z" stroke="var(--icon-stroke)" stroke-width="var(--icon-stroke-width)"/></symbol><symbol fill="none" viewBox="0 0 24 24" id="icon-wc" xmlns="http://www.w3.org/2000/svg"><path d="M4 6a2 2 0 012-2h12a2 2 0 012 2v12a2 2 0 01-2 2H6a2 2 0 01-2-2V6z" stroke="var(--icon-stroke)" stroke-width="var(--icon-stroke-width)" stroke-linejoin="round"/><path d="M10 9a1 1 0 11-2 0 1 1 0 012 0zM16 9a1 1 0 11-2 0 1 1 0 012 0zM9 13l2 3H7l2-3zM15 16l2-3h-4l2 3z" stroke="var(--icon-stroke)" stroke-width="var(--icon-stroke-width)" stroke-linejoin="round"/></symbol><symbol fill="none" viewBox="0 0 24 24" id="icon-wine" xmlns="http://www.w3.org/2000/svg"><path d="M16 20h-4m-4 0h4m0-6a5 5 0 01-5-5m5 5a5 5 0 005-5m-5 5v6M7 9V4h10v5M7 9h10" stroke="var(--icon-stroke)" stroke-width="var(--icon-stroke-width)" stroke-linejoin="round"/></symbol><symbol fill="none" viewBox="0 0 24 24" id="icon-x-mark" xmlns="http://www.w3.org/2000/svg"><path d="M18 18L6 6m0 12L18 6" stroke="var(--icon-stroke)" stroke-width="var(--icon-stroke-width)"/></symbol><symbol fill="none" viewBox="0 0 24 24" id="icon-x-ray" xmlns="http://www.w3.org/2000/svg"><rect x="3" y="2" width="18" height="20" rx="2" fill="var(--icon-fill)"/><path d="M12 4v15M7 8.5V8a2 2 0 012-2h6a2 2 0 012 2v.5m-10 5V13a2 2 0 012-2h6a2 2 0 012 2v.5m-10 5V18a2 2 0 012-2h6a2 2 0 012 2v.5" stroke="#fff" stroke-width="var(--icon-stroke-width)"/></symbol></svg>