<svg width="24" height="24" viewBox="0 0 24 24" fill="none" xmlns="http://www.w3.org/2000/svg">
<path d="M10 7.71013C10.6337 7.89873 11.305 8 11.9999 8C12.6949 8 13.3662 7.89873 13.9999 7.71013M10 7.71013C7.41808 6.94173 5.46041 4.72376 5.0708 2M10 7.71013V14M18.9291 2C18.5395 4.72376 16.5818 6.94173 13.9999 7.71013M13.9999 7.71013L14 14M10 14V22M10 14H14M14 14L13.9999 22M13 4C13 4.55228 12.5523 5 12 5C11.4477 5 11 4.55228 11 4C11 3.44772 11.4477 3 12 3C12.5523 3 13 3.44772 13 4Z" stroke="var(--icon-stroke)" stroke-width="var(--icon-stroke-width)"/>
</svg>
