<svg width="24" height="24" viewBox="0 0 24 24" fill="none" xmlns="http://www.w3.org/2000/svg">
<path d="M2 21H4M22 21H20M4 21V12.6632M4 21H20M4 12.6632C4.45463 12.8792 4.9632 13 5.5 13C6.97303 13 8.23353 12.09 8.75 10.8015C9.26647 12.09 10.527 13 12 13C13.473 13 14.7335 12.09 15.25 10.8015C15.7665 12.09 17.027 13 18.5 13C19.0368 13 19.5454 12.8792 20 12.6632M4 12.6632C3.07175 12.2222 2.36839 11.3847 2.10887 10.3695C1.9655 9.80878 2.12561 9.22784 2.36816 8.70231L5 3H19L21.6318 8.70231C21.8744 9.22784 22.0345 9.80878 21.8911 10.3695C21.6316 11.3847 20.9282 12.2222 20 12.6632M20 21V12.6632" stroke="var(--icon-stroke)" stroke-width="var(--icon-stroke-width)" stroke-linejoin="round"/>
</svg>
