<svg width="24" height="24" viewBox="0 0 24 24" fill="none" xmlns="http://www.w3.org/2000/svg">
<path d="M12.0377 14.2338C13.0647 14.2338 13.8493 14.861 13.8493 16.5128C13.8493 18.1646 14.0719 20.9993 15.553 20.9993C17.0342 20.9993 17.3699 19.5564 17.6464 17.7906C17.8373 16.171 17.8241 14.6958 17.8241 12.9111C17.8241 11.1264 19.9965 8.73404 19.9965 6.89234C19.9965 5.05064 19.1077 3.18996 16.2442 3.09503C13.3807 3 13.2622 4.17726 12.0377 4.17726C10.8133 4.17726 10.6751 3 7.77201 3C4.86894 3 4 5.08861 4 6.89234C4 8.69607 6.19211 11.1264 6.19211 12.9111C6.19211 14.6958 6.21531 16.1712 6.40934 17.7906C6.68583 19.5564 7.02155 20.9993 8.50271 20.9993C9.98387 20.9993 10.2353 18.1646 10.2353 16.5128C10.2353 14.861 11.0108 14.2338 12.018 14.2338C13.0252 14.2338 11.0108 14.2338 12.0377 14.2338Z" stroke="var(--icon-stroke)" stroke-width="var(--icon-stroke-width)"/>
</svg>
