<svg width="24" height="24" viewBox="0 0 24 24" fill="none" xmlns="http://www.w3.org/2000/svg">
<path d="M3 3L9.17157 9.17157M21 21L14.8284 14.8284M9.363 5.365C10.2204 5.11972 11.1082 4.99684 12 5C16 5 19.333 7.333 22 12C21.222 13.361 20.388 14.524 19.497 15.488M17.357 17.349C15.726 18.449 13.942 19 12 19C8 19 4.667 16.667 2 12C3.369 9.605 4.913 7.825 6.632 6.659M9.17157 9.17157C8.44772 9.89543 8 10.8954 8 12C8 14.2091 9.79086 16 12 16C13.1046 16 14.1046 15.5523 14.8284 14.8284M9.17157 9.17157L14.8284 14.8284" stroke="var(--icon-stroke)" stroke-width="var(--icon-stroke-width)" stroke-linejoin="round"/>
<path d="M16 12C16 9.79086 14.2091 8 12 8" stroke="var(--icon-stroke)" stroke-width="var(--icon-stroke-width)"/>
</svg>
