<svg width="24" height="24" viewBox="0 0 24 24" fill="none" xmlns="http://www.w3.org/2000/svg">
<path d="M4 6C4 4.89543 4.89543 4 6 4H18C19.1046 4 20 4.89543 20 6V18C20 19.1046 19.1046 20 18 20H6C4.89543 20 4 19.1046 4 18V6Z" stroke="var(--icon-stroke)" stroke-width="var(--icon-stroke-width)" stroke-linejoin="round"/>
<path d="M10 9C10 9.55228 9.55228 10 9 10C8.44772 10 8 9.55228 8 9C8 8.44772 8.44772 8 9 8C9.55228 8 10 8.44772 10 9Z" stroke="var(--icon-stroke)" stroke-width="var(--icon-stroke-width)" stroke-linejoin="round"/>
<path d="M16 9C16 9.55228 15.5523 10 15 10C14.4477 10 14 9.55228 14 9C14 8.44772 14.4477 8 15 8C15.5523 8 16 8.44772 16 9Z" stroke="var(--icon-stroke)" stroke-width="var(--icon-stroke-width)" stroke-linejoin="round"/>
<path d="M9 13L11 16H7L9 13Z" stroke="var(--icon-stroke)" stroke-width="var(--icon-stroke-width)" stroke-linejoin="round"/>
<path d="M15 16L17 13H13L15 16Z" stroke="var(--icon-stroke)" stroke-width="var(--icon-stroke-width)" stroke-linejoin="round"/>
</svg>
