<svg width="24" height="24" viewBox="0 0 24 24" fill="none" xmlns="http://www.w3.org/2000/svg">
<path d="M16 18C16 18 14.5 16 12 16C9.5 16 8 18 8 18M22 12C22 17.5228 17.5228 22 12 22C6.47715 22 2 17.5228 2 12C2 6.47715 6.47715 2 12 2C17.5228 2 22 6.47715 22 12Z" stroke="var(--icon-stroke)" stroke-width="var(--icon-stroke-width)" stroke-linejoin="round"/>
<path d="M9 9H9.01M15 9H15.01M12 12H12.01M12 6H12.01M18 12H18.01M6 12H6.01M22 12C22 17.5228 17.5228 22 12 22C6.47715 22 2 17.5228 2 12C2 6.47715 6.47715 2 12 2C17.5228 2 22 6.47715 22 12Z" stroke="var(--icon-stroke)" stroke-width="var(--icon-stroke-width)" stroke-linejoin="round"/>
<circle cx="12" cy="12" r="0.5" stroke="var(--icon-stroke)" stroke-width="var(--icon-stroke-width)"/>
<circle cx="6" cy="12" r="0.5" stroke="var(--icon-stroke)" stroke-width="var(--icon-stroke-width)"/>
<circle cx="18" cy="12" r="0.5" stroke="var(--icon-stroke)" stroke-width="var(--icon-stroke-width)"/>
<circle cx="15" cy="9" r="0.5" stroke="var(--icon-stroke)" stroke-width="var(--icon-stroke-width)"/>
<circle cx="12" cy="6" r="0.5" stroke="var(--icon-stroke)" stroke-width="var(--icon-stroke-width)"/>
<circle cx="9" cy="9" r="0.5" stroke="var(--icon-stroke)" stroke-width="var(--icon-stroke-width)"/>
</svg>
