<svg width="24" height="24" viewBox="0 0 24 24" fill="none" xmlns="http://www.w3.org/2000/svg">
<path d="M8.00006 14.5C8.50006 16.5 10.3581 17 12.0001 17C14.9051 17 16.0001 15.813 16.0001 14.5C16.0001 12.997 14.0731 12 12.0001 12C9.92706 12 8.00006 11.003 8.00006 9.50003C8.00006 8.18703 9.09506 7.00003 12.0001 7.00003C13.6421 7.00003 15.5001 7.50003 16.0001 9.50003M12.0001 3.00003C13.4089 2.99972 14.7981 3.33016 16.056 3.96475C17.3138 4.59934 18.4051 5.52035 19.242 6.65367C20.0789 7.78699 20.638 9.10096 20.8744 10.4898C21.1108 11.8787 21.0179 13.3036 20.6031 14.65C20.9792 15.4831 21.0926 16.411 20.9284 17.3102C20.7641 18.2094 20.33 19.0372 19.6836 19.6836C19.0373 20.3299 18.2094 20.7641 17.3102 20.9284C16.411 21.0926 15.4832 20.9791 14.6501 20.603C13.0858 21.0855 11.4196 21.1323 9.83082 20.7383C8.242 20.3442 6.79073 19.5244 5.63323 18.3669C4.47573 17.2094 3.65584 15.7581 3.26181 14.1693C2.86779 12.5805 2.91455 10.9143 3.39706 9.35003C3.02063 8.51689 2.9069 7.58885 3.071 6.68946C3.2351 5.79007 3.66926 4.962 4.31567 4.31548C4.96207 3.66896 5.79007 3.23467 6.68943 3.07042C7.58879 2.90616 8.51685 3.01974 9.35006 3.39603C10.2086 3.13235 11.1019 2.99887 12.0001 3.00003Z" stroke="var(--icon-stroke)" stroke-width="var(--icon-stroke-width)" stroke-linejoin="round"/>
</svg>
