<svg width="24" height="25" viewBox="0 0 24 25" fill="none" xmlns="http://www.w3.org/2000/svg">
<path d="M7.5 18.498C4.80989 17.5908 3 15.8951 3 13.953V7.26796C3 4.37014 7.02944 2.021 12 2.021C16.9706 2.021 21 4.37014 21 7.26796V13.953C21 16.8508 16.9706 19.2 12 19.2L9 22.2315M11.7098 7.83953C12.3602 7.91434 12.991 8.2038 13.4898 8.7079C13.9887 9.212 14.2751 9.84947 14.3492 10.5067M11.8082 5.09156C13.1754 5.018 14.5668 5.5089 15.6112 6.56425C16.6555 7.6196 17.1413 9.02567 17.0685 10.4073M9.60064 9.77965C9.60064 9.0651 8.89358 7.68072 7.83287 7.27872C7.18997 7.03507 6.22813 7.62458 5.95466 8.28353C4.73856 11.2139 11.0097 17.5511 13.9095 16.3222C14.5616 16.0459 15.145 15.0739 14.9039 14.4242C14.5061 13.3523 13.1361 12.6378 12.429 12.6378" stroke="var(--icon-stroke)" stroke-width="var(--icon-stroke-width)" stroke-linejoin="round"/>
</svg>
