<svg width="24" height="24" viewBox="0 0 24 24" fill="none" xmlns="http://www.w3.org/2000/svg">
<path d="M6 5H21V3H6V5ZM6 9H18V7H6V9ZM6 13H18V11H6V13ZM6 17H18V15H6V17ZM3 21H18V19H3V21ZM18 21C19.6569 21 21 19.6569 21 18H19C19 18.5523 18.5523 19 18 19V21ZM18 17C18.5523 17 19 17.4477 19 18H21C21 16.3431 19.6569 15 18 15V17ZM6 15C5.44772 15 5 14.5523 5 14H3C3 15.6569 4.34315 17 6 17V15ZM6 11C4.34315 11 3 12.3431 3 14H5C5 13.4477 5.44772 13 6 13V11ZM18 9C18.5523 9 19 9.44772 19 10H21C21 8.34315 19.6569 7 18 7V9ZM6 7C5.44772 7 5 6.55228 5 6H3C3 7.65685 4.34315 9 6 9V7ZM18 13C19.6569 13 21 11.6569 21 10H19C19 10.5523 18.5523 11 18 11V13ZM6 3C4.34315 3 3 4.34315 3 6H5C5 5.44772 5.44772 5 6 5V3Z" fill="black"/>
</svg>
