<svg width="24" height="24" viewBox="0 0 24 24" fill="none" xmlns="http://www.w3.org/2000/svg">
<path d="M16 24V16C16 13.7909 14.2091 12 12 12C9.79086 12 8 13.7909 8 16V24M5 15.5351C3.8044 16.2267 3 17.5194 3 19V24M19 15.5351C20.1956 16.2267 21 17.5194 21 19V24M7 10C7 11.1046 6.10457 12 5 12C3.89543 12 3 11.1046 3 10C3 8.89543 3.89543 8 5 8C6.10457 8 7 8.89543 7 10ZM21 10C21 11.1046 20.1046 12 19 12C17.8954 12 17 11.1046 17 10C17 8.89543 17.8954 8 19 8C20.1046 8 21 8.89543 21 10ZM15 6C15 7.65685 13.6569 9 12 9C10.3431 9 9 7.65685 9 6C9 4.34315 10.3431 3 12 3C13.6569 3 15 4.34315 15 6Z" stroke="var(--icon-stroke)" stroke-width="var(--icon-stroke-width)"/>
</svg>
