<svg width="24" height="24" viewBox="0 0 24 24" fill="none" xmlns="http://www.w3.org/2000/svg">
<path d="M21 7V3H12V7M21 7L19 17M21 7H12M12 7L14 17M14 17H19M14 17V21H19V17M4 11.6003C3.38141 11.961 3 12.4551 3 13V15M4 11.6003C4.63526 11.2298 5.52066 11 6.5 11C7.47934 11 8.36474 11.2298 9 11.6003M4 11.6003V7H9V11.6003M9 11.6003C9.61859 11.961 10 12.4551 10 13V15M10 15H3M10 15V20.5C10 20.7761 9.77614 21 9.5 21H3.5C3.22386 21 3 20.7761 3 20.5V15" stroke="var(--icon-stroke)" stroke-width="var(--icon-stroke-width)" stroke-linejoin="round"/>
</svg>
