<svg width="24" height="24" viewBox="0 0 24 24" fill="none" xmlns="http://www.w3.org/2000/svg">
<path d="M13 17V16C12.4477 16 12 16.4477 12 17H13ZM6 15H7C7 14.4477 6.55229 14 6 14V15ZM3.45435 14.2428L2.59686 13.7283L2.59686 13.7283L3.45435 14.2428ZM6 10L6.85749 10.5145C6.95074 10.3591 7 10.1812 7 10H6ZM9.03075 9.50099L8.0384 9.3775L9.03075 9.50099ZM16.9691 9.50099L15.9768 9.62449L16.9691 9.50099ZM13 18C17.4183 18 21 14.4183 21 10H19C19 13.3137 16.3137 16 13 16V18ZM9 22C11.7614 22 14 19.7614 14 17H12C12 18.6569 10.6569 20 9 20V22ZM8 22H9V20H8V22ZM5 19C5 20.6569 6.34315 22 8 22V20C7.44772 20 7 19.5523 7 19H5ZM5 15V19H7V15H5ZM6 14H3.8831V16H6V14ZM3.8831 14C4.27174 14 4.5118 14.424 4.31184 14.7572L2.59686 13.7283C1.99699 14.728 2.71715 16 3.8831 16V14ZM4.31184 14.7572L6.85749 10.5145L5.14251 9.4855L2.59686 13.7283L4.31184 14.7572ZM13 2C8.58172 2 5 5.58172 5 10H7C7 6.68629 9.68629 4 13 4V2ZM21 10C21 5.58172 17.4183 2 13 2V4C16.3137 4 19 6.68629 19 10H21ZM12.9999 7C14.5293 7 15.7927 8.14528 15.9768 9.62449L17.9614 9.3775C17.6543 6.90943 15.5509 5 12.9999 5V7ZM10.0231 9.62448C10.2072 8.14528 11.4706 7 12.9999 7V5C10.449 5 8.34554 6.90943 8.0384 9.3775L10.0231 9.62448ZM9.49992 11H16.4999V9H9.49992V11ZM8.0384 9.3775C7.91969 10.3314 8.70952 11 9.49992 11V9C9.73804 9 10.0736 9.21866 10.0231 9.62448L8.0384 9.3775ZM15.9768 9.62449C15.9263 9.21866 16.2618 9 16.4999 9V11C17.2903 11 18.0801 10.3314 17.9614 9.3775L15.9768 9.62449Z" fill="black"/>
</svg>
