<svg width="24" height="24" viewBox="0 0 24 24" fill="none" xmlns="http://www.w3.org/2000/svg">
<path d="M12 3L12.6 2.2C12.2444 1.93333 11.7556 1.93333 11.4 2.2L12 3ZM18 14C18 17.3137 15.3137 20 12 20V22C16.4183 22 20 18.4183 20 14H18ZM12 20C8.68629 20 6 17.3137 6 14H4C4 18.4183 7.58172 22 12 22V20ZM6 14C6 10.6061 8.69151 6.73137 12.6 3.8L11.4 2.2C7.30849 5.26863 4 9.66194 4 14H6ZM11.4 3.8C15.3085 6.73137 18 10.6061 18 14H20C20 9.66194 16.6915 5.26863 12.6 2.2L11.4 3.8ZM15 16H9V18H15V16ZM15 10H12V12H15V10ZM12 10H9V12H12V10ZM13 11V8H11V11H13ZM11 11V14H13V11H11Z" fill="black"/>
</svg>
