<svg width="24" height="24" viewBox="0 0 24 24" fill="none" xmlns="http://www.w3.org/2000/svg">
<path d="M12.7321 8.79904L13.5981 8.29904C14.0764 8.0229 14.2402 7.41131 13.9641 6.93302L11.9641 3.46892C11.688 2.99062 11.0764 2.82675 10.5981 3.10289L8.86603 4.10289C8.38773 4.37903 8.22386 4.99062 8.5 5.46892L10.5 8.93302C10.7761 9.41131 11.3877 9.57519 11.866 9.29904L12.7321 8.79904ZM12.7321 8.79904L14.2321 11.3971M11.4649 21C11.8052 20.4116 12 19.7286 12 19C12 18.4275 11.8797 17.8831 11.6631 17.3907M11.4649 21H4.53513C4.19479 20.4116 4 19.7286 4 19C4 18.0585 4.32525 17.193 4.86952 16.5097M11.4649 21H20M9.40101 7.42661C6.36853 7.72717 4 10.2855 4 13.3971C4 14.5368 4.31776 15.6022 4.86952 16.5097M4.86952 16.5097C5.60237 15.5897 6.73232 15 8 15C9.63664 15 11.0437 15.9829 11.6631 17.3907M19.5 12.866L11.6631 17.3907" stroke="var(--icon-stroke)" stroke-width="var(--icon-stroke-width)"/>
</svg>
