<svg width="44" height="44" viewBox="0 0 44 44" fill="none" xmlns="http://www.w3.org/2000/svg">
<path d="M11.7497 38.0006C13.3496 33.9029 17.3358 31 22 31C26.6642 31 30.6504 33.9029 32.2504 38.0006M19.1706 21H12C11.4477 21 11 21.4477 11 22C11 22.5523 11.4477 23 12 23H19.1706M23 12C23 12.5523 22.5523 13 22 13C21.4477 13 21 12.5523 21 12C21 11.4477 21.4477 11 22 11C22.5523 11 23 11.4477 23 12ZM15.636 14.2218C16.0266 14.6123 16.0266 15.2455 15.636 15.636C15.2455 16.0266 14.6123 16.0266 14.2218 15.636C13.8313 15.2455 13.8313 14.6123 14.2218 14.2218C14.6123 13.8313 15.2455 13.8313 15.636 14.2218ZM29.7782 15.636C29.3876 16.0265 28.7545 16.0265 28.3639 15.636C27.9734 15.2454 27.9734 14.6123 28.3639 14.2218C28.7545 13.8312 29.3876 13.8312 29.7782 14.2218C30.1687 14.6123 30.1687 15.2454 29.7782 15.636ZM32 23C31.4477 23 31 22.5523 31 22C31 21.4477 31.4477 21 32 21C32.5523 21 33 21.4477 33 22C33 22.5523 32.5523 23 32 23ZM21.9999 19C23.6568 19 24.9999 20.3431 24.9999 22C24.9999 23.6569 23.6568 25 21.9999 25C20.3431 25 18.9999 23.6569 18.9999 22C18.9999 20.3431 20.3431 19 21.9999 19ZM41 22C41 32.4934 32.4934 41 22 41C11.5066 41 3 32.4934 3 22C3 11.5066 11.5066 3 22 3C32.4934 3 41 11.5066 41 22Z" stroke="var(--icon-stroke)" stroke-width="var(--icon-stroke-width)"/>
</svg>
